SplineFontDB: 3.2
FontName: KoreeneSans-ExtraBoldItalic
FullName: Koreene Sans ExtraBold Italic
FamilyName: Koreene Sans ExtraBold
Weight: Heavy
Copyright: (C) Copyright HanYang I&C Co.,Ltd. All rights reserved.
Version: 2.52; ttfautohint (v1.8.4.7-5d5b-dirty)
ItalicAngle: -9.4
UnderlinePosition: -244
UnderlineWidth: 90
Ascent: 1638
Descent: 410
InvalidEm: 0
sfntRevision: 0x00020147
LayerCount: 2
Layer: 0 1 "Back" 1
Layer: 1 1 "Fore" 0
XUID: [1021 531 -1996577725 10965455]
StyleMap: 0x0040
FSType: 0
OS2Version: 4
OS2_WeightWidthSlopeOnly: 0
OS2_UseTypoMetrics: 1
CreationTime: 1068260456
ModificationTime: 1706985014
PfmFamily: 81
TTFWeight: 800
TTFWidth: 5
LineGap: 512
VLineGap: 0
Panose: 0 0 0 0 0 0 0 0 0 0
OS2TypoAscent: 1940
OS2TypoAOffset: 0
OS2TypoDescent: -470
OS2TypoDOffset: 0
OS2TypoLinegap: 512
OS2WinAscent: 2196
OS2WinAOffset: 0
OS2WinDescent: 726
OS2WinDOffset: 0
HheadAscent: 1940
HheadAOffset: 0
HheadDescent: -470
HheadDOffset: 0
OS2SubXSize: 410
OS2SubYSize: 410
OS2SubXOff: 0
OS2SubYOff: 574
OS2SupXSize: 410
OS2SupYSize: 410
OS2SupXOff: 0
OS2SupYOff: 1926
OS2StrikeYSize: 204
OS2StrikeYPos: 1024
OS2CapHeight: 1470
OS2XHeight: 1076
OS2Vendor: 'HY  '
OS2CodePages: 2000019f.00000000
OS2UnicodeRanges: e10002ff.4000001b.00000000.00000000
Lookup: 1 0 0 "'aalt' Access All Alternates lookup 0" { "'aalt' Access All Alternates lookup 0 subtable"  } ['aalt' ('DFLT' <'dflt' > 'cyrl' <'dflt' > 'grek' <'dflt' > 'hang' <'dflt' > 'jamo' <'dflt' > 'latn' <'dflt' > ) ]
Lookup: 3 0 0 "'aalt' Access All Alternates lookup 1" { "'aalt' Access All Alternates lookup 1 subtable"  } ['aalt' ('DFLT' <'dflt' > 'cyrl' <'dflt' > 'grek' <'dflt' > 'hang' <'dflt' > 'jamo' <'dflt' > 'latn' <'dflt' > ) ]
Lookup: 1 0 0 "'locl' Localized Forms in Latin lookup 2" { "'locl' Localized Forms in Latin lookup 2 subtable"  } ['locl' ('latn' <'MOL ' > ) ]
Lookup: 1 0 0 "'locl' Localized Forms in Latin lookup 3" { "'locl' Localized Forms in Latin lookup 3 subtable"  } ['locl' ('latn' <'ROM ' > ) ]

StartChar: exclam
Encoding: 33 33 4
Width: 586
GlyphClass: 2
Flags: W
LayerCount: 2
Fore
SplineSet
34 -6 m 1,0,-1
 84 294 l 1,1,-1
 414 294 l 1,2,-1
 364 -6 l 1,3,-1
 34 -6 l 1,0,-1
394 420 m 1,4,-1
 146 420 l 1,5,-1
 304 1480 l 1,6,-1
 586 1480 l 1,7,-1
 394 420 l 1,4,-1
EndSplineSet
EndChar

StartChar: quotedbl
Encoding: 34 34 5
Width: 1110
GlyphClass: 2
Flags: W
LayerCount: 2
Fore
SplineSet
648 1018 m 1,0,-1
 930 1628 l 1,1,-1
 1210 1628 l 1,2,-1
 856 1018 l 1,3,-1
 648 1018 l 1,0,-1
196 1018 m 1,4,-1
 478 1628 l 1,5,-1
 758 1628 l 1,6,-1
 404 1018 l 1,7,-1
 196 1018 l 1,4,-1
EndSplineSet
EndChar

StartChar: numbersign
Encoding: 35 35 6
Width: 1438
GlyphClass: 2
Flags: W
LayerCount: 2
Fore
SplineSet
56 356 m 1,0,-1
 90 558 l 1,1,-1
 326 558 l 1,2,-1
 418 874 l 1,3,-1
 202 874 l 1,4,-1
 236 1076 l 1,5,-1
 478 1076 l 1,6,-1
 582 1432 l 1,7,-1
 818 1432 l 1,8,-1
 714 1076 l 1,9,-1
 988 1076 l 1,10,-1
 1092 1432 l 1,11,-1
 1330 1432 l 1,12,-1
 1224 1076 l 1,13,-1
 1432 1076 l 1,14,-1
 1398 874 l 1,15,-1
 1164 874 l 1,16,-1
 1074 558 l 1,17,-1
 1286 558 l 1,18,-1
 1254 356 l 1,19,-1
 1014 356 l 1,20,-1
 912 4 l 1,21,-1
 672 4 l 1,22,-1
 778 356 l 1,23,-1
 502 356 l 1,24,-1
 400 4 l 1,25,-1
 160 4 l 1,26,-1
 266 356 l 1,27,-1
 56 356 l 1,0,-1
562 558 m 1,28,-1
 836 558 l 1,29,-1
 930 874 l 1,30,-1
 654 874 l 1,31,-1
 562 558 l 1,28,-1
EndSplineSet
EndChar

StartChar: dollar
Encoding: 36 36 7
Width: 1128
GlyphClass: 2
Flags: W
LayerCount: 2
Fore
SplineSet
30 320 m 1,0,-1
 238 410 l 1,1,2
 322 224 322 224 524 224 c 0,3,4
 606 224 606 224 673 274 c 128,-1,5
 740 324 740 324 754 410 c 0,6,7
 762 458 762 458 749 492 c 128,-1,8
 736 526 736 526 698 553 c 128,-1,9
 660 580 660 580 620 600 c 128,-1,10
 580 620 580 620 506 654 c 128,-1,11
 432 688 432 688 376 720 c 0,12,13
 164 840 164 840 204 1078 c 0,14,15
 224 1198 224 1198 325 1309 c 128,-1,16
 426 1420 426 1420 598 1454 c 1,17,-1
 624 1616 l 1,18,-1
 866 1616 l 1,19,-1
 838 1452 l 1,20,21
 942 1440 942 1440 1025 1356 c 128,-1,22
 1108 1272 1108 1272 1132 1184 c 1,23,-1
 916 1086 l 1,24,25
 840 1244 840 1244 682 1244 c 0,26,27
 598 1244 598 1244 538 1196 c 128,-1,28
 478 1148 478 1148 466 1076 c 0,29,30
 460 1040 460 1040 469 1012 c 128,-1,31
 478 984 478 984 493 965 c 128,-1,32
 508 946 508 946 544 923 c 128,-1,33
 580 900 580 900 610 886 c 128,-1,34
 640 872 640 872 703 845 c 128,-1,35
 766 818 766 818 806 798 c 0,36,37
 1064 674 1064 674 1024 434 c 0,38,39
 996 268 996 268 881 156 c 128,-1,40
 766 44 766 44 600 10 c 1,41,-1
 576 -140 l 1,42,-1
 334 -140 l 1,43,-1
 360 16 l 1,44,45
 250 30 250 30 155 118 c 128,-1,46
 60 206 60 206 30 320 c 1,0,-1
EndSplineSet
EndChar

StartChar: percent
Encoding: 37 37 8
Width: 1962
GlyphClass: 2
Flags: W
LayerCount: 2
Fore
SplineSet
1260 346 m 0,0,1
 1246 260 1246 260 1285 212 c 128,-1,2
 1324 164 1324 164 1388 164 c 0,3,4
 1454 164 1454 164 1508 212 c 128,-1,5
 1562 260 1562 260 1576 346 c 0,6,7
 1590 428 1590 428 1554 477 c 128,-1,8
 1518 526 1518 526 1448 526 c 0,9,10
 1382 526 1382 526 1328 478 c 128,-1,11
 1274 430 1274 430 1260 346 c 0,0,1
442 1124 m 0,12,13
 428 1038 428 1038 467 991 c 128,-1,14
 506 944 506 944 572 944 c 0,15,16
 640 944 640 944 692 993 c 128,-1,17
 744 1042 744 1042 758 1124 c 0,18,19
 772 1208 772 1208 736 1257 c 128,-1,20
 700 1306 700 1306 632 1306 c 256,21,22
 564 1306 564 1306 510 1257 c 128,-1,23
 456 1208 456 1208 442 1124 c 0,12,13
250 -12 m 1,24,-1
 1508 1482 l 1,25,-1
 1774 1482 l 1,26,-1
 514 -12 l 1,27,-1
 250 -12 l 1,24,-1
1020 346 m 0,28,29
 1046 508 1046 508 1175 616 c 128,-1,30
 1304 724 1304 724 1482 724 c 256,31,32
 1660 724 1660 724 1753 616 c 128,-1,33
 1846 508 1846 508 1818 346 c 0,34,35
 1790 178 1790 178 1659 73 c 128,-1,36
 1528 -32 1528 -32 1356 -32 c 0,37,38
 1178 -32 1178 -32 1085 75 c 128,-1,39
 992 182 992 182 1020 346 c 0,28,29
202 1124 m 0,40,41
 228 1286 228 1286 357 1394 c 128,-1,42
 486 1502 486 1502 664 1502 c 256,43,44
 842 1502 842 1502 934 1395 c 128,-1,45
 1026 1288 1026 1288 998 1124 c 0,46,47
 970 958 970 958 841 852 c 128,-1,48
 712 746 712 746 538 746 c 0,49,50
 360 746 360 746 267 853 c 128,-1,51
 174 960 174 960 202 1124 c 0,40,41
EndSplineSet
EndChar

StartChar: ampersand
Encoding: 38 38 9
Width: 1338
GlyphClass: 2
Flags: W
LayerCount: 2
Fore
SplineSet
310 398 m 0,0,1
 294 302 294 302 347 246 c 128,-1,2
 400 190 400 190 498 190 c 0,3,4
 622 190 622 190 746 298 c 1,5,-1
 518 682 l 1,6,7
 336 554 336 554 310 398 c 0,0,1
48 394 m 0,8,9
 94 666 94 666 424 864 c 1,10,-1
 412 886 l 2,11,12
 398 910 398 910 395 913 c 128,-1,13
 392 916 392 916 381 937 c 128,-1,14
 370 958 370 958 368 967 c 128,-1,15
 366 976 366 976 357 996 c 128,-1,16
 348 1016 348 1016 347 1028 c 128,-1,17
 346 1040 346 1040 343 1059 c 128,-1,18
 340 1078 340 1078 340 1095 c 128,-1,19
 340 1112 340 1112 344 1130 c 0,20,21
 370 1284 370 1284 491 1374 c 128,-1,22
 612 1464 612 1464 792 1464 c 0,23,24
 950 1464 950 1464 1044 1383 c 128,-1,25
 1138 1302 1138 1302 1166 1182 c 1,26,-1
 962 1100 l 1,27,28
 902 1244 902 1244 778 1244 c 0,29,30
 708 1244 708 1244 663 1212 c 128,-1,31
 618 1180 618 1180 610 1122 c 0,32,33
 606 1102 606 1102 611 1077 c 128,-1,34
 616 1052 616 1052 632 1015 c 128,-1,35
 648 978 648 978 663 945 c 128,-1,36
 678 912 678 912 710 857 c 128,-1,37
 742 802 742 802 768 761 c 128,-1,38
 794 720 794 720 838 646 c 128,-1,39
 882 572 882 572 912 522 c 1,40,41
 958 606 958 606 1002 742 c 1,42,-1
 1232 702 l 1,43,44
 1160 472 1160 472 1036 310 c 1,45,-1
 1228 0 l 1,46,-1
 918 0 l 1,47,-1
 852 104 l 1,48,49
 678 -34 678 -34 460 -34 c 0,50,51
 232 -34 232 -34 125 90 c 128,-1,52
 18 214 18 214 48 394 c 0,8,9
EndSplineSet
EndChar

StartChar: quotesingle
Encoding: 39 39 10
Width: 686
GlyphClass: 2
Flags: W
LayerCount: 2
Fore
SplineSet
228 1018 m 1,0,-1
 510 1628 l 1,1,-1
 790 1628 l 1,2,-1
 438 1018 l 1,3,-1
 228 1018 l 1,0,-1
EndSplineSet
EndChar

StartChar: parenleft
Encoding: 40 40 11
Width: 840
GlyphClass: 2
Flags: W
LayerCount: 2
Fore
SplineSet
238 708 m 0,0,1
 328 1248 328 1248 736 1704 c 1,2,-1
 904 1590 l 2,3,4
 902 1584 902 1584 864 1535 c 128,-1,5
 826 1486 826 1486 817 1473 c 128,-1,6
 808 1460 808 1460 772 1411 c 128,-1,7
 736 1362 736 1362 723 1338 c 128,-1,8
 710 1314 710 1314 679 1260 c 128,-1,9
 648 1206 648 1206 633 1170 c 128,-1,10
 618 1134 618 1134 593 1075 c 128,-1,11
 568 1016 568 1016 553 964 c 128,-1,12
 538 912 538 912 521 845 c 128,-1,13
 504 778 504 778 492 708 c 0,14,15
 446 432 446 432 480 233 c 128,-1,16
 514 34 514 34 610 -178 c 1,17,-1
 406 -290 l 1,18,19
 282 -60 282 -60 236 179 c 128,-1,20
 190 418 190 418 238 708 c 0,0,1
EndSplineSet
Substitution2: "'sups' Superscript lookup 5 subtable" uni207D
Substitution2: "'aalt' Access All Alternates lookup 0 subtable" uni207D
EndChar

StartChar: parenright
Encoding: 41 41 12
Width: 840
GlyphClass: 2
Flags: W
LayerCount: 2
Fore
SplineSet
-18 -178 m 1,0,1
 162 44 162 44 258 249 c 128,-1,2
 354 454 354 454 394 706 c 0,3,4
 420 860 420 860 421 991 c 128,-1,5
 422 1122 422 1122 398 1232 c 128,-1,6
 374 1342 374 1342 347 1415 c 128,-1,7
 320 1488 320 1488 274 1590 c 1,8,-1
 484 1704 l 1,9,10
 602 1494 602 1494 652 1256 c 128,-1,11
 702 1018 702 1018 650 706 c 0,12,13
 600 408 600 408 475 170 c 128,-1,14
 350 -68 350 -68 154 -290 c 1,15,-1
 -18 -178 l 1,0,1
EndSplineSet
Substitution2: "'sups' Superscript lookup 5 subtable" uni207E
Substitution2: "'aalt' Access All Alternates lookup 0 subtable" uni207E
EndChar

StartChar: asterisk
Encoding: 42 42 13
Width: 1086
GlyphClass: 2
Flags: W
LayerCount: 2
Fore
SplineSet
66 792 m 1,0,-1
 190 1006 l 1,1,-1
 490 878 l 1,2,-1
 536 1228 l 1,3,-1
 770 1228 l 1,4,-1
 700 878 l 1,5,-1
 1042 1006 l 1,6,-1
 1094 792 l 1,7,-1
 716 688 l 1,8,-1
 944 386 l 1,9,-1
 720 236 l 1,10,-1
 544 572 l 1,11,-1
 254 236 l 1,12,-1
 82 386 l 1,13,-1
 412 688 l 1,14,-1
 66 792 l 1,0,-1
EndSplineSet
EndChar

StartChar: plus
Encoding: 43 43 14
Width: 1084
GlyphClass: 2
Flags: W
LayerCount: 2
Fore
SplineSet
54 608 m 1,0,-1
 92 840 l 1,1,-1
 458 840 l 1,2,-1
 522 1220 l 1,3,-1
 776 1220 l 1,4,-1
 714 840 l 1,5,-1
 1080 840 l 1,6,-1
 1042 608 l 1,7,-1
 676 608 l 1,8,-1
 610 214 l 1,9,-1
 356 214 l 1,10,-1
 420 608 l 1,11,-1
 54 608 l 1,0,-1
EndSplineSet
Substitution2: "'sups' Superscript lookup 5 subtable" uni207A
Substitution2: "'aalt' Access All Alternates lookup 0 subtable" uni207A
EndChar

StartChar: comma
Encoding: 44 44 15
Width: 550
GlyphClass: 2
Flags: W
LayerCount: 2
Fore
SplineSet
-136 -304 m 1,0,-1
 144 304 l 1,1,-1
 430 304 l 1,2,-1
 72 -304 l 1,3,-1
 -136 -304 l 1,0,-1
EndSplineSet
EndChar

StartChar: hyphen
Encoding: 45 45 16
Width: 754
GlyphClass: 2
Flags: W
LayerCount: 2
Fore
SplineSet
68 608 m 1,0,-1
 106 840 l 1,1,-1
 738 840 l 1,2,-1
 700 608 l 1,3,-1
 68 608 l 1,0,-1
EndSplineSet
EndChar

StartChar: period
Encoding: 46 46 17
Width: 550
GlyphClass: 2
Flags: W
LayerCount: 2
Fore
SplineSet
14 0 m 1,0,-1
 64 304 l 1,1,-1
 392 304 l 1,2,-1
 342 0 l 1,3,-1
 14 0 l 1,0,-1
EndSplineSet
EndChar

StartChar: slash
Encoding: 47 47 18
Width: 766
GlyphClass: 2
Flags: W
LayerCount: 2
Fore
SplineSet
-140 -106 m 1,0,-1
 692 1566 l 1,1,-1
 960 1566 l 1,2,-1
 128 -106 l 1,3,-1
 -140 -106 l 1,0,-1
EndSplineSet
EndChar

StartChar: zero
Encoding: 48 48 19
Width: 1100
GlyphClass: 2
Flags: W
LayerCount: 2
Fore
SplineSet
356 734 m 256,0,1
 266 190 266 190 472 190 c 0,2,3
 676 190 676 190 766 734 c 256,4,5
 856 1278 856 1278 650 1278 c 0,6,7
 446 1278 446 1278 356 734 c 256,0,1
82 734 m 0,8,9
 112 912 112 912 165 1051 c 128,-1,10
 218 1190 218 1190 279 1273 c 128,-1,11
 340 1356 340 1356 415 1410 c 128,-1,12
 490 1464 490 1464 555 1483 c 128,-1,13
 620 1502 620 1502 688 1502 c 0,14,15
 922 1502 922 1502 1012 1298 c 128,-1,16
 1102 1094 1102 1094 1042 734 c 0,17,18
 984 378 984 378 825 172 c 128,-1,19
 666 -34 666 -34 436 -34 c 0,20,21
 374 -34 374 -34 314 -16 c 128,-1,22
 254 2 254 2 197 54 c 128,-1,23
 140 106 140 106 105 188 c 128,-1,24
 70 270 70 270 61 411 c 128,-1,25
 52 552 52 552 82 734 c 0,8,9
EndSplineSet
EndChar

StartChar: one
Encoding: 49 49 20
Width: 1100
GlyphClass: 2
Flags: W
LayerCount: 2
Fore
SplineSet
200 1010 m 1,0,-1
 234 1214 l 1,1,-1
 302 1214 l 2,2,3
 462 1214 462 1214 542 1280 c 0,4,5
 624 1348 624 1348 640 1446 c 2,6,-1
 644 1470 l 1,7,-1
 878 1470 l 1,8,-1
 630 0 l 1,9,-1
 356 0 l 1,10,-1
 526 1010 l 1,11,-1
 200 1010 l 1,0,-1
EndSplineSet
Substitution2: "'subs' Subscript lookup 6 subtable" uni2081
Substitution2: "'sups' Superscript lookup 5 subtable" onesuperior
Substitution2: "'sinf' Scientific Inferiors lookup 4 subtable" uni2081
AlternateSubs2: "'aalt' Access All Alternates lookup 1 subtable" uni2081 onesuperior
EndChar

StartChar: two
Encoding: 50 50 21
Width: 1100
GlyphClass: 2
Flags: W
LayerCount: 2
Fore
SplineSet
152 1098 m 1,0,1
 224 1286 224 1286 359 1394 c 128,-1,2
 494 1502 494 1502 680 1502 c 0,3,4
 878 1502 878 1502 985 1386 c 128,-1,5
 1092 1270 1092 1270 1058 1074 c 0,6,7
 1036 946 1036 946 963 844 c 128,-1,8
 890 742 890 742 766 636 c 0,9,10
 736 610 736 610 660 546 c 128,-1,11
 584 482 584 482 544 445 c 128,-1,12
 504 408 504 408 447 346 c 128,-1,13
 390 284 390 284 348 222 c 1,14,-1
 912 222 l 1,15,-1
 876 0 l 1,16,-1
 -14 0 l 1,17,18
 2 92 2 92 45 183 c 128,-1,19
 88 274 88 274 135 341 c 128,-1,20
 182 408 182 408 264 489 c 128,-1,21
 346 570 346 570 399 617 c 128,-1,22
 452 664 452 664 546 742 c 0,23,24
 568 762 568 762 582 770 c 0,25,26
 758 916 758 916 784 1080 c 0,27,28
 798 1170 798 1170 758 1224 c 128,-1,29
 718 1278 718 1278 640 1278 c 0,30,31
 464 1278 464 1278 366 1028 c 1,32,-1
 152 1098 l 1,0,1
EndSplineSet
Substitution2: "'subs' Subscript lookup 6 subtable" uni2082
Substitution2: "'sups' Superscript lookup 5 subtable" twosuperior
Substitution2: "'sinf' Scientific Inferiors lookup 4 subtable" uni2082
AlternateSubs2: "'aalt' Access All Alternates lookup 1 subtable" uni2082 twosuperior
EndChar

StartChar: three
Encoding: 51 51 22
Width: 1100
GlyphClass: 2
Flags: W
LayerCount: 2
Fore
SplineSet
-2 310 m 1,0,-1
 220 388 l 1,1,2
 270 190 270 190 452 190 c 0,3,4
 546 190 546 190 622 252 c 128,-1,5
 698 314 698 314 716 424 c 0,6,7
 732 524 732 524 671 589 c 128,-1,8
 610 654 610 654 496 654 c 0,9,10
 430 654 430 654 358 646 c 1,11,-1
 396 868 l 1,12,13
 442 864 442 864 522 864 c 0,14,15
 612 864 612 864 684 921 c 128,-1,16
 756 978 756 978 774 1080 c 0,17,18
 788 1166 788 1166 744 1222 c 128,-1,19
 700 1278 700 1278 620 1278 c 0,20,21
 472 1278 472 1278 370 1072 c 1,22,-1
 164 1140 l 1,23,24
 228 1302 228 1302 362 1402 c 128,-1,25
 496 1502 496 1502 670 1502 c 0,26,27
 874 1502 874 1502 977 1390 c 128,-1,28
 1080 1278 1080 1278 1052 1104 c 0,29,30
 1034 996 1034 996 966 908 c 128,-1,31
 898 820 898 820 810 774 c 1,32,33
 898 740 898 740 955 649 c 128,-1,34
 1012 558 1012 558 990 424 c 0,35,36
 954 210 954 210 799 89 c 128,-1,37
 644 -32 644 -32 418 -32 c 0,38,39
 234 -32 234 -32 123 68 c 128,-1,40
 12 168 12 168 -2 310 c 1,0,-1
EndSplineSet
Substitution2: "'subs' Subscript lookup 6 subtable" uni2083
Substitution2: "'sups' Superscript lookup 5 subtable" threesuperior
Substitution2: "'sinf' Scientific Inferiors lookup 4 subtable" uni2083
AlternateSubs2: "'aalt' Access All Alternates lookup 1 subtable" uni2083 threesuperior
EndChar

StartChar: four
Encoding: 52 52 23
Width: 1100
GlyphClass: 2
Flags: W
LayerCount: 2
Fore
SplineSet
20 516 m 1,0,-1
 804 1470 l 1,1,-1
 1032 1470 l 1,2,-1
 874 520 l 1,3,-1
 1040 520 l 1,4,-1
 1004 298 l 1,5,-1
 838 298 l 1,6,-1
 786 0 l 1,7,-1
 522 0 l 1,8,-1
 572 298 l 1,9,-1
 -16 298 l 1,10,-1
 20 516 l 1,0,-1
270 520 m 1,11,-1
 610 520 l 1,12,-1
 670 880 l 2,13,14
 684 968 684 968 706 1062 c 1,15,-1
 698 1062 l 1,16,17
 606 933 606 933 582 904 c 2,18,-1
 270 520 l 1,11,-1
EndSplineSet
Substitution2: "'subs' Subscript lookup 6 subtable" uni2084
Substitution2: "'sups' Superscript lookup 5 subtable" uni2074
Substitution2: "'sinf' Scientific Inferiors lookup 4 subtable" uni2084
AlternateSubs2: "'aalt' Access All Alternates lookup 1 subtable" uni2084 uni2074
EndChar

StartChar: five
Encoding: 53 53 24
Width: 1100
GlyphClass: 2
Flags: W
LayerCount: 2
Fore
SplineSet
8 284 m 1,0,-1
 240 366 l 1,1,2
 256 290 256 290 308 240 c 128,-1,3
 360 190 360 190 432 190 c 0,4,5
 536 190 536 190 611 264 c 128,-1,6
 686 338 686 338 708 462 c 0,7,8
 728 580 728 580 675 659 c 128,-1,9
 622 738 622 738 520 738 c 0,10,11
 394 738 394 738 276 600 c 1,12,-1
 118 666 l 1,13,-1
 330 1470 l 1,14,-1
 1072 1470 l 1,15,-1
 1036 1246 l 1,16,-1
 536 1246 l 1,17,-1
 438 898 l 1,18,19
 530 958 530 958 648 958 c 0,20,21
 832 958 832 958 926 826 c 128,-1,22
 1020 694 1020 694 984 470 c 0,23,24
 968 374 968 374 925 288 c 128,-1,25
 882 202 882 202 813 128 c 128,-1,26
 744 54 744 54 639 11 c 128,-1,27
 534 -32 534 -32 406 -32 c 0,28,29
 236 -32 236 -32 138 54 c 128,-1,30
 40 140 40 140 8 284 c 1,0,-1
EndSplineSet
EndChar

StartChar: six
Encoding: 54 54 25
Width: 1100
GlyphClass: 2
Flags: W
LayerCount: 2
Fore
SplineSet
322 472 m 0,0,1
 300 338 300 338 345 264 c 128,-1,2
 390 190 390 190 482 190 c 0,3,4
 572 190 572 190 639 263 c 128,-1,5
 706 336 706 336 728 472 c 256,6,7
 750 608 750 608 708 681 c 128,-1,8
 666 754 666 754 572 754 c 256,9,10
 480 754 480 754 412 677 c 128,-1,11
 344 600 344 600 322 472 c 0,0,1
80 672 m 0,12,13
 118 904 118 904 200 1086 c 128,-1,14
 282 1268 282 1268 423 1385 c 128,-1,15
 564 1502 564 1502 742 1502 c 0,16,17
 1036 1502 1036 1502 1112 1186 c 1,18,-1
 892 1114 l 1,19,20
 838 1278 838 1278 704 1278 c 0,21,22
 546 1278 546 1278 436 1018 c 0,23,24
 396 924 396 924 380 854 c 1,25,26
 484 976 484 976 646 976 c 0,27,28
 840 976 840 976 938 834 c 128,-1,29
 1036 692 1036 692 1000 472 c 0,30,31
 964 250 964 250 817 109 c 128,-1,32
 670 -32 670 -32 452 -32 c 0,33,34
 222 -32 222 -32 130 124 c 0,35,36
 18 302 18 302 80 672 c 0,12,13
EndSplineSet
EndChar

StartChar: seven
Encoding: 55 55 26
Width: 1100
GlyphClass: 2
Flags: W
LayerCount: 2
Fore
SplineSet
182 1240 m 1,0,-1
 220 1470 l 1,1,-1
 1144 1470 l 1,2,-1
 1114 1286 l 1,3,4
 694 756 694 756 400 0 c 5,5,-1
 124 0 l 5,6,7
 338 620 338 620 794 1240 c 1,8,-1
 182 1240 l 1,0,-1
EndSplineSet
EndChar

StartChar: eight
Encoding: 56 56 27
Width: 1100
GlyphClass: 2
Flags: W
LayerCount: 2
Fore
SplineSet
452 1080 m 0,0,1
 438 990 438 990 475 934 c 128,-1,2
 512 878 512 878 584 878 c 0,3,4
 660 878 660 878 716 935 c 128,-1,5
 772 992 772 992 786 1080 c 0,6,7
 800 1164 800 1164 765 1221 c 128,-1,8
 730 1278 730 1278 650 1278 c 256,9,10
 572 1278 572 1278 519 1221 c 128,-1,11
 466 1164 466 1164 452 1080 c 0,0,1
20 408 m 0,12,13
 44 552 44 552 134 641 c 128,-1,14
 224 730 224 730 324 772 c 1,15,16
 142 886 142 886 178 1092 c 0,17,18
 208 1270 208 1270 354 1386 c 128,-1,19
 500 1502 500 1502 688 1502 c 0,20,21
 880 1502 880 1502 987 1386 c 128,-1,22
 1094 1270 1094 1270 1066 1092 c 0,23,24
 1032 888 1032 888 812 772 c 1,25,26
 906 726 906 726 963 636 c 128,-1,27
 1020 546 1020 546 996 408 c 0,28,29
 964 210 964 210 808 89 c 128,-1,30
 652 -32 652 -32 434 -32 c 0,31,32
 232 -32 232 -32 109 83 c 128,-1,33
 -14 198 -14 198 20 408 c 0,12,13
300 422 m 0,34,35
 284 322 284 322 330 256 c 128,-1,36
 376 190 376 190 470 190 c 256,37,38
 564 190 564 190 635 257 c 128,-1,39
 706 324 706 324 722 422 c 0,40,41
 738 516 738 516 691 587 c 128,-1,42
 644 658 644 658 548 658 c 0,43,44
 454 658 454 658 385 588 c 128,-1,45
 316 518 316 518 300 422 c 0,34,35
EndSplineSet
EndChar

StartChar: nine
Encoding: 57 57 28
Width: 1100
GlyphClass: 2
Flags: W
LayerCount: 2
Fore
SplineSet
394 1002 m 0,0,1
 372 874 372 874 415 799 c 128,-1,2
 458 724 458 724 546 724 c 0,3,4
 636 724 636 724 704 802 c 128,-1,5
 772 880 772 880 792 1004 c 0,6,7
 812 1122 812 1122 772 1200 c 128,-1,8
 732 1278 732 1278 638 1278 c 0,9,10
 548 1278 548 1278 481 1200 c 128,-1,11
 414 1122 414 1122 394 1002 c 0,0,1
0 282 m 1,12,-1
 228 352 l 1,13,14
 282 190 282 190 412 190 c 0,15,16
 482 190 482 190 540 229 c 128,-1,17
 598 268 598 268 636 335 c 128,-1,18
 674 402 674 402 700 472 c 128,-1,19
 726 542 726 542 740 620 c 1,20,21
 636 504 636 504 472 504 c 0,22,23
 290 504 290 504 189 639 c 128,-1,24
 88 774 88 774 124 1000 c 0,25,26
 162 1224 162 1224 315 1363 c 128,-1,27
 468 1502 468 1502 674 1502 c 0,28,29
 848 1502 848 1502 945 1390 c 128,-1,30
 1042 1278 1042 1278 1054 1092 c 0,31,32
 1062 974 1062 974 1032 802 c 0,33,34
 966 398 966 398 802 183 c 128,-1,35
 638 -32 638 -32 374 -32 c 0,36,37
 222 -32 222 -32 122 63 c 128,-1,38
 22 158 22 158 0 282 c 1,12,-1
EndSplineSet
EndChar

StartChar: colon
Encoding: 58 58 29
Width: 550
GlyphClass: 2
Flags: W
LayerCount: 2
Fore
SplineSet
14 0 m 1,0,-1
 64 306 l 1,1,-1
 392 306 l 1,2,-1
 342 0 l 1,3,-1
 14 0 l 1,0,-1
146 790 m 1,4,-1
 196 1096 l 1,5,-1
 524 1096 l 1,6,-1
 472 790 l 1,7,-1
 146 790 l 1,4,-1
EndSplineSet
EndChar

StartChar: semicolon
Encoding: 59 59 30
Width: 550
GlyphClass: 2
Flags: W
LayerCount: 2
Fore
SplineSet
-136 -304 m 1,0,-1
 146 306 l 1,1,-1
 430 306 l 1,2,-1
 72 -304 l 1,3,-1
 -136 -304 l 1,0,-1
164 790 m 1,4,-1
 216 1096 l 1,5,-1
 544 1096 l 1,6,-1
 494 790 l 1,7,-1
 164 790 l 1,4,-1
EndSplineSet
EndChar

StartChar: less
Encoding: 60 60 31
Width: 1078
GlyphClass: 2
Flags: W
LayerCount: 2
Fore
SplineSet
72 592 m 1,0,-1
 112 832 l 1,1,-1
 1000 1438 l 1,2,-1
 1106 1240 l 1,3,-1
 340 714 l 1,4,-1
 930 184 l 1,5,-1
 760 -12 l 1,6,-1
 72 592 l 1,0,-1
EndSplineSet
EndChar

StartChar: equal
Encoding: 61 61 32
Width: 1078
GlyphClass: 2
Flags: W
LayerCount: 2
Fore
SplineSet
60 402 m 1,0,-1
 98 632 l 1,1,-1
 1002 632 l 1,2,-1
 964 402 l 1,3,-1
 60 402 l 1,0,-1
128 816 m 1,4,-1
 168 1050 l 1,5,-1
 1070 1050 l 1,6,-1
 1032 816 l 1,7,-1
 128 816 l 1,4,-1
EndSplineSet
Substitution2: "'sups' Superscript lookup 5 subtable" uni207C
Substitution2: "'aalt' Access All Alternates lookup 0 subtable" uni207C
EndChar

StartChar: greater
Encoding: 62 62 33
Width: 1078
GlyphClass: 2
Flags: W
LayerCount: 2
Fore
SplineSet
126 -12 m 1,0,-1
 22 184 l 1,1,-1
 784 714 l 1,2,-1
 196 1240 l 1,3,-1
 366 1438 l 1,4,-1
 1056 832 l 1,5,-1
 1016 592 l 1,6,-1
 126 -12 l 1,0,-1
EndSplineSet
EndChar

StartChar: question
Encoding: 63 63 34
Width: 1114
GlyphClass: 2
Flags: W
LayerCount: 2
Fore
SplineSet
200 1144 m 1,0,1
 266 1298 266 1298 405 1405 c 128,-1,2
 544 1512 544 1512 724 1512 c 0,3,4
 920 1512 920 1512 1024 1396 c 128,-1,5
 1128 1280 1128 1280 1096 1090 c 0,6,7
 1082 1002 1082 1002 1037 932 c 128,-1,8
 992 862 992 862 936 815 c 128,-1,9
 880 768 880 768 825 724 c 128,-1,10
 770 680 770 680 727 619 c 128,-1,11
 684 558 684 558 672 484 c 2,12,-1
 660 416 l 1,13,-1
 392 416 l 1,14,-1
 406 504 l 2,15,16
 420 594 420 594 465 668 c 128,-1,17
 510 742 510 742 565 790 c 128,-1,18
 620 838 620 838 674 882 c 128,-1,19
 728 926 728 926 769 982 c 128,-1,20
 810 1038 810 1038 822 1102 c 0,21,22
 836 1184 836 1184 799 1233 c 128,-1,23
 762 1282 762 1282 690 1282 c 0,24,25
 540 1282 540 1282 424 1064 c 1,26,-1
 200 1144 l 1,0,1
292 -6 m 1,27,-1
 342 294 l 1,28,-1
 670 294 l 1,29,-1
 620 -6 l 1,30,-1
 292 -6 l 1,27,-1
EndSplineSet
EndChar

StartChar: at
Encoding: 64 64 35
Width: 1810
GlyphClass: 2
Flags: W
LayerCount: 2
Fore
SplineSet
104 692 m 0,0,1
 166 1064 166 1064 446 1304 c 128,-1,2
 726 1544 726 1544 1104 1544 c 0,3,4
 1448 1544 1448 1544 1635 1331 c 128,-1,5
 1822 1118 1822 1118 1768 796 c 0,6,7
 1748 672 1748 672 1703 572 c 128,-1,8
 1658 472 1658 472 1604 409 c 128,-1,9
 1550 346 1550 346 1485 304 c 128,-1,10
 1420 262 1420 262 1360 244 c 128,-1,11
 1300 226 1300 226 1240 226 c 0,12,13
 1162 226 1162 226 1110 270 c 128,-1,14
 1058 314 1058 314 1052 382 c 1,15,-1
 1050 382 l 1,16,17
 1014 324 1014 324 936 276 c 128,-1,18
 858 228 858 228 772 228 c 0,19,20
 628 228 628 228 550 339 c 128,-1,21
 472 450 472 450 502 630 c 0,22,23
 542 872 542 872 684 1009 c 128,-1,24
 826 1146 826 1146 994 1146 c 0,25,26
 1056 1146 1056 1146 1101 1118 c 128,-1,27
 1146 1090 1146 1090 1166 1060 c 1,28,-1
 1184 1134 l 1,29,-1
 1378 1134 l 1,30,-1
 1248 538 l 2,31,32
 1246 528 1246 528 1246 520 c 0,33,34
 1230 424 1230 424 1288 424 c 0,35,36
 1360 424 1360 424 1437 521 c 128,-1,37
 1514 618 1514 618 1540 784 c 0,38,39
 1582 1036 1582 1036 1455 1195 c 128,-1,40
 1328 1354 1328 1354 1072 1354 c 0,41,42
 794 1354 794 1354 586 1165 c 128,-1,43
 378 976 378 976 332 692 c 0,44,45
 282 386 282 386 423 209 c 128,-1,46
 564 32 564 32 836 32 c 0,47,48
 1036 32 1036 32 1244 90 c 1,49,-1
 1252 -90 l 1,50,51
 1052 -158 1052 -158 804 -158 c 0,52,53
 418 -158 418 -158 230 77 c 128,-1,54
 42 312 42 312 104 692 c 0,0,1
742 634 m 0,55,56
 730 556 730 556 756 497 c 128,-1,57
 782 438 782 438 842 438 c 0,58,59
 910 438 910 438 981 521 c 128,-1,60
 1052 604 1052 604 1084 796 c 0,61,62
 1096 868 1096 868 1071 910 c 128,-1,63
 1046 952 1046 952 984 952 c 0,64,65
 912 952 912 952 839 863 c 128,-1,66
 766 774 766 774 742 634 c 0,55,56
EndSplineSet
EndChar

StartChar: A
Encoding: 65 65 36
Width: 1302
GlyphClass: 2
Flags: W
LayerCount: 2
Fore
SplineSet
452 564 m 1,0,-1
 848 564 l 1,1,-1
 800 912 l 2,2,3
 784 1032 784 1032 762 1206 c 1,4,-1
 754 1206 l 1,5,6
 730 1154 730 1154 683 1054 c 128,-1,7
 636 954 636 954 618 912 c 2,8,-1
 452 564 l 1,0,-1
-102 0 m 1,9,-1
 658 1470 l 1,10,-1
 944 1470 l 1,11,-1
 1216 0 l 1,12,-1
 934 0 l 1,13,-1
 882 346 l 1,14,-1
 348 346 l 1,15,-1
 182 0 l 1,16,-1
 -102 0 l 1,9,-1
EndSplineSet
Substitution2: "Single Substitution lookup 12 subtable" ordfeminine
EndChar

StartChar: B
Encoding: 66 66 37
Width: 1278
GlyphClass: 2
Flags: W
LayerCount: 2
Fore
SplineSet
46 0 m 1,0,-1
 290 1470 l 1,1,-1
 840 1470 l 2,2,3
 1078 1470 1078 1470 1176 1366 c 128,-1,4
 1274 1262 1274 1262 1244 1080 c 0,5,6
 1226 976 1226 976 1168 899 c 128,-1,7
 1110 822 1110 822 1026 780 c 1,8,9
 1106 746 1106 746 1158 656 c 128,-1,10
 1210 566 1210 566 1188 432 c 0,11,12
 1156 244 1156 244 1018 122 c 128,-1,13
 880 0 880 0 668 0 c 2,14,-1
 46 0 l 1,0,-1
352 232 m 1,15,-1
 664 232 l 2,16,17
 750 232 750 232 823 284 c 128,-1,18
 896 336 896 336 912 432 c 0,19,20
 928 524 928 524 880 582 c 128,-1,21
 832 640 832 640 726 640 c 2,22,-1
 418 640 l 1,23,-1
 352 232 l 1,15,-1
458 872 m 1,24,-1
 720 872 l 2,25,26
 816 872 816 872 882 917 c 128,-1,27
 948 962 948 962 964 1058 c 0,28,29
 994 1236 994 1236 786 1236 c 2,30,-1
 518 1236 l 1,31,-1
 458 872 l 1,24,-1
EndSplineSet
EndChar

StartChar: C
Encoding: 67 67 38
Width: 1296
GlyphClass: 2
Flags: W
LayerCount: 2
Fore
SplineSet
94 736 m 0,0,1
 152 1088 152 1088 365 1295 c 128,-1,2
 578 1502 578 1502 866 1502 c 0,3,4
 1054 1502 1054 1502 1171 1398 c 128,-1,5
 1288 1294 1288 1294 1326 1138 c 1,6,-1
 1084 1060 l 1,7,8
 1004 1270 1004 1270 822 1270 c 0,9,10
 656 1270 656 1270 532 1124 c 128,-1,11
 408 978 408 978 368 736 c 0,12,13
 328 490 328 490 403 345 c 128,-1,14
 478 200 478 200 646 200 c 0,15,16
 756 200 756 200 853 270 c 128,-1,17
 950 340 950 340 1004 440 c 1,18,-1
 1234 366 l 1,19,20
 1194 296 1194 296 1142 232 c 128,-1,21
 1090 168 1090 168 1012 105 c 128,-1,22
 934 42 934 42 831 5 c 128,-1,23
 728 -32 728 -32 612 -32 c 0,24,25
 332 -32 332 -32 183 172 c 128,-1,26
 34 376 34 376 94 736 c 0,0,1
EndSplineSet
EndChar

StartChar: D
Encoding: 68 68 39
Width: 1324
GlyphClass: 2
Flags: W
LayerCount: 2
Fore
SplineSet
46 0 m 1,0,-1
 290 1470 l 1,1,-1
 726 1470 l 2,2,3
 1058 1470 1058 1470 1203 1280 c 128,-1,4
 1348 1090 1348 1090 1290 736 c 0,5,6
 1270 620 1270 620 1233 517 c 128,-1,7
 1196 414 1196 414 1131 317 c 128,-1,8
 1066 220 1066 220 979 152 c 128,-1,9
 892 84 892 84 765 42 c 128,-1,10
 638 0 638 0 484 0 c 2,11,-1
 46 0 l 1,0,-1
350 230 m 1,12,-1
 494 230 l 2,13,14
 708 230 708 230 839 351 c 128,-1,15
 970 472 970 472 1012 736 c 0,16,17
 1058 1008 1058 1008 963 1124 c 128,-1,18
 868 1240 868 1240 664 1240 c 2,19,-1
 518 1240 l 1,20,-1
 350 230 l 1,12,-1
EndSplineSet
EndChar

StartChar: E
Encoding: 69 69 40
Width: 1166
GlyphClass: 2
Flags: W
LayerCount: 2
Fore
SplineSet
46 0 m 1,0,-1
 290 1470 l 1,1,-1
 1248 1470 l 1,2,-1
 1210 1236 l 1,3,-1
 518 1236 l 1,4,-1
 458 874 l 1,5,-1
 1080 874 l 1,6,-1
 1042 644 l 1,7,-1
 420 644 l 1,8,-1
 352 232 l 1,9,-1
 1060 232 l 1,10,-1
 1022 0 l 1,11,-1
 46 0 l 1,0,-1
EndSplineSet
EndChar

StartChar: F
Encoding: 70 70 41
Width: 1092
GlyphClass: 2
Flags: W
LayerCount: 2
Fore
SplineSet
46 0 m 1,0,-1
 290 1470 l 1,1,-1
 1218 1470 l 1,2,-1
 1180 1236 l 1,3,-1
 518 1236 l 1,4,-1
 454 850 l 1,5,-1
 1050 850 l 1,6,-1
 1012 620 l 1,7,-1
 416 620 l 1,8,-1
 312 0 l 1,9,-1
 46 0 l 1,0,-1
EndSplineSet
EndChar

StartChar: G
Encoding: 71 71 42
Width: 1376
GlyphClass: 2
Flags: W
LayerCount: 2
Fore
SplineSet
94 736 m 0,0,1
 150 1072 150 1072 363 1287 c 128,-1,2
 576 1502 576 1502 876 1502 c 0,3,4
 968 1502 968 1502 1046 1475 c 128,-1,5
 1124 1448 1124 1448 1175 1409 c 128,-1,6
 1226 1370 1226 1370 1264 1318 c 128,-1,7
 1302 1266 1302 1266 1321 1224 c 128,-1,8
 1340 1182 1340 1182 1350 1140 c 1,9,-1
 1108 1064 l 1,10,11
 1086 1108 1086 1108 1069 1136 c 128,-1,12
 1052 1164 1052 1164 1021 1199 c 128,-1,13
 990 1234 990 1234 945 1252 c 128,-1,14
 900 1270 900 1270 840 1270 c 0,15,16
 658 1270 658 1270 533 1124 c 128,-1,17
 408 978 408 978 368 736 c 0,18,19
 328 492 328 492 407 346 c 128,-1,20
 486 200 486 200 652 200 c 0,21,22
 792 200 792 200 885 278 c 128,-1,23
 978 356 978 356 1014 482 c 0,24,25
 1036 584 1036 584 1038 598 c 1,26,-1
 702 598 l 1,27,-1
 740 830 l 1,28,-1
 1336 830 l 1,29,-1
 1198 0 l 1,30,-1
 1016 0 l 1,31,-1
 1012 132 l 1,32,33
 864 -32 864 -32 606 -32 c 0,34,35
 332 -32 332 -32 184 176 c 128,-1,36
 36 384 36 384 94 736 c 0,0,1
EndSplineSet
EndChar

StartChar: H
Encoding: 72 72 43
Width: 1350
GlyphClass: 2
Flags: W
LayerCount: 2
Fore
SplineSet
46 0 m 1,0,-1
 290 1470 l 1,1,-1
 554 1470 l 1,2,-1
 456 872 l 1,3,-1
 996 872 l 1,4,-1
 1096 1470 l 1,5,-1
 1362 1470 l 1,6,-1
 1118 0 l 1,7,-1
 852 0 l 1,8,-1
 958 640 l 1,9,-1
 416 640 l 1,10,-1
 310 0 l 1,11,-1
 46 0 l 1,0,-1
EndSplineSet
EndChar

StartChar: I
Encoding: 73 73 44
Width: 542
GlyphClass: 2
Flags: W
LayerCount: 2
Fore
SplineSet
46 0 m 1,0,-1
 290 1470 l 1,1,-1
 556 1470 l 1,2,-1
 312 0 l 1,3,-1
 46 0 l 1,0,-1
EndSplineSet
EndChar

StartChar: J
Encoding: 74 74 45
Width: 1004
GlyphClass: 2
Flags: W
LayerCount: 2
Fore
SplineSet
-34 284 m 1,0,-1
 200 374 l 1,1,2
 206 304 206 304 247 252 c 128,-1,3
 288 200 288 200 360 200 c 0,4,5
 446 200 446 200 503 267 c 128,-1,6
 560 334 560 334 580 458 c 2,7,-1
 748 1470 l 1,8,-1
 1016 1470 l 1,9,-1
 844 424 l 2,10,11
 808 206 808 206 673 87 c 128,-1,12
 538 -32 538 -32 328 -32 c 0,13,14
 158 -32 158 -32 70 62 c 128,-1,15
 -18 156 -18 156 -34 284 c 1,0,-1
EndSplineSet
EndChar

StartChar: K
Encoding: 75 75 46
Width: 1272
GlyphClass: 2
Flags: W
LayerCount: 2
Fore
SplineSet
46 0 m 1,0,-1
 290 1470 l 1,1,-1
 556 1470 l 1,2,-1
 452 840 l 1,3,-1
 456 840 l 1,4,-1
 1092 1470 l 1,5,-1
 1424 1470 l 1,6,-1
 760 826 l 1,7,-1
 1190 0 l 1,8,-1
 872 0 l 1,9,-1
 558 634 l 1,10,-1
 390 470 l 1,11,-1
 312 0 l 1,12,-1
 46 0 l 1,0,-1
EndSplineSet
EndChar

StartChar: L
Encoding: 76 76 47
Width: 1066
GlyphClass: 2
Flags: W
LayerCount: 2
Fore
SplineSet
46 0 m 1,0,-1
 290 1470 l 1,1,-1
 556 1470 l 1,2,-1
 352 232 l 1,3,-1
 992 232 l 1,4,-1
 954 0 l 1,5,-1
 46 0 l 1,0,-1
EndSplineSet
EndChar

StartChar: M
Encoding: 77 77 48
Width: 1638
GlyphClass: 2
Flags: W
LayerCount: 2
Fore
SplineSet
46 0 m 1,0,-1
 290 1470 l 1,1,-1
 612 1470 l 1,2,-1
 736 818 l 2,3,4
 750 746 750 746 770 616 c 128,-1,5
 790 486 790 486 796 440 c 1,6,-1
 802 440 l 1,7,8
 822 476 822 476 885 606 c 128,-1,9
 948 736 948 736 990 818 c 2,10,-1
 1324 1470 l 1,11,-1
 1650 1470 l 1,12,-1
 1406 0 l 1,13,-1
 1144 0 l 1,14,-1
 1246 616 l 2,15,16
 1274 788 1274 788 1350 1074 c 1,17,-1
 1342 1074 l 1,18,-1
 1172 724 l 1,19,-1
 834 76 l 1,20,-1
 642 76 l 1,21,-1
 524 724 l 1,22,-1
 468 1076 l 1,23,-1
 458 1076 l 1,24,25
 444 808 444 808 412 616 c 2,26,-1
 310 0 l 1,27,-1
 46 0 l 1,0,-1
EndSplineSet
EndChar

StartChar: N
Encoding: 78 78 49
Width: 1360
GlyphClass: 2
Flags: W
LayerCount: 2
Fore
SplineSet
46 0 m 1,0,-1
 290 1470 l 1,1,-1
 562 1470 l 1,2,-1
 842 704 l 1,3,-1
 948 408 l 1,4,-1
 958 408 l 1,5,6
 964 620 964 620 1000 834 c 2,7,-1
 1104 1470 l 1,8,-1
 1372 1470 l 1,9,-1
 1128 0 l 1,10,-1
 854 0 l 1,11,-1
 574 746 l 1,12,-1
 466 1056 l 1,13,-1
 458 1056 l 1,14,15
 454 852 454 852 416 628 c 2,16,-1
 312 0 l 1,17,-1
 46 0 l 1,0,-1
EndSplineSet
EndChar

StartChar: O
Encoding: 79 79 50
Width: 1376
GlyphClass: 2
Flags: W
LayerCount: 2
Fore
SplineSet
94 734 m 256,0,1
 152 1080 152 1080 358 1291 c 128,-1,2
 564 1502 564 1502 844 1502 c 0,3,4
 1126 1502 1126 1502 1262 1291 c 128,-1,5
 1398 1080 1398 1080 1342 734 c 256,6,7
 1284 388 1284 388 1078 178 c 128,-1,8
 872 -32 872 -32 590 -32 c 256,9,10
 308 -32 308 -32 172 178 c 128,-1,11
 36 388 36 388 94 734 c 256,0,1
368 734 m 256,12,13
 328 488 328 488 396 344 c 128,-1,14
 464 200 464 200 628 200 c 0,15,16
 790 200 790 200 906 343 c 128,-1,17
 1022 486 1022 486 1064 734 c 0,18,19
 1104 980 1104 980 1037 1125 c 128,-1,20
 970 1270 970 1270 806 1270 c 0,21,22
 644 1270 644 1270 526 1125 c 128,-1,23
 408 980 408 980 368 734 c 256,12,13
EndSplineSet
Substitution2: "Single Substitution lookup 12 subtable" ordmasculine
EndChar

StartChar: P
Encoding: 80 80 51
Width: 1248
GlyphClass: 2
Flags: W
LayerCount: 2
Fore
SplineSet
46 0 m 1,0,-1
 290 1470 l 1,1,-1
 858 1470 l 2,2,3
 1090 1470 1090 1470 1196 1344 c 128,-1,4
 1302 1218 1302 1218 1268 1014 c 0,5,6
 1232 802 1232 802 1081 680 c 128,-1,7
 930 558 930 558 712 558 c 2,8,-1
 406 558 l 1,9,-1
 312 0 l 1,10,-1
 46 0 l 1,0,-1
444 790 m 1,11,-1
 714 790 l 2,12,13
 830 790 830 790 904 848 c 128,-1,14
 978 906 978 906 996 1014 c 256,15,16
 1014 1122 1014 1122 961 1179 c 128,-1,17
 908 1236 908 1236 788 1236 c 2,18,-1
 518 1236 l 1,19,-1
 444 790 l 1,11,-1
EndSplineSet
EndChar

StartChar: Q
Encoding: 81 81 52
Width: 1376
GlyphClass: 2
Flags: W
LayerCount: 2
Fore
SplineSet
94 734 m 256,0,1
 152 1080 152 1080 358 1291 c 128,-1,2
 564 1502 564 1502 844 1502 c 0,3,4
 1126 1502 1126 1502 1262 1291 c 128,-1,5
 1398 1080 1398 1080 1342 734 c 0,6,7
 1288 404 1288 404 1096 198 c 1,8,-1
 1224 32 l 1,9,-1
 1054 -102 l 1,10,-1
 928 60 l 1,11,12
 776 -32 776 -32 590 -32 c 0,13,14
 308 -32 308 -32 172 178 c 128,-1,15
 36 388 36 388 94 734 c 256,0,1
612 468 m 1,16,-1
 782 604 l 1,17,-1
 944 396 l 1,18,19
 1028 528 1028 528 1064 734 c 0,20,21
 1106 982 1106 982 1037 1126 c 128,-1,22
 968 1270 968 1270 806 1270 c 256,23,24
 644 1270 644 1270 526 1125 c 128,-1,25
 408 980 408 980 368 734 c 256,26,27
 328 488 328 488 396 344 c 128,-1,28
 464 200 464 200 628 200 c 0,29,30
 714 200 714 200 788 240 c 1,31,-1
 612 468 l 1,16,-1
EndSplineSet
EndChar

StartChar: R
Encoding: 82 82 53
Width: 1296
GlyphClass: 2
Flags: W
LayerCount: 2
Fore
SplineSet
446 804 m 1,0,-1
 720 804 l 2,1,2
 836 804 836 804 908 860 c 128,-1,3
 980 916 980 916 998 1026 c 0,4,5
 1014 1122 1014 1122 960 1179 c 128,-1,6
 906 1236 906 1236 790 1236 c 2,7,-1
 518 1236 l 1,8,-1
 446 804 l 1,0,-1
46 0 m 1,9,-1
 290 1470 l 1,10,-1
 880 1470 l 2,11,12
 1106 1470 1106 1470 1206 1350 c 128,-1,13
 1306 1230 1306 1230 1276 1048 c 0,14,15
 1250 896 1250 896 1173 804 c 128,-1,16
 1096 712 1096 712 1004 676 c 1,17,18
 1060 628 1060 628 1082 576 c 128,-1,19
 1104 524 1104 524 1102 414 c 0,20,21
 1106 214 1106 214 1194 0 c 1,22,-1
 896 0 l 1,23,24
 830 158 830 158 818 394 c 0,25,26
 814 486 814 486 787 529 c 128,-1,27
 760 572 760 572 684 572 c 2,28,-1
 408 572 l 1,29,-1
 312 0 l 1,30,-1
 46 0 l 1,9,-1
EndSplineSet
EndChar

StartChar: S
Encoding: 83 83 54
Width: 1182
GlyphClass: 2
Flags: W
LayerCount: 2
Fore
SplineSet
-4 326 m 1,0,-1
 244 406 l 1,1,2
 276 316 276 316 363 258 c 128,-1,3
 450 200 450 200 558 200 c 0,4,5
 668 200 668 200 743 254 c 128,-1,6
 818 308 818 308 832 392 c 0,7,8
 848 486 848 486 783 541 c 128,-1,9
 718 596 718 596 586 642 c 0,10,11
 388 714 388 714 324 754 c 0,12,13
 140 870 140 870 176 1092 c 0,14,15
 206 1276 206 1276 368 1389 c 128,-1,16
 530 1502 530 1502 758 1502 c 0,17,18
 948 1502 948 1502 1067 1411 c 128,-1,19
 1186 1320 1186 1320 1226 1178 c 1,20,-1
 990 1102 l 1,21,22
 900 1270 900 1270 718 1270 c 0,23,24
 608 1270 608 1270 537 1220 c 128,-1,25
 466 1170 466 1170 452 1092 c 0,26,27
 448 1066 448 1066 450 1044 c 128,-1,28
 452 1022 452 1022 464 1004 c 128,-1,29
 476 986 476 986 488 970 c 128,-1,30
 500 954 500 954 524 940 c 128,-1,31
 548 926 548 926 565 916 c 128,-1,32
 582 906 582 906 617 892 c 128,-1,33
 652 878 652 878 672 872 c 128,-1,34
 692 866 692 866 733 852 c 128,-1,35
 774 838 774 838 792 830 c 0,36,37
 870 804 870 804 926 773 c 128,-1,38
 982 742 982 742 1035 692 c 128,-1,39
 1088 642 1088 642 1107 569 c 128,-1,40
 1126 496 1126 496 1112 406 c 0,41,42
 1078 198 1078 198 909 83 c 128,-1,43
 740 -32 740 -32 512 -32 c 0,44,45
 314 -32 314 -32 177 64 c 128,-1,46
 40 160 40 160 -4 326 c 1,0,-1
EndSplineSet
EndChar

StartChar: T
Encoding: 84 84 55
Width: 1116
GlyphClass: 2
Flags: W
LayerCount: 2
Fore
SplineSet
128 1236 m 1,0,-1
 168 1470 l 1,1,-1
 1250 1470 l 1,2,-1
 1210 1236 l 1,3,-1
 804 1236 l 1,4,-1
 598 0 l 1,5,-1
 332 0 l 1,6,-1
 536 1236 l 1,7,-1
 128 1236 l 1,0,-1
EndSplineSet
EndChar

StartChar: U
Encoding: 85 85 56
Width: 1342
GlyphClass: 2
Flags: W
LayerCount: 2
Fore
SplineSet
130 556 m 2,0,-1
 282 1470 l 1,1,-1
 550 1470 l 1,2,-1
 400 554 l 2,3,4
 342 200 342 200 610 200 c 0,5,6
 882 200 882 200 942 554 c 2,7,-1
 1094 1470 l 1,8,-1
 1362 1470 l 1,9,-1
 1210 556 l 2,10,11
 1162 270 1162 270 1003 119 c 128,-1,12
 844 -32 844 -32 572 -32 c 0,13,14
 312 -32 312 -32 196 114 c 128,-1,15
 80 260 80 260 130 556 c 2,0,-1
EndSplineSet
EndChar

StartChar: V
Encoding: 86 86 57
Width: 1216
GlyphClass: 2
Flags: W
LayerCount: 2
Fore
SplineSet
152 1470 m 1,0,-1
 442 1470 l 1,1,-1
 528 672 l 1,2,3
 558 294 558 294 558 286 c 1,4,-1
 566 286 l 1,5,6
 720 664 720 664 724 672 c 2,7,-1
 1074 1470 l 1,8,-1
 1364 1470 l 1,9,-1
 660 0 l 1,10,-1
 368 0 l 1,11,-1
 152 1470 l 1,0,-1
EndSplineSet
EndChar

StartChar: W
Encoding: 87 87 58
Width: 1724
GlyphClass: 2
Flags: W
LayerCount: 2
Fore
SplineSet
172 1470 m 1,0,-1
 450 1470 l 1,1,-1
 456 716 l 2,2,3
 458 676 458 676 456 584 c 128,-1,4
 454 492 454 492 454 418 c 128,-1,5
 454 344 454 344 452 292 c 1,6,-1
 460 292 l 1,7,8
 582 646 582 646 606 716 c 2,9,-1
 878 1470 l 1,10,-1
 1146 1470 l 1,11,-1
 1172 716 l 2,12,13
 1174 650 1174 650 1174 486 c 128,-1,14
 1174 322 1174 322 1176 292 c 1,15,-1
 1184 292 l 1,16,17
 1204 350 1204 350 1253 503 c 128,-1,18
 1302 656 1302 656 1322 716 c 2,19,-1
 1574 1470 l 1,20,-1
 1854 1470 l 1,21,-1
 1290 0 l 1,22,-1
 986 0 l 1,23,-1
 966 744 l 2,24,25
 962 1096 962 1096 964 1142 c 1,26,-1
 954 1142 l 1,27,28
 930 1062 930 1062 878 912 c 128,-1,29
 826 762 826 762 820 744 c 2,30,-1
 554 0 l 1,31,-1
 250 0 l 1,32,-1
 172 1470 l 1,0,-1
EndSplineSet
EndChar

StartChar: X
Encoding: 88 88 59
Width: 1232
GlyphClass: 2
Flags: W
LayerCount: 2
Fore
SplineSet
-86 0 m 1,0,-1
 492 754 l 1,1,-1
 180 1470 l 1,2,-1
 490 1470 l 1,3,-1
 604 1162 l 2,4,5
 616 1122 616 1122 641 1054 c 128,-1,6
 666 986 666 986 678 956 c 1,7,-1
 686 956 l 1,8,9
 732 1026 732 1026 828 1162 c 2,10,-1
 1044 1470 l 1,11,-1
 1354 1470 l 1,12,-1
 802 754 l 1,13,-1
 1136 0 l 1,14,-1
 828 0 l 1,15,-1
 698 336 l 2,16,17
 630 514 630 514 618 546 c 1,18,-1
 610 546 l 1,19,20
 466 342 466 342 460 336 c 2,21,-1
 222 0 l 1,22,-1
 -86 0 l 1,0,-1
EndSplineSet
EndChar

StartChar: Y
Encoding: 89 89 60
Width: 1250
GlyphClass: 2
Flags: W
LayerCount: 2
Fore
SplineSet
146 1470 m 1,0,-1
 452 1470 l 1,1,-1
 592 1042 l 2,2,3
 640 892 640 892 664 812 c 1,4,-1
 670 812 l 1,5,6
 772 966 772 966 820 1042 c 2,7,-1
 1104 1470 l 1,8,-1
 1408 1470 l 1,9,-1
 766 596 l 1,10,-1
 666 0 l 1,11,-1
 400 0 l 1,12,-1
 498 596 l 1,13,-1
 146 1470 l 1,0,-1
EndSplineSet
EndChar

StartChar: Z
Encoding: 90 90 61
Width: 1170
GlyphClass: 2
Flags: W
LayerCount: 2
Fore
SplineSet
-12 198 m 1,0,-1
 886 1236 l 1,1,-1
 220 1236 l 1,2,-1
 260 1470 l 1,3,-1
 1256 1470 l 1,4,-1
 1224 1268 l 1,5,-1
 322 232 l 1,6,-1
 1072 232 l 1,7,-1
 1034 0 l 1,8,-1
 -44 0 l 1,9,-1
 -12 198 l 1,0,-1
EndSplineSet
EndChar

StartChar: bracketleft
Encoding: 91 91 62
Width: 838
GlyphClass: 2
Flags: W
LayerCount: 2
Fore
SplineSet
78 -234 m 1,0,-1
 390 1648 l 1,1,-1
 872 1648 l 1,2,-1
 836 1434 l 1,3,-1
 612 1434 l 1,4,-1
 370 -18 l 1,5,-1
 596 -18 l 1,6,-1
 560 -234 l 1,7,-1
 78 -234 l 1,0,-1
EndSplineSet
EndChar

StartChar: backslash
Encoding: 92 92 63
Width: 736
GlyphClass: 2
Flags: W
LayerCount: 2
Fore
SplineSet
136 1566 m 1,0,-1
 404 1566 l 1,1,-1
 660 -104 l 1,2,-1
 392 -104 l 1,3,-1
 136 1566 l 1,0,-1
EndSplineSet
EndChar

StartChar: bracketright
Encoding: 93 93 64
Width: 838
GlyphClass: 2
Flags: W
LayerCount: 2
Fore
SplineSet
48 -18 m 1,0,-1
 274 -18 l 1,1,-1
 514 1434 l 1,2,-1
 288 1434 l 1,3,-1
 324 1648 l 1,4,-1
 808 1648 l 1,5,-1
 496 -234 l 1,6,-1
 12 -234 l 1,7,-1
 48 -18 l 1,0,-1
EndSplineSet
EndChar

StartChar: asciicircum
Encoding: 94 94 65
Width: 1054
GlyphClass: 2
Flags: W
LayerCount: 2
Fore
SplineSet
74 910 m 1,0,-1
 582 1620 l 1,1,-1
 822 1620 l 1,2,-1
 1096 910 l 1,3,-1
 830 910 l 1,4,-1
 710 1278 l 1,5,-1
 670 1412 l 1,6,-1
 666 1412 l 1,7,-1
 578 1274 l 1,8,-1
 336 910 l 1,9,-1
 74 910 l 1,0,-1
EndSplineSet
EndChar

StartChar: underscore
Encoding: 95 95 66
Width: 974
GlyphClass: 2
Flags: W
LayerCount: 2
Fore
SplineSet
-86 -12 m 1,0,-1
 876 -12 l 1,1,-1
 840 -226 l 1,2,-1
 -122 -226 l 1,3,-1
 -86 -12 l 1,0,-1
EndSplineSet
EndChar

StartChar: grave
Encoding: 96 96 67
Width: 686
GlyphClass: 2
Flags: W
LayerCount: 2
Fore
SplineSet
400 1018 m 1,0,-1
 244 1628 l 1,1,-1
 526 1628 l 1,2,-1
 608 1018 l 1,3,-1
 400 1018 l 1,0,-1
EndSplineSet
EndChar

StartChar: a
Encoding: 97 97 68
Width: 1024
GlyphClass: 2
Flags: W
LayerCount: 2
Fore
SplineSet
262 310 m 0,0,1
 254 258 254 258 287 221 c 128,-1,2
 320 184 320 184 384 184 c 0,3,4
 482 184 482 184 563 254 c 128,-1,5
 644 324 644 324 662 436 c 2,6,-1
 676 520 l 1,7,8
 604 502 604 502 494 486 c 0,9,10
 286 452 286 452 262 310 c 0,0,1
6 288 m 0,11,12
 30 436 30 436 153 531 c 128,-1,13
 276 626 276 626 492 660 c 0,14,15
 664 688 664 688 706 702 c 1,16,-1
 716 758 l 2,17,18
 728 830 728 830 686 867 c 128,-1,19
 644 904 644 904 564 904 c 0,20,21
 404 904 404 904 260 766 c 1,22,-1
 136 900 l 1,23,24
 334 1108 334 1108 596 1108 c 0,25,26
 826 1108 826 1108 904 992 c 128,-1,27
 982 876 982 876 946 662 c 2,28,-1
 838 0 l 1,29,-1
 598 0 l 1,30,-1
 618 122 l 1,31,32
 576 58 576 58 493 13 c 128,-1,33
 410 -32 410 -32 312 -32 c 0,34,35
 146 -32 146 -32 64 57 c 128,-1,36
 -18 146 -18 146 6 288 c 0,11,12
EndSplineSet
Substitution2: "Single Substitution lookup 12 subtable" ordfeminine
EndChar

StartChar: b
Encoding: 98 98 69
Width: 1096
GlyphClass: 2
Flags: W
LayerCount: 2
Fore
SplineSet
26 0 m 1,0,-1
 278 1518 l 1,1,-1
 518 1518 l 1,2,-1
 428 978 l 1,3,4
 550 1108 550 1108 698 1108 c 0,5,6
 886 1108 886 1108 984 957 c 128,-1,7
 1082 806 1082 806 1038 538 c 0,8,9
 1014 388 1014 388 954 273 c 128,-1,10
 894 158 894 158 819 94 c 128,-1,11
 744 30 744 30 666 -1 c 128,-1,12
 588 -32 588 -32 514 -32 c 0,13,14
 428 -32 428 -32 366 14 c 128,-1,15
 304 60 304 60 284 122 c 1,16,-1
 262 0 l 1,17,-1
 26 0 l 1,0,-1
356 538 m 0,18,19
 330 376 330 376 372 283 c 128,-1,20
 414 190 414 190 512 190 c 0,21,22
 606 190 606 190 682 279 c 128,-1,23
 758 368 758 368 786 538 c 0,24,25
 812 700 812 700 770 793 c 128,-1,26
 728 886 728 886 628 886 c 0,27,28
 526 886 526 886 454 790 c 128,-1,29
 382 694 382 694 356 538 c 0,18,19
EndSplineSet
EndChar

StartChar: c
Encoding: 99 99 70
Width: 978
GlyphClass: 2
Flags: W
LayerCount: 2
Fore
SplineSet
52 536 m 0,0,1
 96 800 96 800 254 954 c 128,-1,2
 412 1108 412 1108 622 1108 c 0,3,4
 780 1108 780 1108 869 1007 c 128,-1,5
 958 906 958 906 960 778 c 1,6,-1
 742 718 l 1,7,8
 734 786 734 786 695 836 c 128,-1,9
 656 886 656 886 588 886 c 0,10,11
 478 886 478 886 403 786 c 128,-1,12
 328 686 328 686 304 536 c 0,13,14
 276 370 276 370 325 280 c 128,-1,15
 374 190 374 190 472 190 c 0,16,17
 548 190 548 190 613 246 c 128,-1,18
 678 302 678 302 710 372 c 1,19,-1
 908 310 l 1,20,21
 856 176 856 176 722 72 c 128,-1,22
 588 -32 588 -32 432 -32 c 0,23,24
 222 -32 222 -32 116 123 c 128,-1,25
 10 278 10 278 52 536 c 0,0,1
EndSplineSet
EndChar

StartChar: d
Encoding: 100 100 71
Width: 1096
GlyphClass: 2
Flags: W
LayerCount: 2
Fore
SplineSet
52 538 m 0,0,1
 96 806 96 806 243 957 c 128,-1,2
 390 1108 390 1108 582 1108 c 0,3,4
 664 1108 664 1108 720 1069 c 128,-1,5
 776 1030 776 1030 802 976 c 1,6,-1
 892 1518 l 1,7,-1
 1136 1518 l 1,8,-1
 884 0 l 1,9,-1
 648 0 l 1,10,-1
 668 122 l 1,11,12
 624 58 624 58 548 13 c 128,-1,13
 472 -32 472 -32 390 -32 c 256,14,15
 308 -32 308 -32 240 0 c 128,-1,16
 172 32 172 32 118 96 c 128,-1,17
 64 160 64 160 46 274 c 128,-1,18
 28 388 28 388 52 538 c 0,0,1
304 538 m 0,19,20
 276 370 276 370 319 280 c 128,-1,21
 362 190 362 190 462 190 c 0,22,23
 558 190 558 190 632 283 c 128,-1,24
 706 376 706 376 732 538 c 0,25,26
 758 694 758 694 718 790 c 128,-1,27
 678 886 678 886 576 886 c 256,28,29
 474 886 474 886 402 791 c 128,-1,30
 330 696 330 696 304 538 c 0,19,20
EndSplineSet
EndChar

StartChar: e
Encoding: 101 101 72
Width: 1052
GlyphClass: 2
Flags: W
LayerCount: 2
Fore
SplineSet
52 542 m 256,0,1
 96 804 96 804 256 956 c 128,-1,2
 416 1108 416 1108 622 1108 c 0,3,4
 822 1108 822 1108 930 953 c 128,-1,5
 1038 798 1038 798 996 548 c 0,6,7
 984 480 984 480 978 448 c 1,8,-1
 284 448 l 1,9,10
 266 336 266 336 318 256 c 128,-1,11
 370 176 370 176 482 176 c 0,12,13
 562 176 562 176 631 219 c 128,-1,14
 700 262 700 262 744 326 c 1,15,-1
 934 250 l 1,16,17
 866 130 866 130 738 49 c 128,-1,18
 610 -32 610 -32 442 -32 c 0,19,20
 226 -32 226 -32 117 124 c 128,-1,21
 8 280 8 280 52 542 c 256,0,1
316 628 m 1,22,-1
 762 628 l 1,23,24
 780 742 780 742 735 822 c 128,-1,25
 690 902 690 902 588 902 c 0,26,27
 484 902 484 902 410 821 c 128,-1,28
 336 740 336 740 316 628 c 1,22,-1
EndSplineSet
EndChar

StartChar: f
Encoding: 102 102 73
Width: 662
GlyphClass: 2
Flags: W
LayerCount: 2
Fore
SplineSet
88 854 m 1,0,-1
 124 1076 l 1,1,-1
 274 1076 l 1,2,-1
 292 1180 l 2,3,4
 320 1346 320 1346 413 1432 c 128,-1,5
 506 1518 506 1518 652 1518 c 2,6,-1
 822 1518 l 1,7,-1
 784 1294 l 1,8,-1
 650 1294 l 2,9,10
 602 1294 602 1294 575 1263 c 128,-1,11
 548 1232 548 1232 536 1162 c 2,12,-1
 522 1076 l 1,13,-1
 726 1076 l 1,14,-1
 688 854 l 1,15,-1
 486 854 l 1,16,-1
 344 0 l 1,17,-1
 96 0 l 1,18,-1
 238 854 l 1,19,-1
 88 854 l 1,0,-1
EndSplineSet
EndChar

StartChar: g
Encoding: 103 103 74
Width: 1066
GlyphClass: 2
Flags: W
LayerCount: 2
Fore
SplineSet
310 558 m 256,0,1
 284 404 284 404 326 319 c 128,-1,2
 368 234 368 234 460 234 c 256,3,4
 552 234 552 234 621 318 c 128,-1,5
 690 402 690 402 716 560 c 256,6,7
 742 718 742 718 701 802 c 128,-1,8
 660 886 660 886 572 886 c 0,9,10
 476 886 476 886 406 799 c 128,-1,11
 336 712 336 712 310 558 c 256,0,1
60 556 m 0,12,13
 102 808 102 808 247 958 c 128,-1,14
 392 1108 392 1108 576 1108 c 0,15,16
 664 1108 664 1108 715 1064 c 128,-1,17
 766 1020 766 1020 784 968 c 1,18,-1
 802 1076 l 1,19,-1
 1048 1076 l 1,20,-1
 894 156 l 2,21,22
 844 -150 844 -150 706 -294 c 128,-1,23
 568 -438 568 -438 334 -438 c 0,24,25
 72 -438 72 -438 -36 -226 c 1,26,-1
 146 -106 l 1,27,28
 222 -230 222 -230 372 -230 c 0,29,30
 458 -230 458 -230 529 -161 c 128,-1,31
 600 -92 600 -92 626 18 c 0,32,33
 640 76 640 76 648 132 c 1,34,35
 604 78 604 78 536 44 c 128,-1,36
 468 10 468 10 400 10 c 0,37,38
 206 10 206 10 112 159 c 128,-1,39
 18 308 18 308 60 556 c 0,12,13
EndSplineSet
EndChar

StartChar: h
Encoding: 104 104 75
Width: 1052
GlyphClass: 2
Flags: W
LayerCount: 2
Fore
SplineSet
26 0 m 1,0,-1
 278 1518 l 1,1,-1
 518 1518 l 1,2,-1
 430 986 l 1,3,-1
 436 986 l 1,4,5
 486 1040 486 1040 558 1074 c 128,-1,6
 630 1108 630 1108 706 1108 c 0,7,8
 850 1108 850 1108 932 1009 c 128,-1,9
 1014 910 1014 910 976 690 c 2,10,-1
 862 0 l 1,11,-1
 620 0 l 1,12,-1
 730 662 l 2,13,14
 768 886 768 886 622 886 c 0,15,16
 532 886 532 886 459 805 c 128,-1,17
 386 724 386 724 368 610 c 2,18,-1
 266 0 l 1,19,-1
 26 0 l 1,0,-1
EndSplineSet
Substitution2: "'sups' Superscript lookup 5 subtable" uni02B0
Substitution2: "'aalt' Access All Alternates lookup 0 subtable" uni02B0
EndChar

StartChar: i
Encoding: 105 105 76
Width: 494
GlyphClass: 2
Flags: W
LayerCount: 2
Fore
SplineSet
226 1212 m 1,0,-1
 272 1490 l 1,1,-1
 526 1490 l 1,2,-1
 480 1212 l 1,3,-1
 226 1212 l 1,0,-1
32 0 m 1,4,-1
 210 1076 l 1,5,-1
 452 1076 l 1,6,-1
 274 0 l 1,7,-1
 32 0 l 1,4,-1
EndSplineSet
EndChar

StartChar: j
Encoding: 106 106 77
Width: 512
GlyphClass: 2
Flags: W
LayerCount: 2
Fore
SplineSet
242 1212 m 1,0,-1
 288 1490 l 1,1,-1
 548 1490 l 1,2,-1
 502 1212 l 1,3,-1
 242 1212 l 1,0,-1
-148 -190 m 1,4,-1
 -114 -190 l 2,5,6
 -48 -190 -48 -190 -8 -143 c 128,-1,7
 32 -96 32 -96 48 8 c 2,8,-1
 226 1076 l 1,9,-1
 472 1076 l 1,10,-1
 294 -2 l 2,11,12
 260 -206 260 -206 156 -310 c 128,-1,13
 52 -414 52 -414 -112 -414 c 2,14,-1
 -184 -414 l 1,15,-1
 -148 -190 l 1,4,-1
EndSplineSet
Substitution2: "'sups' Superscript lookup 5 subtable" uni02B2
Substitution2: "'aalt' Access All Alternates lookup 0 subtable" uni02B2
EndChar

StartChar: k
Encoding: 107 107 78
Width: 1004
GlyphClass: 2
Flags: W
LayerCount: 2
Fore
SplineSet
26 0 m 1,0,-1
 278 1518 l 1,1,-1
 520 1518 l 1,2,-1
 382 682 l 1,3,-1
 784 1076 l 1,4,-1
 1094 1076 l 1,5,-1
 640 636 l 1,6,-1
 936 0 l 1,7,-1
 646 0 l 1,8,-1
 450 452 l 1,9,-1
 324 330 l 1,10,-1
 268 0 l 1,11,-1
 26 0 l 1,0,-1
EndSplineSet
EndChar

StartChar: l
Encoding: 108 108 79
Width: 494
GlyphClass: 2
Flags: W
LayerCount: 2
Fore
SplineSet
32 0 m 1,0,-1
 282 1518 l 1,1,-1
 530 1518 l 1,2,-1
 278 0 l 1,3,-1
 32 0 l 1,0,-1
EndSplineSet
Substitution2: "'sups' Superscript lookup 5 subtable" uni02E1
Substitution2: "'aalt' Access All Alternates lookup 0 subtable" uni02E1
EndChar

StartChar: m
Encoding: 109 109 80
Width: 1554
GlyphClass: 2
Flags: W
LayerCount: 2
Fore
SplineSet
16 0 m 1,0,-1
 194 1076 l 1,1,-1
 430 1076 l 1,2,-1
 412 962 l 1,3,4
 448 1012 448 1012 522 1060 c 128,-1,5
 596 1108 596 1108 690 1108 c 0,6,7
 852 1108 852 1108 902 934 c 1,8,9
 926 968 926 968 960 1002 c 128,-1,10
 994 1036 994 1036 1070 1072 c 128,-1,11
 1146 1108 1146 1108 1232 1108 c 0,12,13
 1550 1108 1550 1108 1480 690 c 2,14,-1
 1366 0 l 1,15,-1
 1120 0 l 1,16,-1
 1232 684 l 2,17,18
 1248 786 1248 786 1229 836 c 128,-1,19
 1210 886 1210 886 1142 886 c 0,20,21
 1058 886 1058 886 995 812 c 128,-1,22
 932 738 932 738 914 634 c 2,23,-1
 810 0 l 1,24,-1
 568 0 l 1,25,-1
 682 692 l 2,26,27
 714 886 714 886 592 886 c 0,28,29
 500 886 500 886 443 817 c 128,-1,30
 386 748 386 748 366 636 c 2,31,-1
 262 0 l 1,32,-1
 16 0 l 1,0,-1
EndSplineSet
EndChar

StartChar: n
Encoding: 110 110 81
Width: 1046
GlyphClass: 2
Flags: W
LayerCount: 2
Fore
SplineSet
16 0 m 1,0,-1
 194 1076 l 1,1,-1
 430 1076 l 1,2,-1
 410 956 l 1,3,4
 446 1012 446 1012 522 1060 c 128,-1,5
 598 1108 598 1108 708 1108 c 0,6,7
 1040 1108 1040 1108 972 690 c 2,8,-1
 858 0 l 1,9,-1
 612 0 l 1,10,-1
 722 660 l 2,11,12
 742 784 742 784 715 835 c 128,-1,13
 688 886 688 886 616 886 c 0,14,15
 526 886 526 886 454 809 c 128,-1,16
 382 732 382 732 364 618 c 2,17,-1
 262 0 l 1,18,-1
 16 0 l 1,0,-1
EndSplineSet
Substitution2: "'sups' Superscript lookup 5 subtable" uni207F
Substitution2: "'aalt' Access All Alternates lookup 0 subtable" uni207F
EndChar

StartChar: o
Encoding: 111 111 82
Width: 1054
GlyphClass: 2
Flags: W
LayerCount: 2
Fore
SplineSet
304 536 m 0,0,1
 274 354 274 354 327 272 c 128,-1,2
 380 190 380 190 466 190 c 256,3,4
 552 190 552 190 634 273 c 128,-1,5
 716 356 716 356 746 536 c 0,6,7
 776 720 776 720 722 803 c 128,-1,8
 668 886 668 886 582 886 c 256,9,10
 496 886 496 886 415 804 c 128,-1,11
 334 722 334 722 304 536 c 0,0,1
52 536 m 0,12,13
 92 776 92 776 238 942 c 128,-1,14
 384 1108 384 1108 618 1108 c 0,15,16
 776 1108 776 1108 873 1024 c 128,-1,17
 970 940 970 940 996 815 c 128,-1,18
 1022 690 1022 690 996 536 c 0,19,20
 984 464 984 464 961 392 c 128,-1,21
 938 320 938 320 891 241 c 128,-1,22
 844 162 844 162 783 103 c 128,-1,23
 722 44 722 44 631 6 c 128,-1,24
 540 -32 540 -32 430 -32 c 0,25,26
 324 -32 324 -32 245 4 c 128,-1,27
 166 40 166 40 123 98 c 128,-1,28
 80 156 80 156 60 233 c 128,-1,29
 40 310 40 310 40 384 c 128,-1,30
 40 458 40 458 52 536 c 0,12,13
EndSplineSet
Substitution2: "Single Substitution lookup 12 subtable" ordmasculine
EndChar

StartChar: p
Encoding: 112 112 83
Width: 1096
GlyphClass: 2
Flags: W
LayerCount: 2
Fore
SplineSet
356 538 m 0,0,1
 330 378 330 378 370 284 c 128,-1,2
 410 190 410 190 512 190 c 0,3,4
 608 190 608 190 683 280 c 128,-1,5
 758 370 758 370 786 538 c 0,6,7
 812 700 812 700 770 793 c 128,-1,8
 728 886 728 886 628 886 c 0,9,10
 526 886 526 886 454 790 c 128,-1,11
 382 694 382 694 356 538 c 0,0,1
-46 -430 m 1,12,-1
 204 1076 l 1,13,-1
 440 1076 l 1,14,-1
 420 954 l 1,15,16
 540 1108 540 1108 698 1108 c 0,17,18
 886 1108 886 1108 983 955 c 128,-1,19
 1080 802 1080 802 1038 538 c 0,20,21
 1014 388 1014 388 955 274 c 128,-1,22
 896 160 896 160 820 96 c 128,-1,23
 744 32 744 32 665 0 c 128,-1,24
 586 -32 586 -32 510 -32 c 0,25,26
 418 -32 418 -32 363 10 c 128,-1,27
 308 52 308 52 286 108 c 1,28,-1
 198 -430 l 1,29,-1
 -46 -430 l 1,12,-1
EndSplineSet
EndChar

StartChar: q
Encoding: 113 113 84
Width: 1094
GlyphClass: 2
Flags: W
LayerCount: 2
Fore
SplineSet
304 538 m 0,0,1
 276 372 276 372 319 281 c 128,-1,2
 362 190 362 190 460 190 c 256,3,4
 558 190 558 190 632 283 c 128,-1,5
 706 376 706 376 732 538 c 0,6,7
 758 694 758 694 718 790 c 128,-1,8
 678 886 678 886 576 886 c 256,9,10
 474 886 474 886 402 791 c 128,-1,11
 330 696 330 696 304 538 c 0,0,1
52 538 m 0,12,13
 96 802 96 802 244 955 c 128,-1,14
 392 1108 392 1108 578 1108 c 0,15,16
 736 1108 736 1108 808 954 c 1,17,-1
 828 1076 l 1,18,-1
 1062 1076 l 1,19,-1
 814 -430 l 1,20,-1
 568 -430 l 1,21,-1
 658 110 l 1,22,23
 614 52 614 52 545 10 c 128,-1,24
 476 -32 476 -32 388 -32 c 0,25,26
 310 -32 310 -32 244 0 c 128,-1,27
 178 32 178 32 123 95 c 128,-1,28
 68 158 68 158 48 273 c 128,-1,29
 28 388 28 388 52 538 c 0,12,13
EndSplineSet
EndChar

StartChar: r
Encoding: 114 114 85
Width: 706
GlyphClass: 2
Flags: W
LayerCount: 2
Fore
SplineSet
16 0 m 1,0,-1
 194 1076 l 1,1,-1
 428 1076 l 1,2,-1
 412 974 l 1,3,4
 454 1028 454 1028 522 1068 c 128,-1,5
 590 1108 590 1108 672 1108 c 0,6,7
 752 1108 752 1108 796 1088 c 1,8,-1
 758 850 l 1,9,10
 700 870 700 870 632 870 c 0,11,12
 522 870 522 870 449 778 c 128,-1,13
 376 686 376 686 350 534 c 2,14,-1
 262 0 l 1,15,-1
 16 0 l 1,0,-1
EndSplineSet
Substitution2: "'sups' Superscript lookup 5 subtable" uni02B3
Substitution2: "'aalt' Access All Alternates lookup 0 subtable" uni02B3
EndChar

StartChar: s
Encoding: 115 115 86
Width: 936
GlyphClass: 2
Flags: W
LayerCount: 2
Fore
SplineSet
-18 228 m 1,0,-1
 174 338 l 1,1,2
 252 178 252 178 416 178 c 0,3,4
 490 178 490 178 538 210 c 128,-1,5
 586 242 586 242 594 292 c 0,6,7
 596 308 596 308 594 322 c 128,-1,8
 592 336 592 336 584 349 c 128,-1,9
 576 362 576 362 569 371 c 128,-1,10
 562 380 562 380 544 391 c 128,-1,11
 526 402 526 402 514 408 c 128,-1,12
 502 414 502 414 478 424 c 128,-1,13
 454 434 454 434 441 439 c 128,-1,14
 428 444 428 444 399 454 c 128,-1,15
 370 464 370 464 356 470 c 0,16,17
 232 514 232 514 165 586 c 128,-1,18
 98 658 98 658 120 792 c 0,19,20
 144 936 144 936 276 1022 c 128,-1,21
 408 1108 408 1108 572 1108 c 0,22,23
 698 1108 698 1108 799 1039 c 128,-1,24
 900 970 900 970 936 858 c 1,25,-1
 758 754 l 1,26,27
 676 898 676 898 538 898 c 0,28,29
 466 898 466 898 422 868 c 128,-1,30
 378 838 378 838 370 788 c 0,31,32
 368 772 368 772 370 758 c 128,-1,33
 372 744 372 744 380 731 c 128,-1,34
 388 718 388 718 396 708 c 128,-1,35
 404 698 404 698 420 687 c 128,-1,36
 436 676 436 676 448 669 c 128,-1,37
 460 662 460 662 483 653 c 128,-1,38
 506 644 506 644 519 640 c 128,-1,39
 532 636 532 636 558 626 c 128,-1,40
 584 616 584 616 594 612 c 0,41,42
 880 506 880 506 844 290 c 0,43,44
 822 156 822 156 701 62 c 128,-1,45
 580 -32 580 -32 386 -32 c 0,46,47
 236 -32 236 -32 130 39 c 128,-1,48
 24 110 24 110 -18 228 c 1,0,-1
EndSplineSet
Substitution2: "'hist' Historical Forms lookup 11 subtable" longs
Substitution2: "'sups' Superscript lookup 5 subtable" uni02E2
AlternateSubs2: "'aalt' Access All Alternates lookup 1 subtable" uni02E2 longs
EndChar

StartChar: t
Encoding: 116 116 87
Width: 698
GlyphClass: 2
Flags: W
LayerCount: 2
Fore
SplineSet
76 854 m 1,0,-1
 114 1076 l 1,1,-1
 266 1076 l 1,2,-1
 316 1388 l 1,3,-1
 562 1388 l 1,4,-1
 510 1076 l 1,5,-1
 730 1076 l 1,6,-1
 694 854 l 1,7,-1
 472 854 l 1,8,-1
 390 354 l 2,9,10
 368 222 368 222 476 222 c 2,11,-1
 590 222 l 1,12,-1
 554 0 l 1,13,-1
 410 0 l 2,14,15
 260 0 260 0 187 80 c 128,-1,16
 114 160 114 160 144 338 c 2,17,-1
 228 854 l 1,18,-1
 76 854 l 1,0,-1
EndSplineSet
EndChar

StartChar: u
Encoding: 117 117 88
Width: 1044
GlyphClass: 2
Flags: W
LayerCount: 2
Fore
SplineSet
68 394 m 2,0,-1
 180 1076 l 1,1,-1
 426 1076 l 1,2,-1
 318 424 l 2,3,4
 280 190 280 190 432 190 c 0,5,6
 524 190 524 190 590 275 c 128,-1,7
 656 360 656 360 676 476 c 2,8,-1
 774 1076 l 1,9,-1
 1018 1076 l 1,10,-1
 840 0 l 1,11,-1
 606 0 l 1,12,-1
 624 112 l 1,13,-1
 620 112 l 1,14,15
 582 54 582 54 509 11 c 128,-1,16
 436 -32 436 -32 344 -32 c 0,17,18
 286 -32 286 -32 233 -14 c 128,-1,19
 180 4 180 4 133 47 c 128,-1,20
 86 90 86 90 67 179 c 128,-1,21
 48 268 48 268 68 394 c 2,0,-1
EndSplineSet
EndChar

StartChar: v
Encoding: 118 118 89
Width: 1002
GlyphClass: 2
Flags: W
LayerCount: 2
Fore
SplineSet
98 1076 m 1,0,-1
 368 1076 l 1,1,-1
 418 562 l 2,2,3
 426 462 426 462 442 220 c 1,4,-1
 448 220 l 1,5,6
 522 408 522 408 588 562 c 2,7,-1
 804 1076 l 1,8,-1
 1074 1076 l 1,9,-1
 548 0 l 1,10,-1
 268 0 l 1,11,-1
 98 1076 l 1,0,-1
EndSplineSet
EndChar

StartChar: w
Encoding: 119 119 90
Width: 1418
GlyphClass: 2
Flags: W
LayerCount: 2
Fore
SplineSet
98 1076 m 1,0,-1
 364 1076 l 1,1,-1
 372 574 l 2,2,3
 372 570 372 570 371 451 c 128,-1,4
 370 332 370 332 374 256 c 1,5,-1
 380 256 l 1,6,7
 398 304 398 304 437 418 c 128,-1,8
 476 532 476 532 488 574 c 2,9,-1
 668 1076 l 1,10,-1
 922 1076 l 1,11,-1
 932 572 l 2,12,13
 932 530 932 530 935 420 c 128,-1,14
 938 310 938 310 936 256 c 1,15,-1
 944 256 l 1,16,17
 958 300 958 300 1050 574 c 2,18,-1
 1224 1076 l 1,19,-1
 1490 1076 l 1,20,-1
 1036 0 l 1,21,-1
 766 0 l 1,22,-1
 754 486 l 2,23,24
 754 536 754 536 752 640 c 128,-1,25
 750 744 750 744 750 792 c 1,26,-1
 746 792 l 1,27,28
 726 734 726 734 688 622 c 128,-1,29
 650 510 650 510 642 486 c 2,30,-1
 468 0 l 1,31,-1
 196 0 l 1,32,-1
 98 1076 l 1,0,-1
EndSplineSet
Substitution2: "'sups' Superscript lookup 5 subtable" uni02B7
Substitution2: "'aalt' Access All Alternates lookup 0 subtable" uni02B7
EndChar

StartChar: x
Encoding: 120 120 91
Width: 1038
GlyphClass: 2
Flags: W
LayerCount: 2
Fore
SplineSet
-84 0 m 1,0,-1
 370 550 l 1,1,-1
 112 1076 l 1,2,-1
 412 1076 l 1,3,-1
 496 856 l 2,4,5
 502 836 502 836 518 791 c 128,-1,6
 534 746 534 746 540 726 c 1,7,-1
 546 726 l 1,8,9
 554 736 554 736 587 784 c 128,-1,10
 620 832 620 832 636 856 c 2,11,-1
 790 1076 l 1,12,-1
 1090 1076 l 1,13,-1
 660 550 l 1,14,-1
 932 0 l 1,15,-1
 638 0 l 1,16,-1
 542 240 l 2,17,18
 502 344 502 344 490 380 c 1,19,-1
 484 380 l 1,20,21
 444 320 444 320 384 240 c 2,22,-1
 210 0 l 1,23,-1
 -84 0 l 1,0,-1
EndSplineSet
Substitution2: "'sups' Superscript lookup 5 subtable" uni02E3
Substitution2: "'aalt' Access All Alternates lookup 0 subtable" uni02E3
EndChar

StartChar: y
Encoding: 121 121 92
Width: 1004
GlyphClass: 2
Flags: W
LayerCount: 2
Fore
SplineSet
96 1076 m 1,0,-1
 364 1076 l 1,1,-1
 442 546 l 2,2,3
 444 516 444 516 466 304 c 1,4,-1
 470 304 l 1,5,6
 528 450 528 450 572 546 c 2,7,-1
 810 1076 l 1,8,-1
 1078 1076 l 1,9,-1
 458 -130 l 2,10,11
 372 -296 372 -296 268 -363 c 128,-1,12
 164 -430 164 -430 22 -430 c 2,13,-1
 -50 -430 l 1,14,-1
 -14 -212 l 1,15,-1
 18 -212 l 2,16,17
 100 -212 100 -212 155 -179 c 128,-1,18
 210 -146 210 -146 252 -62 c 2,19,-1
 302 38 l 1,20,-1
 96 1076 l 1,0,-1
EndSplineSet
Substitution2: "'sups' Superscript lookup 5 subtable" uni02B8
Substitution2: "'aalt' Access All Alternates lookup 0 subtable" uni02B8
EndChar

StartChar: z
Encoding: 122 122 93
Width: 930
GlyphClass: 2
Flags: W
LayerCount: 2
Fore
SplineSet
-54 0 m 1,0,-1
 -26 172 l 1,1,-1
 594 854 l 1,2,-1
 128 854 l 1,3,-1
 164 1076 l 1,4,-1
 956 1076 l 1,5,-1
 930 912 l 1,6,-1
 304 222 l 1,7,-1
 836 222 l 1,8,-1
 800 0 l 1,9,-1
 -54 0 l 1,0,-1
EndSplineSet
EndChar

StartChar: braceleft
Encoding: 123 123 94
Width: 846
GlyphClass: 2
Flags: W
LayerCount: 2
Fore
SplineSet
106 606 m 1,0,-1
 140 808 l 1,1,-1
 204 808 l 2,2,3
 292 808 292 808 326 1004 c 2,4,-1
 384 1358 l 2,5,6
 408 1498 408 1498 499 1573 c 128,-1,7
 590 1648 590 1648 720 1648 c 2,8,-1
 886 1648 l 1,9,-1
 852 1434 l 1,10,-1
 732 1434 l 2,11,12
 696 1434 696 1434 671 1405 c 128,-1,13
 646 1376 646 1376 638 1330 c 2,14,-1
 580 976 l 2,15,16
 552 804 552 804 396 706 c 1,17,18
 520 618 520 618 492 444 c 2,19,-1
 432 88 l 2,20,21
 414 -18 414 -18 496 -18 c 2,22,-1
 610 -18 l 1,23,-1
 574 -234 l 1,24,-1
 406 -234 l 2,25,26
 280 -234 280 -234 212 -163 c 128,-1,27
 144 -92 144 -92 168 52 c 2,28,-1
 228 412 l 2,29,30
 242 492 242 492 229 549 c 128,-1,31
 216 606 216 606 172 606 c 2,32,-1
 106 606 l 1,0,-1
EndSplineSet
EndChar

StartChar: bar
Encoding: 124 124 95
Width: 566
GlyphClass: 2
Flags: W
LayerCount: 2
Fore
SplineSet
12 -304 m 1,0,-1
 346 1716 l 1,1,-1
 602 1716 l 1,2,-1
 266 -304 l 1,3,-1
 12 -304 l 1,0,-1
EndSplineSet
EndChar

StartChar: braceright
Encoding: 125 125 96
Width: 846
GlyphClass: 2
Flags: W
LayerCount: 2
Fore
SplineSet
44 -18 m 1,0,-1
 162 -18 l 2,1,2
 240 -18 240 -18 258 86 c 2,3,-1
 318 444 l 2,4,5
 346 610 346 610 496 708 c 1,6,7
 376 802 376 802 406 976 c 2,8,-1
 464 1330 l 2,9,10
 472 1376 472 1376 456 1405 c 128,-1,11
 440 1434 440 1434 404 1434 c 2,12,-1
 286 1434 l 1,13,-1
 320 1648 l 1,14,-1
 488 1648 l 2,15,16
 618 1648 618 1648 684 1573 c 128,-1,17
 750 1498 750 1498 728 1358 c 2,18,-1
 668 1004 l 2,19,20
 636 808 636 808 724 808 c 2,21,-1
 788 808 l 1,22,-1
 754 606 l 1,23,-1
 692 606 l 2,24,25
 660 606 660 606 633 574 c 128,-1,26
 606 542 606 542 592 501 c 128,-1,27
 578 460 578 460 570 412 c 2,28,-1
 512 52 l 2,29,30
 488 -92 488 -92 394 -163 c 128,-1,31
 300 -234 300 -234 176 -234 c 2,32,-1
 10 -234 l 1,33,-1
 44 -18 l 1,0,-1
EndSplineSet
EndChar

StartChar: asciitilde
Encoding: 126 126 97
Width: 1548
GlyphClass: 2
Flags: W
LayerCount: 2
Fore
SplineSet
116 594 m 1,0,1
 308 958 308 958 604 958 c 0,2,3
 684 958 684 958 751 918 c 128,-1,4
 818 878 818 878 854 831 c 128,-1,5
 890 784 890 784 935 744 c 128,-1,6
 980 704 980 704 1026 704 c 256,7,8
 1072 704 1072 704 1109 722 c 128,-1,9
 1146 740 1146 740 1178 779 c 128,-1,10
 1210 818 1210 818 1228 845 c 128,-1,11
 1246 872 1246 872 1270 918 c 1,12,-1
 1480 820 l 1,13,14
 1294 456 1294 456 992 456 c 0,15,16
 914 456 914 456 847 496 c 128,-1,17
 780 536 780 536 744 585 c 128,-1,18
 708 634 708 634 660 674 c 128,-1,19
 612 714 612 714 566 714 c 0,20,21
 438 714 438 714 324 498 c 1,22,-1
 116 594 l 1,0,1
EndSplineSet
EndChar

StartChar: exclamdown
Encoding: 161 161 99
Width: 586
GlyphClass: 2
Flags: W
LayerCount: 2
Fore
SplineSet
-8 -400 m 1,0,-1
 186 660 l 1,1,-1
 434 660 l 1,2,-1
 274 -400 l 1,3,-1
 -8 -400 l 1,0,-1
166 786 m 1,4,-1
 214 1084 l 1,5,-1
 544 1084 l 1,6,-1
 494 786 l 1,7,-1
 166 786 l 1,4,-1
EndSplineSet
EndChar

StartChar: cent
Encoding: 162 162 100
Width: 1010
GlyphClass: 2
Flags: W
LayerCount: 2
Fore
SplineSet
52 538 m 0,0,1
 86 746 86 746 206 898 c 128,-1,2
 326 1050 326 1050 506 1092 c 1,3,-1
 532 1248 l 1,4,-1
 764 1248 l 1,5,-1
 740 1096 l 1,6,7
 854 1066 854 1066 918 975 c 128,-1,8
 982 884 982 884 990 778 c 1,9,-1
 766 718 l 1,10,11
 754 788 754 788 716 837 c 128,-1,12
 678 886 678 886 608 886 c 0,13,14
 492 886 492 886 415 787 c 128,-1,15
 338 688 338 688 314 538 c 0,16,17
 288 380 288 380 335 285 c 128,-1,18
 382 190 382 190 490 190 c 0,19,20
 568 190 568 190 632 243 c 128,-1,21
 696 296 696 296 732 372 c 1,22,-1
 936 310 l 1,23,24
 892 202 892 202 793 109 c 128,-1,25
 694 16 694 16 554 -20 c 1,26,-1
 528 -184 l 1,27,-1
 294 -184 l 1,28,-1
 322 -16 l 1,29,30
 170 20 170 20 93 168 c 128,-1,31
 16 316 16 316 52 538 c 0,0,1
EndSplineSet
EndChar

StartChar: sterling
Encoding: 163 163 101
Width: 1184
GlyphClass: 2
Flags: W
LayerCount: 2
Fore
SplineSet
76 606 m 1,0,-1
 114 838 l 1,1,-1
 320 838 l 1,2,-1
 366 1116 l 2,3,4
 398 1304 398 1304 538 1403 c 128,-1,5
 678 1502 678 1502 886 1502 c 0,6,7
 1024 1502 1024 1502 1115 1428 c 128,-1,8
 1206 1354 1206 1354 1240 1262 c 1,9,-1
 1020 1160 l 1,10,11
 964 1264 964 1264 850 1264 c 0,12,13
 766 1264 766 1264 704 1221 c 128,-1,14
 642 1178 642 1178 626 1090 c 2,15,-1
 584 838 l 1,16,-1
 966 838 l 1,17,-1
 926 606 l 1,18,-1
 546 606 l 1,19,-1
 520 444 l 2,20,21
 498 316 498 316 448 260 c 1,22,23
 510 268 510 268 536 268 c 0,24,25
 594 268 594 268 679 234 c 128,-1,26
 764 200 764 200 830 200 c 0,27,28
 938 200 938 200 1052 256 c 1,29,-1
 1084 32 l 1,30,31
 922 -32 922 -32 792 -32 c 0,32,33
 728 -32 728 -32 601 2 c 128,-1,34
 474 36 474 36 410 36 c 0,35,36
 342 36 342 36 246 22 c 128,-1,37
 150 8 150 8 86 -8 c 2,38,-1
 24 -22 l 1,39,-1
 -4 170 l 1,40,41
 218 216 218 216 252 430 c 2,42,-1
 282 606 l 1,43,-1
 76 606 l 1,0,-1
EndSplineSet
EndChar

StartChar: currency
Encoding: 164 164 102
Width: 1294
GlyphClass: 2
Flags: W
LayerCount: 2
Fore
SplineSet
-8 302 m 1,0,-1
 240 502 l 1,1,2
 194 588 194 588 216 726 c 0,3,4
 240 866 240 866 314 952 c 1,5,-1
 132 1150 l 1,6,-1
 338 1322 l 1,7,-1
 506 1122 l 1,8,9
 638 1190 638 1190 750 1190 c 0,10,11
 866 1190 866 1190 976 1122 c 1,12,-1
 1208 1322 l 1,13,-1
 1358 1150 l 1,14,-1
 1114 952 l 1,15,16
 1160 860 1160 860 1136 726 c 0,17,18
 1126 662 1126 662 1096 599 c 128,-1,19
 1066 536 1066 536 1036 502 c 1,20,-1
 1218 302 l 1,21,-1
 1010 130 l 1,22,-1
 844 328 l 1,23,24
 712 260 712 260 596 260 c 0,25,26
 472 260 472 260 374 328 c 1,27,-1
 140 132 l 1,28,-1
 -8 302 l 1,0,-1
446 726 m 0,29,30
 430 632 430 632 482 563 c 128,-1,31
 534 494 534 494 636 494 c 0,32,33
 736 494 736 494 811 562 c 128,-1,34
 886 630 886 630 902 726 c 0,35,36
 918 824 918 824 865 891 c 128,-1,37
 812 958 812 958 712 958 c 0,38,39
 610 958 610 958 536 888 c 128,-1,40
 462 818 462 818 446 726 c 0,29,30
EndSplineSet
EndChar

StartChar: yen
Encoding: 165 165 103
Width: 1250
GlyphClass: 2
Flags: W
LayerCount: 2
Fore
SplineSet
146 1470 m 1,0,-1
 452 1470 l 1,1,-1
 590 1134 l 2,2,3
 660 956 660 956 680 904 c 1,4,-1
 686 904 l 1,5,-1
 852 1134 l 1,6,-1
 1104 1470 l 1,7,-1
 1408 1470 l 1,8,-1
 910 850 l 1,9,-1
 1180 850 l 1,10,-1
 1148 660 l 1,11,-1
 776 660 l 1,12,-1
 746 474 l 1,13,-1
 1118 474 l 1,14,-1
 1086 284 l 1,15,-1
 714 284 l 1,16,-1
 666 0 l 1,17,-1
 400 0 l 1,18,-1
 448 284 l 1,19,-1
 74 284 l 1,20,-1
 106 474 l 1,21,-1
 478 474 l 1,22,-1
 510 660 l 1,23,-1
 138 660 l 1,24,-1
 168 850 l 1,25,-1
 438 850 l 1,26,-1
 146 1470 l 1,0,-1
EndSplineSet
EndChar

StartChar: brokenbar
Encoding: 166 166 104
Width: 566
GlyphClass: 2
Flags: W
LayerCount: 2
Fore
SplineSet
212 904 m 1,0,-1
 346 1716 l 1,1,-1
 602 1716 l 1,2,-1
 466 904 l 1,3,-1
 212 904 l 1,0,-1
12 -304 m 1,4,-1
 146 506 l 1,5,-1
 402 506 l 1,6,-1
 266 -304 l 1,7,-1
 12 -304 l 1,4,-1
EndSplineSet
EndChar

StartChar: section
Encoding: 167 167 105
Width: 1062
GlyphClass: 2
Flags: W
LayerCount: 2
Fore
SplineSet
-18 112 m 1,0,-1
 178 244 l 1,1,2
 258 122 258 122 418 122 c 0,3,4
 580 122 580 122 594 206 c 0,5,6
 602 260 602 260 524 300 c 2,7,-1
 336 396 l 2,8,9
 90 518 90 518 122 722 c 0,10,11
 136 808 136 808 195 877 c 128,-1,12
 254 946 254 946 318 988 c 1,13,14
 230 1076 230 1076 250 1194 c 0,15,16
 272 1332 272 1332 395 1417 c 128,-1,17
 518 1502 518 1502 738 1502 c 0,18,19
 1006 1502 1006 1502 1128 1298 c 1,20,-1
 938 1162 l 1,21,22
 850 1276 850 1276 694 1276 c 0,23,24
 532 1276 532 1276 518 1192 c 0,25,26
 516 1176 516 1176 519 1163 c 128,-1,27
 522 1150 522 1150 533 1137 c 128,-1,28
 544 1124 544 1124 556 1115 c 128,-1,29
 568 1106 568 1106 591 1094 c 128,-1,30
 614 1082 614 1082 631 1073 c 128,-1,31
 648 1064 648 1064 679 1051 c 128,-1,32
 710 1038 710 1038 732 1026 c 0,33,34
 878 954 878 954 926 910 c 0,35,36
 1040 808 1040 808 1016 654 c 0,37,38
 990 498 990 498 830 388 c 1,39,40
 880 308 880 308 864 208 c 0,41,42
 840 62 840 62 718 -22 c 128,-1,43
 596 -106 596 -106 380 -106 c 0,44,45
 240 -106 240 -106 130 -42 c 128,-1,46
 20 22 20 22 -18 112 c 1,0,-1
394 728 m 0,47,48
 386 674 386 674 413 641 c 128,-1,49
 440 608 440 608 502 576 c 2,50,-1
 646 504 l 1,51,52
 734 580 734 580 744 654 c 0,53,54
 758 734 758 734 632 800 c 2,55,-1
 498 872 l 1,56,57
 408 808 408 808 394 728 c 0,47,48
EndSplineSet
EndChar

StartChar: dieresis
Encoding: 168 168 106
Width: 1006
GlyphClass: 2
Flags: W
LayerCount: 2
Fore
SplineSet
274 1190 m 1,0,-1
 320 1470 l 1,1,-1
 588 1470 l 1,2,-1
 542 1190 l 1,3,-1
 274 1190 l 1,0,-1
672 1190 m 1,4,-1
 718 1470 l 1,5,-1
 986 1470 l 1,6,-1
 940 1190 l 1,7,-1
 672 1190 l 1,4,-1
EndSplineSet
EndChar

StartChar: copyright
Encoding: 169 169 107
Width: 1648
GlyphClass: 2
Flags: W
LayerCount: 2
Fore
SplineSet
476 746 m 0,0,1
 514 972 514 972 645 1090 c 128,-1,2
 776 1208 776 1208 954 1208 c 0,3,4
 1094 1208 1094 1208 1163 1129 c 128,-1,5
 1232 1050 1232 1050 1238 938 c 1,6,-1
 1054 886 l 1,7,8
 1028 1022 1028 1022 926 1022 c 0,9,10
 738 1022 738 1022 692 746 c 256,11,12
 646 470 646 470 834 470 c 0,13,14
 898 470 898 470 948 513 c 128,-1,15
 998 556 998 556 1026 616 c 1,16,-1
 1198 564 l 1,17,18
 1148 444 1148 444 1045 364 c 128,-1,19
 942 284 942 284 800 284 c 0,20,21
 622 284 622 284 530 403 c 128,-1,22
 438 522 438 522 476 746 c 0,0,1
90 744 m 0,23,24
 150 1108 150 1108 404 1325 c 128,-1,25
 658 1542 658 1542 988 1542 c 0,26,27
 1322 1542 1322 1542 1501 1322 c 128,-1,28
 1680 1102 1680 1102 1620 744 c 0,29,30
 1562 388 1562 388 1310 167 c 128,-1,31
 1058 -54 1058 -54 724 -54 c 0,32,33
 508 -54 508 -54 351 40 c 128,-1,34
 194 134 194 134 122 317 c 128,-1,35
 50 500 50 500 90 744 c 0,23,24
280 744 m 256,36,37
 232 452 232 452 362 283 c 128,-1,38
 492 114 492 114 752 114 c 0,39,40
 998 114 998 114 1191 277 c 128,-1,41
 1384 440 1384 440 1434 744 c 0,42,43
 1482 1038 1482 1038 1348 1206 c 128,-1,44
 1214 1374 1214 1374 960 1374 c 0,45,46
 700 1374 700 1374 514 1205 c 128,-1,47
 328 1036 328 1036 280 744 c 256,36,37
EndSplineSet
EndChar

StartChar: ordfeminine
Encoding: 170 170 108
Width: 746
GlyphClass: 2
Flags: W
LayerCount: 2
Fore
SplineSet
42 544 m 1,0,-1
 68 706 l 1,1,-1
 728 706 l 1,2,-1
 700 544 l 1,3,-1
 42 544 l 1,0,-1
302 1066 m 0,4,5
 296 1026 296 1026 320 1001 c 128,-1,6
 344 976 344 976 394 976 c 0,7,8
 466 976 466 976 525 1025 c 128,-1,9
 584 1074 584 1074 598 1156 c 2,10,-1
 608 1220 l 1,11,12
 586 1214 586 1214 545 1207 c 128,-1,13
 504 1200 504 1200 482 1195 c 128,-1,14
 460 1190 460 1190 428 1182 c 128,-1,15
 396 1174 396 1174 380 1165 c 128,-1,16
 364 1156 364 1156 345 1142 c 128,-1,17
 326 1128 326 1128 316 1109 c 128,-1,18
 306 1090 306 1090 302 1066 c 0,4,5
120 1050 m 0,19,20
 132 1124 132 1124 176 1176 c 128,-1,21
 220 1228 220 1228 285 1256 c 128,-1,22
 350 1284 350 1284 409 1298 c 128,-1,23
 468 1312 468 1312 537 1323 c 128,-1,24
 606 1334 606 1334 628 1342 c 1,25,-1
 636 1384 l 2,26,27
 644 1438 644 1438 613 1464 c 128,-1,28
 582 1490 582 1490 526 1490 c 0,29,30
 406 1490 406 1490 302 1394 c 1,31,-1
 212 1484 l 1,32,33
 274 1548 274 1548 364 1588 c 128,-1,34
 454 1628 454 1628 546 1628 c 0,35,36
 714 1628 714 1628 772 1546 c 128,-1,37
 830 1464 830 1464 804 1314 c 2,38,-1
 728 850 l 1,39,-1
 556 850 l 1,40,-1
 570 942 l 1,41,42
 482 826 482 826 344 826 c 0,43,44
 222 826 222 826 163 888 c 128,-1,45
 104 950 104 950 120 1050 c 0,19,20
EndSplineSet
EndChar

StartChar: guillemotleft
Encoding: 171 171 109
Width: 1042
GlyphClass: 2
Flags: W
LayerCount: 2
Fore
SplineSet
62 538 m 1,0,-1
 474 1044 l 1,1,-1
 638 918 l 1,2,-1
 334 538 l 1,3,-1
 510 166 l 1,4,-1
 306 36 l 1,5,-1
 62 538 l 1,0,-1
466 538 m 1,6,-1
 872 1018 l 1,7,-1
 1028 878 l 1,8,-1
 738 538 l 1,9,-1
 916 198 l 1,10,-1
 714 60 l 1,11,-1
 466 538 l 1,6,-1
EndSplineSet
EndChar

StartChar: logicalnot
Encoding: 172 172 110
Width: 1082
GlyphClass: 2
Flags: W
LayerCount: 2
Fore
SplineSet
86 578 m 1,0,-1
 124 810 l 1,1,-1
 1044 810 l 1,2,-1
 948 234 l 1,3,-1
 704 234 l 1,4,-1
 762 578 l 1,5,-1
 86 578 l 1,0,-1
EndSplineSet
EndChar

StartChar: uni00AD
Encoding: 173 173 111
Width: 1092
GlyphClass: 2
Flags: W
LayerCount: 2
Fore
SplineSet
110 618 m 1,0,-1
 148 850 l 1,1,-1
 1038 850 l 1,2,-1
 1000 618 l 1,3,-1
 110 618 l 1,0,-1
EndSplineSet
EndChar

StartChar: registered
Encoding: 174 174 112
Width: 1648
GlyphClass: 2
Flags: W
LayerCount: 2
Fore
SplineSet
90 746 m 0,0,1
 150 1112 150 1112 404 1327 c 128,-1,2
 658 1542 658 1542 988 1542 c 0,3,4
 1324 1542 1324 1542 1502 1322 c 128,-1,5
 1680 1102 1680 1102 1620 746 c 0,6,7
 1560 388 1560 388 1309 167 c 128,-1,8
 1058 -54 1058 -54 724 -54 c 0,9,10
 394 -54 394 -54 212 164 c 128,-1,11
 30 382 30 382 90 746 c 0,0,1
1434 746 m 0,12,13
 1484 1046 1484 1046 1348 1205 c 128,-1,14
 1212 1364 1212 1364 958 1364 c 0,15,16
 694 1364 694 1364 511 1201 c 128,-1,17
 328 1038 328 1038 280 746 c 0,18,19
 232 452 232 452 360 288 c 128,-1,20
 488 124 488 124 752 124 c 0,21,22
 1006 124 1006 124 1198 286 c 0,23,24
 1214 300 1214 300 1226 312 c 0,25,26
 1388 472 1388 472 1434 746 c 0,12,13
466 286 m 1,27,-1
 616 1188 l 1,28,-1
 988 1188 l 2,29,30
 1126 1188 1126 1188 1187 1110 c 128,-1,31
 1248 1032 1248 1032 1230 920 c 0,32,33
 1204 768 1204 768 1086 704 c 1,34,35
 1112 672 1112 672 1121 641 c 128,-1,36
 1130 610 1130 610 1134 550 c 0,37,38
 1134 518 1134 518 1138 490 c 128,-1,39
 1142 462 1142 462 1150 430 c 128,-1,40
 1158 398 1158 398 1164 384 c 0,41,42
 1166 374 1166 374 1172 358 c 1,43,44
 1100 338 1100 338 962 286 c 1,45,46
 916 368 916 368 910 532 c 0,47,48
 910 572 910 572 909 586 c 128,-1,49
 908 600 908 600 897 616 c 128,-1,50
 886 632 886 632 864 632 c 2,51,-1
 738 632 l 1,52,-1
 680 286 l 1,53,-1
 466 286 l 1,27,-1
764 798 m 1,54,-1
 894 798 l 2,55,56
 942 798 942 798 970 825 c 128,-1,57
 998 852 998 852 1006 898 c 0,58,59
 1012 938 1012 938 991 967 c 128,-1,60
 970 996 970 996 926 996 c 2,61,-1
 798 996 l 1,62,-1
 764 798 l 1,54,-1
1184 332 m 0,63,64
 1196 298 1196 298 1198 288 c 1,65,66
 1212 300 1212 300 1226 312 c 0,67,68
 1254 338 1254 338 1256 352 c 0,69,70
 1258 368 1258 368 1230 368 c 0,71,72
 1210 368 1210 368 1172 358 c 1,73,74
 1176 346 1176 346 1184 332 c 0,63,64
EndSplineSet
EndChar

StartChar: macron
Encoding: 175 175 113
Width: 958
GlyphClass: 2
Flags: W
LayerCount: 2
Fore
SplineSet
138 1354 m 1,0,-1
 176 1584 l 1,1,-1
 1122 1584 l 1,2,-1
 1084 1354 l 1,3,-1
 138 1354 l 1,0,-1
EndSplineSet
EndChar

StartChar: degree
Encoding: 176 176 114
Width: 826
GlyphClass: 2
Flags: W
LayerCount: 2
Fore
SplineSet
254 1210 m 0,0,1
 272 1324 272 1324 362 1402 c 128,-1,2
 452 1480 452 1480 564 1480 c 256,3,4
 676 1480 676 1480 741 1404 c 128,-1,5
 806 1328 806 1328 786 1210 c 0,6,7
 768 1098 768 1098 677 1020 c 128,-1,8
 586 942 586 942 476 942 c 256,9,10
 366 942 366 942 301 1020 c 128,-1,11
 236 1098 236 1098 254 1210 c 0,0,1
416 1210 m 0,12,13
 408 1164 408 1164 433 1133 c 128,-1,14
 458 1102 458 1102 502 1102 c 256,15,16
 548 1102 548 1102 582 1133 c 128,-1,17
 616 1164 616 1164 624 1210 c 256,18,19
 632 1256 632 1256 608 1288 c 128,-1,20
 584 1320 584 1320 538 1320 c 256,21,22
 492 1320 492 1320 458 1287 c 128,-1,23
 424 1254 424 1254 416 1210 c 0,12,13
EndSplineSet
EndChar

StartChar: plusminus
Encoding: 177 177 115
Width: 1098
GlyphClass: 2
Flags: W
LayerCount: 2
Fore
SplineSet
104 794 m 1,0,-1
 142 1018 l 1,1,-1
 494 1018 l 1,2,-1
 546 1334 l 1,3,-1
 804 1334 l 1,4,-1
 752 1018 l 1,5,-1
 1108 1018 l 1,6,-1
 1072 794 l 1,7,-1
 714 794 l 1,8,-1
 662 482 l 1,9,-1
 406 482 l 1,10,-1
 458 794 l 1,11,-1
 104 794 l 1,0,-1
0 148 m 1,12,-1
 36 372 l 1,13,-1
 996 372 l 1,14,-1
 958 148 l 1,15,-1
 0 148 l 1,12,-1
EndSplineSet
EndChar

StartChar: twosuperior
Encoding: 178 178 116
Width: 640
GlyphClass: 2
Flags: W
LayerCount: 2
Fore
SplineSet
176 1376 m 1,0,1
 274 1630 274 1630 496 1630 c 0,2,3
 616 1630 616 1630 680 1560 c 128,-1,4
 744 1490 744 1490 724 1372 c 0,5,6
 704 1252 704 1252 568 1126 c 0,7,8
 550 1108 550 1108 491 1060 c 128,-1,9
 432 1012 432 1012 395 975 c 128,-1,10
 358 938 358 938 330 898 c 1,11,-1
 644 898 l 1,12,-1
 618 744 l 1,13,-1
 80 744 l 1,14,15
 102 872 102 872 176 965 c 128,-1,16
 250 1058 250 1058 430 1208 c 0,17,18
 526 1290 526 1290 540 1374 c 0,19,20
 548 1422 548 1422 528 1449 c 128,-1,21
 508 1476 508 1476 468 1476 c 0,22,23
 376 1476 376 1476 320 1330 c 1,24,-1
 176 1376 l 1,0,1
EndSplineSet
EndChar

StartChar: threesuperior
Encoding: 179 179 117
Width: 644
GlyphClass: 2
Flags: W
LayerCount: 2
Fore
SplineSet
88 942 m 1,0,-1
 242 996 l 1,1,2
 268 878 268 878 364 878 c 0,3,4
 412 878 412 878 451 909 c 128,-1,5
 490 940 490 940 500 996 c 0,6,7
 508 1048 508 1048 477 1082 c 128,-1,8
 446 1116 446 1116 384 1116 c 0,9,10
 342 1116 342 1116 294 1110 c 1,11,-1
 320 1268 l 1,12,13
 388 1264 388 1264 406 1264 c 0,14,15
 454 1264 454 1264 489 1292 c 128,-1,16
 524 1320 524 1320 534 1374 c 0,17,18
 540 1416 540 1416 518 1445 c 128,-1,19
 496 1474 496 1474 456 1474 c 0,20,21
 408 1474 408 1474 381 1442 c 128,-1,22
 354 1410 354 1410 324 1352 c 1,23,-1
 180 1398 l 1,24,25
 208 1472 208 1472 253 1522 c 128,-1,26
 298 1572 298 1572 344 1593 c 128,-1,27
 390 1614 390 1614 424 1621 c 128,-1,28
 458 1628 458 1628 492 1628 c 0,29,30
 614 1628 614 1628 676 1560 c 128,-1,31
 738 1492 738 1492 720 1388 c 0,32,33
 700 1268 700 1268 596 1200 c 1,34,35
 642 1174 642 1174 669 1122 c 128,-1,36
 696 1070 696 1070 684 996 c 0,37,38
 664 870 664 870 570 796 c 128,-1,39
 476 722 476 722 342 722 c 0,40,41
 242 722 242 722 170 778 c 128,-1,42
 98 834 98 834 88 942 c 1,0,-1
EndSplineSet
EndChar

StartChar: acute
Encoding: 180 180 118
Width: 758
GlyphClass: 2
Flags: W
LayerCount: 2
Fore
SplineSet
276 1290 m 1,0,-1
 540 1644 l 1,1,-1
 844 1644 l 1,2,-1
 490 1290 l 1,3,-1
 276 1290 l 1,0,-1
EndSplineSet
EndChar

StartChar: uni00B5
Encoding: 181 181 119
Width: 1054
GlyphClass: 2
Flags: W
LayerCount: 2
Fore
SplineSet
-46 -430 m 1,0,-1
 204 1076 l 1,1,-1
 446 1076 l 1,2,-1
 338 424 l 2,3,4
 300 190 300 190 454 190 c 0,5,6
 546 190 546 190 611 276 c 128,-1,7
 676 362 676 362 696 476 c 2,8,-1
 794 1076 l 1,9,-1
 1040 1076 l 1,10,-1
 862 0 l 1,11,-1
 626 0 l 1,12,-1
 642 104 l 1,13,14
 610 54 610 54 537 11 c 128,-1,15
 464 -32 464 -32 372 -32 c 0,16,17
 308 -32 308 -32 270 4 c 1,18,-1
 198 -430 l 1,19,-1
 -46 -430 l 1,0,-1
EndSplineSet
EndChar

StartChar: paragraph
Encoding: 182 182 120
Width: 1224
GlyphClass: 2
Flags: W
LayerCount: 2
Fore
SplineSet
174 1100 m 0,0,1
 206 1298 206 1298 330 1421 c 128,-1,2
 454 1544 454 1544 656 1544 c 2,3,-1
 1246 1544 l 1,4,-1
 968 -144 l 1,5,-1
 758 -144 l 1,6,-1
 998 1308 l 1,7,-1
 870 1308 l 1,8,-1
 630 -144 l 1,9,-1
 420 -144 l 1,10,-1
 550 642 l 1,11,12
 516 632 516 632 476 632 c 0,13,14
 316 632 316 632 226 752 c 128,-1,15
 136 872 136 872 174 1100 c 0,0,1
EndSplineSet
EndChar

StartChar: periodcentered
Encoding: 183 183 121
Width: 662
GlyphClass: 2
Flags: W
LayerCount: 2
Fore
SplineSet
168 556 m 1,0,-1
 218 858 l 1,1,-1
 542 858 l 1,2,-1
 492 556 l 1,3,-1
 168 556 l 1,0,-1
EndSplineSet
EndChar

StartChar: cedilla
Encoding: 184 184 122
Width: 600
GlyphClass: 2
Flags: W
LayerCount: 2
Fore
SplineSet
-58 -244 m 1,0,1
 20 -262 20 -262 58 -262 c 0,2,3
 150 -262 150 -262 158 -218 c 0,4,5
 168 -156 168 -156 -2 -146 c 1,6,-1
 154 94 l 1,7,-1
 378 94 l 1,8,-1
 298 -30 l 1,9,10
 418 -76 418 -76 394 -220 c 0,11,12
 380 -310 380 -310 300 -379 c 128,-1,13
 220 -448 220 -448 52 -448 c 0,14,15
 -40 -448 -40 -448 -88 -430 c 1,16,-1
 -58 -244 l 1,0,1
EndSplineSet
EndChar

StartChar: onesuperior
Encoding: 185 185 123
Width: 628
GlyphClass: 2
Flags: W
LayerCount: 2
Fore
SplineSet
198 1320 m 1,0,-1
 222 1466 l 1,1,-1
 274 1466 l 2,2,3
 430 1466 430 1466 450 1584 c 2,4,-1
 456 1618 l 1,5,-1
 618 1618 l 1,6,-1
 472 746 l 1,7,-1
 288 746 l 1,8,-1
 384 1320 l 1,9,-1
 198 1320 l 1,0,-1
EndSplineSet
EndChar

StartChar: ordmasculine
Encoding: 186 186 124
Width: 766
GlyphClass: 2
Flags: W
LayerCount: 2
Fore
SplineSet
328 1228 m 0,0,1
 306 1100 306 1100 346 1040 c 128,-1,2
 386 980 386 980 452 980 c 0,3,4
 514 980 514 980 574 1040 c 128,-1,5
 634 1100 634 1100 656 1228 c 0,6,7
 678 1360 678 1360 637 1419 c 128,-1,8
 596 1478 596 1478 534 1478 c 0,9,10
 468 1478 468 1478 409 1418 c 128,-1,11
 350 1358 350 1358 328 1228 c 0,0,1
148 1228 m 0,12,13
 176 1398 176 1398 282 1514 c 128,-1,14
 388 1630 388 1630 560 1630 c 256,15,16
 732 1630 732 1630 799 1513 c 128,-1,17
 866 1396 866 1396 838 1228 c 0,18,19
 828 1164 828 1164 801 1100 c 128,-1,20
 774 1036 774 1036 727 972 c 128,-1,21
 680 908 680 908 602 868 c 128,-1,22
 524 828 524 828 426 828 c 0,23,24
 330 828 330 828 265 866 c 128,-1,25
 200 904 200 904 174 966 c 128,-1,26
 148 1028 148 1028 142 1094 c 128,-1,27
 136 1160 136 1160 148 1228 c 0,12,13
44 556 m 1,28,-1
 72 722 l 1,29,-1
 746 722 l 1,30,-1
 718 556 l 1,31,-1
 44 556 l 1,28,-1
EndSplineSet
EndChar

StartChar: guillemotright
Encoding: 187 187 125
Width: 1042
GlyphClass: 2
Flags: W
LayerCount: 2
Fore
SplineSet
118 878 m 1,0,-1
 320 1018 l 1,1,-1
 568 538 l 1,2,-1
 162 60 l 1,3,-1
 6 198 l 1,4,-1
 298 538 l 1,5,-1
 118 878 l 1,0,-1
402 168 m 1,6,-1
 700 538 l 1,7,-1
 524 918 l 1,8,-1
 728 1044 l 1,9,-1
 972 538 l 1,10,-1
 562 36 l 1,11,-1
 402 168 l 1,6,-1
EndSplineSet
EndChar

StartChar: onequarter
Encoding: 188 188 126
Width: 1900
GlyphClass: 3
Flags: W
LayerCount: 2
Fore
SplineSet
1276 290 m 1,0,-1
 1436 290 l 1,1,-1
 1462 448 l 2,2,3
 1464 466 1464 466 1473 514 c 128,-1,4
 1482 562 1482 562 1484 568 c 1,5,-1
 1276 290 l 1,0,-1
212 1228 m 1,6,-1
 242 1412 l 1,7,-1
 308 1412 l 2,8,9
 480 1412 480 1412 502 1538 c 2,10,-1
 510 1584 l 1,11,-1
 708 1584 l 1,12,-1
 540 574 l 1,13,-1
 314 574 l 1,14,-1
 422 1228 l 1,15,-1
 212 1228 l 1,6,-1
218 -104 m 1,16,-1
 1414 1566 l 1,17,-1
 1650 1566 l 1,18,-1
 460 -104 l 1,19,-1
 218 -104 l 1,16,-1
1050 272 m 1,20,-1
 1576 918 l 1,21,-1
 1760 918 l 1,22,-1
 1656 290 l 1,23,-1
 1764 290 l 1,24,-1
 1732 98 l 1,25,-1
 1624 98 l 1,26,-1
 1590 -106 l 1,27,-1
 1370 -106 l 1,28,-1
 1404 98 l 1,29,-1
 1022 98 l 1,30,-1
 1050 272 l 1,20,-1
EndSplineSet
Ligature2: "'frac' Diagonal Fractions lookup 7 subtable" one fraction four
Ligature2: "'frac' Diagonal Fractions lookup 7 subtable" one slash four
EndChar

StartChar: onehalf
Encoding: 189 189 127
Width: 1898
GlyphClass: 3
Flags: W
LayerCount: 2
Fore
SplineSet
184 -104 m 1,0,-1
 1394 1566 l 1,1,-1
 1632 1566 l 1,2,-1
 428 -104 l 1,3,-1
 184 -104 l 1,0,-1
1136 628 m 1,4,5
 1248 932 1248 932 1512 932 c 0,6,7
 1652 932 1652 932 1727 849 c 128,-1,8
 1802 766 1802 766 1780 628 c 0,9,10
 1772 574 1772 574 1750 527 c 128,-1,11
 1728 480 1728 480 1686 434 c 128,-1,12
 1644 388 1644 388 1617 363 c 128,-1,13
 1590 338 1590 338 1532 286 c 0,14,15
 1388 166 1388 166 1338 98 c 1,16,-1
 1688 98 l 1,17,-1
 1656 -94 l 1,18,-1
 1030 -94 l 1,19,20
 1054 52 1054 52 1133 160 c 128,-1,21
 1212 268 1212 268 1430 450 c 0,22,23
 1538 538 1538 538 1556 632 c 0,24,25
 1564 682 1564 682 1543 710 c 128,-1,26
 1522 738 1522 738 1478 738 c 0,27,28
 1444 738 1444 738 1415 721 c 128,-1,29
 1386 704 1386 704 1368 674 c 128,-1,30
 1350 644 1350 644 1339 623 c 128,-1,31
 1328 602 1328 602 1318 570 c 1,32,-1
 1136 628 l 1,4,5
212 1228 m 1,33,-1
 242 1412 l 1,34,-1
 308 1412 l 2,35,36
 480 1412 480 1412 502 1538 c 2,37,-1
 510 1584 l 1,38,-1
 708 1584 l 1,39,-1
 540 574 l 1,40,-1
 314 574 l 1,41,-1
 422 1228 l 1,42,-1
 212 1228 l 1,33,-1
EndSplineSet
Ligature2: "'frac' Diagonal Fractions lookup 7 subtable" one fraction two
Ligature2: "'frac' Diagonal Fractions lookup 7 subtable" one slash two
EndChar

StartChar: threequarters
Encoding: 190 190 128
Width: 1902
GlyphClass: 3
Flags: W
LayerCount: 2
Fore
SplineSet
126 814 m 1,0,-1
 318 882 l 1,1,2
 326 846 326 846 336 822 c 128,-1,3
 346 798 346 798 377 772 c 128,-1,4
 408 746 408 746 454 746 c 0,5,6
 506 746 506 746 546 778 c 128,-1,7
 586 810 586 810 596 872 c 0,8,9
 606 928 606 928 572 963 c 128,-1,10
 538 998 538 998 474 998 c 0,11,12
 430 998 430 998 362 992 c 1,13,-1
 394 1186 l 1,14,15
 434 1184 434 1184 500 1184 c 0,16,17
 548 1184 548 1184 588 1215 c 128,-1,18
 628 1246 628 1246 636 1300 c 0,19,20
 644 1348 644 1348 621 1377 c 128,-1,21
 598 1406 598 1406 554 1406 c 0,22,23
 518 1406 518 1406 490 1383 c 128,-1,24
 462 1360 462 1360 446 1336 c 128,-1,25
 430 1312 430 1312 406 1266 c 1,26,-1
 232 1324 l 1,27,28
 266 1406 266 1406 314 1464 c 128,-1,29
 362 1522 362 1522 414 1549 c 128,-1,30
 466 1576 466 1576 510 1588 c 128,-1,31
 554 1600 554 1600 598 1600 c 0,32,33
 740 1600 740 1600 812 1519 c 128,-1,34
 884 1438 884 1438 864 1316 c 0,35,36
 842 1186 842 1186 730 1104 c 1,37,38
 848 1028 848 1028 824 872 c 0,39,40
 800 724 800 724 689 638 c 128,-1,41
 578 552 578 552 422 552 c 0,42,43
 310 552 310 552 226 614 c 128,-1,44
 142 676 142 676 126 814 c 1,0,-1
1058 270 m 1,45,-1
 1582 918 l 1,46,-1
 1766 918 l 1,47,-1
 1662 290 l 1,48,-1
 1768 290 l 1,49,-1
 1736 98 l 1,50,-1
 1630 98 l 1,51,-1
 1596 -106 l 1,52,-1
 1376 -106 l 1,53,-1
 1410 98 l 1,54,-1
 1028 98 l 1,55,-1
 1058 270 l 1,45,-1
1282 290 m 1,56,-1
 1440 290 l 1,57,-1
 1466 436 l 2,58,59
 1468 454 1468 454 1478 507 c 128,-1,60
 1488 560 1488 560 1488 566 c 1,61,-1
 1406 452 l 1,62,-1
 1282 290 l 1,56,-1
312 -104 m 1,63,-1
 1530 1566 l 1,64,-1
 1772 1566 l 1,65,-1
 554 -104 l 1,66,-1
 312 -104 l 1,63,-1
EndSplineSet
Ligature2: "'frac' Diagonal Fractions lookup 7 subtable" three fraction four
Ligature2: "'frac' Diagonal Fractions lookup 7 subtable" three slash four
EndChar

StartChar: questiondown
Encoding: 191 191 129
Width: 1114
GlyphClass: 2
Flags: W
LayerCount: 2
Fore
SplineSet
10 -10 m 0,0,1
 24 80 24 80 69 150 c 128,-1,2
 114 220 114 220 170 266 c 128,-1,3
 226 312 226 312 280 357 c 128,-1,4
 334 402 334 402 378 463 c 128,-1,5
 422 524 422 524 434 598 c 2,6,-1
 444 662 l 1,7,-1
 716 662 l 1,8,-1
 700 576 l 2,9,10
 686 496 686 496 653 432 c 128,-1,11
 620 368 620 368 576 326 c 128,-1,12
 532 284 532 284 485 242 c 128,-1,13
 438 200 438 200 397 166 c 128,-1,14
 356 132 356 132 325 82 c 128,-1,15
 294 32 294 32 284 -24 c 0,16,17
 270 -106 270 -106 307 -153 c 128,-1,18
 344 -200 344 -200 416 -200 c 0,19,20
 568 -200 568 -200 680 16 c 1,21,-1
 904 -64 l 1,22,23
 838 -218 838 -218 699 -325 c 128,-1,24
 560 -432 560 -432 378 -432 c 0,25,26
 186 -432 186 -432 82 -316 c 128,-1,27
 -22 -200 -22 -200 10 -10 c 0,0,1
436 786 m 1,28,-1
 486 1084 l 1,29,-1
 812 1084 l 1,30,-1
 764 786 l 1,31,-1
 436 786 l 1,28,-1
EndSplineSet
EndChar

StartChar: AE
Encoding: 198 198 136
Width: 1884
GlyphClass: 2
Flags: W
LayerCount: 2
Fore
SplineSet
546 564 m 1,0,-1
 896 564 l 1,1,-1
 1002 1210 l 1,2,-1
 986 1210 l 1,3,-1
 546 564 l 1,0,-1
-104 0 m 1,4,-1
 890 1470 l 1,5,-1
 1966 1470 l 1,6,-1
 1928 1238 l 1,7,-1
 1274 1238 l 1,8,-1
 1214 874 l 1,9,-1
 1800 874 l 1,10,-1
 1762 644 l 1,11,-1
 1156 644 l 1,12,-1
 1088 232 l 1,13,-1
 1780 232 l 1,14,-1
 1742 0 l 1,15,-1
 802 0 l 1,16,-1
 860 346 l 1,17,-1
 406 346 l 1,18,-1
 180 0 l 1,19,-1
 -104 0 l 1,4,-1
EndSplineSet
EndChar

StartChar: multiply
Encoding: 215 215 153
Width: 1082
GlyphClass: 2
Flags: W
LayerCount: 2
Fore
SplineSet
36 418 m 1,0,-1
 408 730 l 1,1,-1
 138 1040 l 1,2,-1
 332 1206 l 1,3,-1
 594 892 l 1,4,-1
 960 1206 l 1,5,-1
 1100 1040 l 1,6,-1
 728 730 l 1,7,-1
 998 418 l 1,8,-1
 802 254 l 1,9,-1
 540 570 l 1,10,-1
 174 254 l 1,11,-1
 36 418 l 1,0,-1
EndSplineSet
EndChar

StartChar: Oslash
Encoding: 216 216 154
Width: 1376
GlyphClass: 2
Flags: W
LayerCount: 2
Fore
SplineSet
94 734 m 0,0,1
 152 1080 152 1080 358 1291 c 128,-1,2
 564 1502 564 1502 844 1502 c 0,3,4
 992 1502 992 1502 1102 1440 c 1,5,-1
 1196 1574 l 1,6,-1
 1414 1574 l 1,7,-1
 1242 1324 l 1,8,9
 1404 1112 1404 1112 1342 734 c 0,10,11
 1284 388 1284 388 1078 178 c 128,-1,12
 872 -32 872 -32 590 -32 c 0,13,14
 452 -32 452 -32 348 20 c 1,15,-1
 256 -108 l 1,16,-1
 40 -108 l 1,17,-1
 206 128 l 1,18,19
 30 342 30 342 94 734 c 0,0,1
1054 1068 m 1,20,-1
 496 232 l 1,21,22
 542 200 542 200 628 200 c 0,23,24
 790 200 790 200 907 343 c 128,-1,25
 1024 486 1024 486 1066 734 c 0,26,27
 1100 938 1100 938 1054 1068 c 1,20,-1
954 1228 m 1,28,29
 890 1270 890 1270 806 1270 c 0,30,31
 644 1270 644 1270 526 1125 c 128,-1,32
 408 980 408 980 368 734 c 0,33,34
 334 530 334 530 386 382 c 1,35,-1
 954 1228 l 1,28,29
EndSplineSet
EndChar

StartChar: Thorn
Encoding: 222 222 160
Width: 1118
GlyphClass: 2
Flags: W
LayerCount: 2
Fore
SplineSet
46 0 m 1,0,-1
 290 1470 l 1,1,-1
 554 1470 l 1,2,-1
 516 1234 l 1,3,-1
 630 1234 l 2,4,5
 780 1234 780 1234 884 1192 c 128,-1,6
 988 1150 988 1150 1034 1077 c 128,-1,7
 1080 1004 1080 1004 1094 923 c 128,-1,8
 1108 842 1108 842 1092 746 c 0,9,10
 1052 502 1052 502 889 377 c 128,-1,11
 726 252 726 252 480 252 c 2,12,-1
 352 252 l 1,13,-1
 310 0 l 1,14,-1
 46 0 l 1,0,-1
390 484 m 1,15,-1
 492 484 l 2,16,17
 768 484 768 484 814 752 c 0,18,19
 856 1002 856 1002 574 1002 c 2,20,-1
 476 1002 l 1,21,-1
 390 484 l 1,15,-1
EndSplineSet
EndChar

StartChar: germandbls
Encoding: 223 223 161
Width: 1200
GlyphClass: 2
Flags: W
LayerCount: 2
Fore
SplineSet
46 0 m 1,0,-1
 222 1060 l 2,1,2
 258 1276 258 1276 401 1389 c 128,-1,3
 544 1502 544 1502 730 1502 c 0,4,5
 938 1502 938 1502 1045 1395 c 128,-1,6
 1152 1288 1152 1288 1122 1100 c 0,7,8
 1090 902 1090 902 916 800 c 1,9,-1
 916 796 l 1,10,11
 1154 704 1154 704 1104 410 c 0,12,13
 1070 200 1070 200 931 84 c 128,-1,14
 792 -32 792 -32 584 -32 c 0,15,16
 460 -32 460 -32 364 0 c 1,17,-1
 406 242 l 1,18,19
 502 200 502 200 614 200 c 0,20,21
 694 200 694 200 761 261 c 128,-1,22
 828 322 828 322 842 412 c 0,23,24
 862 528 862 528 810 591 c 128,-1,25
 758 654 758 654 638 654 c 2,26,-1
 510 654 l 1,27,-1
 548 884 l 1,28,-1
 654 884 l 2,29,30
 728 884 728 884 783 937 c 128,-1,31
 838 990 838 990 854 1084 c 0,32,33
 868 1166 868 1166 826 1218 c 128,-1,34
 784 1270 784 1270 698 1270 c 0,35,36
 610 1270 610 1270 551 1207 c 128,-1,37
 492 1144 492 1144 474 1038 c 2,38,-1
 302 0 l 1,39,-1
 46 0 l 1,0,-1
EndSplineSet
EndChar

StartChar: ae
Encoding: 230 230 168
Width: 1664
GlyphClass: 2
Flags: W
LayerCount: 2
Fore
SplineSet
8 292 m 0,0,1
 32 440 32 440 163 536 c 128,-1,2
 294 632 294 632 518 664 c 0,3,4
 638 682 638 682 706 698 c 0,5,6
 706 704 706 704 710 731 c 128,-1,7
 714 758 714 758 716 764 c 0,8,9
 726 828 726 828 683 866 c 128,-1,10
 640 904 640 904 568 904 c 0,11,12
 410 904 410 904 258 766 c 1,13,-1
 134 898 l 1,14,15
 332 1108 332 1108 602 1108 c 0,16,17
 820 1108 820 1108 904 970 c 1,18,19
 1048 1108 1048 1108 1244 1108 c 0,20,21
 1436 1108 1436 1108 1544 951 c 128,-1,22
 1652 794 1652 794 1610 544 c 0,23,24
 1608 528 1608 528 1590 448 c 1,25,-1
 904 448 l 1,26,-1
 900 426 l 2,27,28
 888 332 888 332 935 254 c 128,-1,29
 982 176 982 176 1094 176 c 0,30,31
 1252 176 1252 176 1356 326 c 1,32,-1
 1544 250 l 1,33,34
 1478 132 1478 132 1351 50 c 128,-1,35
 1224 -32 1224 -32 1060 -32 c 0,36,37
 816 -32 816 -32 716 170 c 1,38,39
 530 -32 530 -32 312 -32 c 0,40,41
 146 -32 146 -32 65 57 c 128,-1,42
 -16 146 -16 146 8 292 c 0,0,1
262 310 m 0,43,44
 254 262 254 262 287 223 c 128,-1,45
 320 184 320 184 380 184 c 0,46,47
 480 184 480 184 561 255 c 128,-1,48
 642 326 642 326 660 430 c 2,49,-1
 674 520 l 1,50,51
 662 518 662 518 607 506 c 128,-1,52
 552 494 552 494 512 488 c 0,53,54
 286 454 286 454 262 310 c 0,43,44
934 628 m 1,55,-1
 1374 628 l 1,56,57
 1374 632 1374 632 1376 636 c 0,58,59
 1394 746 1394 746 1348 824 c 128,-1,60
 1302 902 1302 902 1212 902 c 0,61,62
 1024 902 1024 902 946 676 c 1,63,-1
 934 628 l 1,55,-1
EndSplineSet
EndChar

StartChar: eth
Encoding: 240 240 178
Width: 1048
GlyphClass: 2
Flags: W
LayerCount: 2
Fore
SplineSet
38 458 m 0,0,1
 78 694 78 694 226 835 c 128,-1,2
 374 976 374 976 572 976 c 0,3,4
 640 976 640 976 695 955 c 128,-1,5
 750 934 750 934 770 908 c 1,6,7
 762 1038 762 1038 676 1148 c 1,8,-1
 476 1010 l 1,9,-1
 360 1174 l 1,10,-1
 516 1284 l 1,11,12
 444 1324 444 1324 358 1338 c 1,13,-1
 482 1550 l 1,14,15
 572 1536 572 1536 652 1502 c 0,16,17
 700 1482 700 1482 750 1446 c 1,18,-1
 966 1598 l 1,19,-1
 1080 1428 l 1,20,-1
 898 1302 l 1,21,22
 926 1262 926 1262 948 1216 c 0,23,24
 996 1112 996 1112 1014 943 c 128,-1,25
 1032 774 1032 774 996 562 c 0,26,27
 952 292 952 292 797 130 c 128,-1,28
 642 -32 642 -32 410 -32 c 0,29,30
 206 -32 206 -32 104 104 c 128,-1,31
 2 240 2 240 38 458 c 0,0,1
292 472 m 256,32,33
 272 346 272 346 316 268 c 128,-1,34
 360 190 360 190 456 190 c 0,35,36
 548 190 548 190 617 266 c 128,-1,37
 686 342 686 342 706 472 c 0,38,39
 726 596 726 596 683 674 c 128,-1,40
 640 752 640 752 548 752 c 256,41,42
 454 752 454 752 383 675 c 128,-1,43
 312 598 312 598 292 472 c 256,32,33
EndSplineSet
EndChar

StartChar: divide
Encoding: 247 247 185
Width: 1084
GlyphClass: 2
Flags: W
LayerCount: 2
Fore
SplineSet
462 974 m 1,0,-1
 510 1264 l 1,1,-1
 802 1264 l 1,2,-1
 754 974 l 1,3,-1
 462 974 l 1,0,-1
54 608 m 1,4,-1
 92 840 l 1,5,-1
 1080 840 l 1,6,-1
 1042 608 l 1,7,-1
 54 608 l 1,4,-1
330 182 m 1,8,-1
 378 474 l 1,9,-1
 670 474 l 1,10,-1
 622 182 l 1,11,-1
 330 182 l 1,8,-1
EndSplineSet
EndChar

StartChar: oslash
Encoding: 248 248 186
Width: 1054
GlyphClass: 2
Flags: W
LayerCount: 2
Fore
SplineSet
52 536 m 0,0,1
 92 776 92 776 238 942 c 128,-1,2
 384 1108 384 1108 618 1108 c 0,3,4
 728 1108 728 1108 806 1072 c 1,5,-1
 896 1206 l 1,6,-1
 1082 1206 l 1,7,-1
 926 976 l 1,8,9
 1044 820 1044 820 996 536 c 0,10,11
 984 464 984 464 961 392 c 128,-1,12
 938 320 938 320 891 241 c 128,-1,13
 844 162 844 162 783 103 c 128,-1,14
 722 44 722 44 630 6 c 128,-1,15
 538 -32 538 -32 428 -32 c 0,16,17
 332 -32 332 -32 250 0 c 1,18,-1
 174 -110 l 1,19,-1
 -8 -110 l 1,20,-1
 126 92 l 1,21,22
 4 248 4 248 52 536 c 0,0,1
746 718 m 1,23,-1
 392 208 l 1,24,25
 428 190 428 190 466 190 c 0,26,27
 552 190 552 190 633 272 c 128,-1,28
 714 354 714 354 744 536 c 0,29,30
 762 646 762 646 746 718 c 1,23,-1
666 864 m 1,31,32
 632 886 632 886 582 886 c 0,33,34
 496 886 496 886 415 804 c 128,-1,35
 334 722 334 722 304 536 c 0,36,37
 286 426 286 426 308 346 c 1,38,-1
 666 864 l 1,31,32
EndSplineSet
EndChar

StartChar: thorn
Encoding: 254 254 192
Width: 1108
GlyphClass: 2
Flags: W
LayerCount: 2
Fore
SplineSet
370 538 m 256,0,1
 344 378 344 378 386 284 c 128,-1,2
 428 190 428 190 526 190 c 256,3,4
 624 190 624 190 697 281 c 128,-1,5
 770 372 770 372 798 538 c 0,6,7
 824 700 824 700 783 793 c 128,-1,8
 742 886 742 886 640 886 c 0,9,10
 542 886 542 886 469 792 c 128,-1,11
 396 698 396 698 370 538 c 256,0,1
-34 -430 m 1,12,-1
 288 1518 l 1,13,-1
 534 1518 l 1,14,-1
 444 968 l 1,15,16
 480 1026 480 1026 555 1067 c 128,-1,17
 630 1108 630 1108 710 1108 c 0,18,19
 902 1108 902 1108 998 956 c 128,-1,20
 1094 804 1094 804 1050 538 c 0,21,22
 1026 388 1026 388 967 274 c 128,-1,23
 908 160 908 160 833 96 c 128,-1,24
 758 32 758 32 679 0 c 128,-1,25
 600 -32 600 -32 522 -32 c 0,26,27
 426 -32 426 -32 373 10 c 128,-1,28
 320 52 320 52 302 104 c 1,29,-1
 214 -430 l 1,30,-1
 -34 -430 l 1,12,-1
EndSplineSet
EndChar

StartChar: dcroat
Encoding: 273 273 211
Width: 1100
GlyphClass: 2
Flags: W
LayerCount: 2
Fore
SplineSet
50 526 m 0,0,1
 94 794 94 794 242 939 c 128,-1,2
 390 1084 390 1084 572 1084 c 0,3,4
 656 1084 656 1084 715 1047 c 128,-1,5
 774 1010 774 1010 798 958 c 1,6,-1
 832 1166 l 1,7,-1
 448 1166 l 1,8,-1
 480 1368 l 1,9,-1
 866 1368 l 1,10,-1
 892 1518 l 1,11,-1
 1136 1518 l 1,12,-1
 1110 1368 l 1,13,-1
 1212 1368 l 1,14,-1
 1178 1166 l 1,15,-1
 1078 1166 l 1,16,-1
 884 0 l 1,17,-1
 648 0 l 1,18,-1
 668 124 l 1,19,20
 618 56 618 56 545 12 c 128,-1,21
 472 -32 472 -32 388 -32 c 0,22,23
 208 -32 208 -32 106 109 c 128,-1,24
 4 250 4 250 50 526 c 0,0,1
302 526 m 0,25,26
 274 362 274 362 321 276 c 128,-1,27
 368 190 368 190 460 190 c 0,28,29
 556 190 556 190 631 281 c 128,-1,30
 706 372 706 372 730 526 c 0,31,32
 754 676 754 676 712 768 c 128,-1,33
 670 860 670 860 572 860 c 0,34,35
 478 860 478 860 402 768 c 128,-1,36
 326 676 326 676 302 526 c 0,25,26
EndSplineSet
EndChar

StartChar: uni0123
Encoding: 291 291 229
Width: 1072
GlyphClass: 2
Flags: W
LayerCount: 2
Fore
SplineSet
492 1246 m 1,0,-1
 728 1628 l 1,1,-1
 898 1628 l 1,2,-1
 758 1246 l 1,3,-1
 492 1246 l 1,0,-1
310 558 m 0,4,5
 284 402 284 402 326 318 c 128,-1,6
 368 234 368 234 460 234 c 256,7,8
 552 234 552 234 620 317 c 128,-1,9
 688 400 688 400 716 560 c 0,10,11
 742 718 742 718 701 802 c 128,-1,12
 660 886 660 886 568 886 c 256,13,14
 476 886 476 886 406 799 c 128,-1,15
 336 712 336 712 310 558 c 0,4,5
60 556 m 0,16,17
 102 808 102 808 247 958 c 128,-1,18
 392 1108 392 1108 574 1108 c 0,19,20
 662 1108 662 1108 714 1064 c 128,-1,21
 766 1020 766 1020 784 968 c 1,22,-1
 802 1076 l 1,23,-1
 1048 1076 l 1,24,-1
 894 156 l 2,25,26
 844 -150 844 -150 706 -294 c 128,-1,27
 568 -438 568 -438 332 -438 c 0,28,29
 208 -438 208 -438 112 -383 c 128,-1,30
 16 -328 16 -328 -36 -226 c 1,31,-1
 146 -106 l 1,32,33
 224 -230 224 -230 372 -230 c 0,34,35
 460 -230 460 -230 528 -162 c 128,-1,36
 596 -94 596 -94 624 16 c 0,37,38
 644 104 644 104 648 132 c 1,39,40
 604 78 604 78 536 44 c 128,-1,41
 468 10 468 10 400 10 c 0,42,43
 208 10 208 10 113 159 c 128,-1,44
 18 308 18 308 60 556 c 0,16,17
EndSplineSet
EndChar

StartChar: Hbar
Encoding: 294 294 232
Width: 1370
GlyphClass: 2
Flags: W
LayerCount: 2
Fore
SplineSet
100 1080 m 1,0,-1
 134 1292 l 1,1,-1
 270 1292 l 1,2,-1
 300 1470 l 1,3,-1
 564 1470 l 1,4,-1
 534 1292 l 1,5,-1
 1076 1292 l 1,6,-1
 1104 1470 l 1,7,-1
 1372 1470 l 1,8,-1
 1342 1292 l 1,9,-1
 1480 1292 l 1,10,-1
 1444 1080 l 1,11,-1
 1306 1080 l 1,12,-1
 1128 0 l 1,13,-1
 862 0 l 1,14,-1
 968 640 l 1,15,-1
 426 640 l 1,16,-1
 320 0 l 1,17,-1
 56 0 l 1,18,-1
 234 1080 l 1,19,-1
 100 1080 l 1,0,-1
1040 1080 m 1,20,-1
 500 1080 l 1,21,-1
 464 872 l 1,22,-1
 1006 872 l 1,23,-1
 1040 1080 l 1,20,-1
EndSplineSet
EndChar

StartChar: hbar
Encoding: 295 295 233
Width: 1058
GlyphClass: 2
Flags: W
LayerCount: 2
Fore
SplineSet
102 1168 m 1,0,-1
 134 1366 l 1,1,-1
 256 1366 l 1,2,-1
 280 1518 l 1,3,-1
 524 1518 l 1,4,-1
 498 1366 l 1,5,-1
 862 1366 l 1,6,-1
 830 1168 l 1,7,-1
 466 1168 l 1,8,-1
 426 932 l 1,9,-1
 428 932 l 1,10,11
 476 982 476 982 549 1019 c 128,-1,12
 622 1056 622 1056 698 1056 c 0,13,14
 758 1056 758 1056 810 1037 c 128,-1,15
 862 1018 862 1018 910 974 c 128,-1,16
 958 930 958 930 975 843 c 128,-1,17
 992 756 992 756 974 636 c 2,18,-1
 868 0 l 1,19,-1
 624 0 l 1,20,-1
 724 608 l 2,21,22
 760 830 760 830 616 830 c 0,23,24
 526 830 526 830 454 748 c 128,-1,25
 382 666 382 666 364 556 c 2,26,-1
 272 0 l 1,27,-1
 30 0 l 1,28,-1
 222 1168 l 1,29,-1
 102 1168 l 1,0,-1
EndSplineSet
EndChar

StartChar: dotlessi
Encoding: 305 305 243
Width: 482
GlyphClass: 2
Flags: W
LayerCount: 2
Fore
SplineSet
26 0 m 1,0,-1
 204 1076 l 1,1,-1
 448 1076 l 1,2,-1
 270 0 l 1,3,-1
 26 0 l 1,0,-1
EndSplineSet
EndChar

StartChar: kgreenlandic
Encoding: 312 312 250
Width: 1028
GlyphClass: 2
Flags: W
LayerCount: 2
Fore
SplineSet
24 0 m 1,0,-1
 202 1076 l 1,1,-1
 444 1076 l 1,2,-1
 384 704 l 1,3,-1
 390 704 l 1,4,-1
 818 1076 l 1,5,-1
 1128 1076 l 1,6,-1
 582 598 l 1,7,-1
 954 0 l 1,8,-1
 660 0 l 1,9,-1
 392 410 l 1,10,-1
 324 346 l 1,11,-1
 266 0 l 1,12,-1
 24 0 l 1,0,-1
EndSplineSet
EndChar

StartChar: Lslash
Encoding: 321 321 259
Width: 1086
GlyphClass: 2
Flags: W
LayerCount: 2
Fore
SplineSet
442 666 m 1,0,-1
 370 232 l 1,1,-1
 1012 232 l 1,2,-1
 974 0 l 1,3,-1
 66 0 l 1,4,-1
 148 500 l 1,5,-1
 -22 400 l 1,6,-1
 -112 600 l 1,7,-1
 194 774 l 1,8,-1
 310 1470 l 1,9,-1
 576 1470 l 1,10,-1
 488 940 l 1,11,-1
 716 1072 l 1,12,-1
 804 872 l 1,13,-1
 442 666 l 1,0,-1
EndSplineSet
EndChar

StartChar: lslash
Encoding: 322 322 260
Width: 518
GlyphClass: 2
Flags: W
LayerCount: 2
Fore
SplineSet
404 698 m 1,0,-1
 290 0 l 1,1,-1
 42 0 l 1,2,-1
 132 544 l 1,3,-1
 -32 450 l 1,4,-1
 -118 650 l 1,5,-1
 178 820 l 1,6,-1
 294 1518 l 1,7,-1
 540 1518 l 1,8,-1
 450 974 l 1,9,-1
 618 1068 l 1,10,-1
 700 866 l 1,11,-1
 404 698 l 1,0,-1
EndSplineSet
EndChar

StartChar: Eng
Encoding: 330 330 268
Width: 1360
GlyphClass: 2
Flags: W
LayerCount: 2
Fore
SplineSet
46 0 m 1,0,-1
 290 1470 l 1,1,-1
 562 1470 l 1,2,-1
 856 670 l 1,3,-1
 948 408 l 1,4,-1
 958 408 l 1,5,6
 958 588 958 588 998 828 c 2,7,-1
 1104 1470 l 1,8,-1
 1372 1470 l 1,9,-1
 1134 34 l 2,10,11
 1096 -200 1096 -200 972 -310 c 128,-1,12
 848 -420 848 -420 686 -420 c 0,13,14
 598 -420 598 -420 482 -398 c 1,15,-1
 520 -172 l 1,16,17
 586 -188 586 -188 670 -188 c 0,18,19
 750 -188 750 -188 792 -146 c 128,-1,20
 834 -104 834 -104 854 -4 c 1,21,-1
 550 808 l 1,22,-1
 468 1056 l 1,23,-1
 458 1056 l 1,24,25
 444 796 444 796 420 644 c 2,26,-1
 312 0 l 1,27,-1
 46 0 l 1,0,-1
EndSplineSet
EndChar

StartChar: eng
Encoding: 331 331 269
Width: 1046
GlyphClass: 2
Flags: W
LayerCount: 2
Fore
SplineSet
16 0 m 1,0,-1
 194 1076 l 1,1,-1
 428 1076 l 1,2,-1
 408 956 l 1,3,-1
 410 956 l 1,4,5
 458 1020 458 1020 536 1064 c 128,-1,6
 614 1108 614 1108 708 1108 c 0,7,8
 1040 1108 1040 1108 972 690 c 2,9,-1
 860 16 l 2,10,11
 840 -110 840 -110 790 -203 c 128,-1,12
 740 -296 740 -296 678 -345 c 128,-1,13
 616 -394 616 -394 554 -416 c 128,-1,14
 492 -438 492 -438 430 -438 c 0,15,16
 364 -438 364 -438 254 -416 c 1,17,-1
 290 -190 l 1,18,19
 360 -208 360 -208 424 -208 c 0,20,21
 504 -208 504 -208 549 -162 c 128,-1,22
 594 -116 594 -116 610 -18 c 2,23,-1
 722 658 l 2,24,25
 740 766 740 766 718 826 c 128,-1,26
 696 886 696 886 616 886 c 0,27,28
 526 886 526 886 454 809 c 128,-1,29
 382 732 382 732 364 618 c 2,30,-1
 262 0 l 1,31,-1
 16 0 l 1,0,-1
EndSplineSet
EndChar

StartChar: OE
Encoding: 338 338 276
Width: 1910
GlyphClass: 2
Flags: W
LayerCount: 2
Fore
SplineSet
94 734 m 256,0,1
 152 1080 152 1080 360 1291 c 128,-1,2
 568 1502 568 1502 850 1502 c 0,3,4
 980 1502 980 1502 1044 1470 c 1,5,-1
 1992 1470 l 1,6,-1
 1954 1236 l 1,7,-1
 1264 1236 l 1,8,-1
 1204 874 l 1,9,-1
 1826 874 l 1,10,-1
 1788 644 l 1,11,-1
 1166 644 l 1,12,-1
 1098 232 l 1,13,-1
 1808 232 l 1,14,-1
 1768 0 l 1,15,-1
 804 0 l 1,16,17
 704 -32 704 -32 596 -32 c 0,18,19
 310 -32 310 -32 173 178 c 128,-1,20
 36 388 36 388 94 734 c 256,0,1
368 734 m 0,21,22
 328 488 328 488 399 344 c 128,-1,23
 470 200 470 200 634 200 c 0,24,25
 746 200 746 200 836 270 c 1,26,-1
 990 1198 l 1,27,28
 926 1270 926 1270 810 1270 c 0,29,30
 644 1270 644 1270 526 1124 c 128,-1,31
 408 978 408 978 368 734 c 0,21,22
EndSplineSet
EndChar

StartChar: uni0163
Encoding: 355 355 293
Width: 698
GlyphClass: 2
Flags: W
LayerCount: 2
Fore
SplineSet
76 854 m 1,0,-1
 114 1076 l 1,1,-1
 266 1076 l 1,2,-1
 316 1388 l 1,3,-1
 562 1388 l 1,4,-1
 510 1076 l 1,5,-1
 728 1076 l 1,6,-1
 692 854 l 1,7,-1
 472 854 l 1,8,-1
 390 354 l 2,9,10
 368 222 368 222 476 222 c 2,11,-1
 588 222 l 1,12,-1
 552 0 l 1,13,-1
 452 0 l 1,14,-1
 428 -56 l 1,15,16
 494 -74 494 -74 527 -117 c 128,-1,17
 560 -160 560 -160 548 -226 c 0,18,19
 534 -310 534 -310 454 -372 c 128,-1,20
 374 -434 374 -434 220 -434 c 0,21,22
 130 -434 130 -434 58 -414 c 1,23,-1
 84 -254 l 1,24,25
 168 -272 168 -272 240 -272 c 0,26,27
 348 -272 348 -272 358 -208 c 0,28,29
 368 -152 368 -152 190 -142 c 1,30,-1
 176 -142 l 1,31,-1
 244 32 l 1,32,33
 104 104 104 104 142 336 c 2,34,-1
 228 854 l 1,35,-1
 76 854 l 1,0,-1
EndSplineSet
Substitution2: "'locl' Localized Forms in Latin lookup 3 subtable" uni021B
Substitution2: "'locl' Localized Forms in Latin lookup 2 subtable" uni021B
Substitution2: "'aalt' Access All Alternates lookup 0 subtable" uni021B
EndChar

StartChar: tbar
Encoding: 359 359 297
Width: 698
GlyphClass: 2
Flags: W
LayerCount: 2
Fore
SplineSet
78 854 m 1,0,-1
 114 1076 l 1,1,-1
 266 1076 l 1,2,-1
 318 1388 l 1,3,-1
 562 1388 l 1,4,-1
 510 1076 l 1,5,-1
 732 1076 l 1,6,-1
 694 854 l 1,7,-1
 474 854 l 1,8,-1
 454 728 l 1,9,-1
 672 728 l 1,10,-1
 636 514 l 1,11,-1
 418 514 l 1,12,-1
 392 354 l 2,13,14
 370 222 370 222 478 222 c 2,15,-1
 592 222 l 1,16,-1
 554 0 l 1,17,-1
 412 0 l 2,18,19
 88 0 88 0 144 336 c 2,20,-1
 174 514 l 1,21,-1
 -4 514 l 1,22,-1
 32 728 l 1,23,-1
 208 728 l 1,24,-1
 230 854 l 1,25,-1
 78 854 l 1,0,-1
EndSplineSet
EndChar

StartChar: longs
Encoding: 383 383 321
Width: 592
GlyphClass: 2
Flags: W
LayerCount: 2
Fore
SplineSet
32 0 m 1,0,-1
 226 1178 l 2,1,2
 254 1344 254 1344 349 1430 c 128,-1,3
 444 1516 444 1516 588 1516 c 2,4,-1
 754 1516 l 1,5,-1
 718 1292 l 1,6,-1
 600 1292 l 2,7,8
 544 1292 544 1292 513 1260 c 128,-1,9
 482 1228 482 1228 468 1154 c 2,10,-1
 278 0 l 1,11,-1
 32 0 l 1,0,-1
EndSplineSet
EndChar

StartChar: uni0180
Encoding: 384 384 322
Width: 1100
GlyphClass: 2
Flags: W
LayerCount: 2
Fore
SplineSet
360 530 m 0,0,1
 334 374 334 374 378 282 c 128,-1,2
 422 190 422 190 520 190 c 0,3,4
 614 190 614 190 688 278 c 128,-1,5
 762 366 762 366 790 530 c 0,6,7
 816 682 816 682 772 776 c 128,-1,8
 728 870 728 870 630 870 c 256,9,10
 534 870 534 870 460 776 c 128,-1,11
 386 682 386 682 360 530 c 0,0,1
104 1168 m 1,12,-1
 136 1370 l 1,13,-1
 258 1370 l 1,14,-1
 282 1518 l 1,15,-1
 524 1518 l 1,16,-1
 498 1370 l 1,17,-1
 856 1370 l 1,18,-1
 822 1168 l 1,19,-1
 466 1168 l 1,20,-1
 430 956 l 1,21,22
 554 1092 554 1092 702 1092 c 0,23,24
 890 1092 890 1092 987 941 c 128,-1,25
 1084 790 1084 790 1040 530 c 0,26,27
 1016 384 1016 384 957 271 c 128,-1,28
 898 158 898 158 823 94 c 128,-1,29
 748 30 748 30 671 -1 c 128,-1,30
 594 -32 594 -32 520 -32 c 0,31,32
 432 -32 432 -32 370 15 c 128,-1,33
 308 62 308 62 288 122 c 1,34,-1
 268 0 l 1,35,-1
 32 0 l 1,36,-1
 224 1168 l 1,37,-1
 104 1168 l 1,12,-1
EndSplineSet
EndChar

StartChar: uni0182
Encoding: 386 386 324
Width: 1274
GlyphClass: 2
Flags: W
LayerCount: 2
Fore
SplineSet
352 232 m 1,0,-1
 664 232 l 2,1,2
 754 232 754 232 824 282 c 128,-1,3
 894 332 894 332 912 432 c 0,4,5
 926 518 926 518 880 580 c 128,-1,6
 834 642 834 642 730 642 c 2,7,-1
 418 642 l 1,8,-1
 352 232 l 1,0,-1
46 0 m 1,9,-1
 290 1470 l 1,10,-1
 1192 1470 l 1,11,-1
 1152 1236 l 1,12,-1
 518 1236 l 1,13,-1
 458 872 l 1,14,-1
 788 872 l 2,15,16
 1016 872 1016 872 1118 746 c 128,-1,17
 1220 620 1220 620 1190 432 c 0,18,19
 1160 248 1160 248 1016 124 c 128,-1,20
 872 0 872 0 664 0 c 2,21,-1
 46 0 l 1,9,-1
EndSplineSet
EndChar

StartChar: uni0183
Encoding: 387 387 325
Width: 1096
GlyphClass: 2
Flags: W
LayerCount: 2
Fore
SplineSet
356 538 m 0,0,1
 330 376 330 376 373 283 c 128,-1,2
 416 190 416 190 514 190 c 0,3,4
 610 190 610 190 684 279 c 128,-1,5
 758 368 758 368 786 538 c 0,6,7
 812 700 812 700 770 793 c 128,-1,8
 728 886 728 886 630 886 c 0,9,10
 528 886 528 886 455 790 c 128,-1,11
 382 694 382 694 356 538 c 0,0,1
26 0 m 1,12,-1
 274 1498 l 1,13,-1
 1022 1498 l 1,14,-1
 984 1274 l 1,15,-1
 478 1274 l 1,16,-1
 428 978 l 1,17,18
 452 1004 452 1004 483 1030 c 128,-1,19
 514 1056 514 1056 575 1082 c 128,-1,20
 636 1108 636 1108 700 1108 c 0,21,22
 888 1108 888 1108 985 956 c 128,-1,23
 1082 804 1082 804 1038 538 c 0,24,25
 1014 390 1014 390 955 275 c 128,-1,26
 896 160 896 160 822 96 c 128,-1,27
 748 32 748 32 670 0 c 128,-1,28
 592 -32 592 -32 516 -32 c 0,29,30
 428 -32 428 -32 365 15 c 128,-1,31
 302 62 302 62 284 122 c 1,32,-1
 262 0 l 1,33,-1
 26 0 l 1,12,-1
EndSplineSet
EndChar

StartChar: uni0184
Encoding: 388 388 326
Width: 1290
GlyphClass: 2
Flags: W
LayerCount: 2
Fore
SplineSet
98 1318 m 1,0,-1
 424 1470 l 1,1,-1
 568 1470 l 1,2,-1
 470 870 l 1,3,-1
 802 870 l 2,4,5
 1032 870 1032 870 1134 745 c 128,-1,6
 1236 620 1236 620 1204 432 c 0,7,8
 1174 250 1174 250 1033 125 c 128,-1,9
 892 0 892 0 680 0 c 2,10,-1
 58 0 l 1,11,-1
 254 1174 l 1,12,-1
 98 1318 l 1,0,-1
364 232 m 1,13,-1
 680 232 l 2,14,15
 770 232 770 232 841 282 c 128,-1,16
 912 332 912 332 928 432 c 0,17,18
 942 518 942 518 897 579 c 128,-1,19
 852 640 852 640 744 640 c 2,20,-1
 432 640 l 1,21,-1
 364 232 l 1,13,-1
EndSplineSet
EndChar

StartChar: uni0185
Encoding: 389 389 327
Width: 1102
GlyphClass: 2
Flags: W
LayerCount: 2
Fore
SplineSet
98 1360 m 1,0,-1
 396 1518 l 1,1,-1
 524 1518 l 1,2,-1
 436 978 l 1,3,4
 466 1028 466 1028 543 1068 c 128,-1,5
 620 1108 620 1108 706 1108 c 0,6,7
 896 1108 896 1108 992 956 c 128,-1,8
 1088 804 1088 804 1044 538 c 0,9,10
 1020 392 1020 392 963 278 c 128,-1,11
 906 164 906 164 832 98 c 128,-1,12
 758 32 758 32 679 0 c 128,-1,13
 600 -32 600 -32 522 -32 c 0,14,15
 434 -32 434 -32 374 13 c 128,-1,16
 314 58 314 58 290 122 c 1,17,-1
 270 0 l 1,18,-1
 32 0 l 1,19,-1
 234 1220 l 1,20,-1
 98 1360 l 1,0,-1
362 538 m 0,21,22
 336 376 336 376 379 283 c 128,-1,23
 422 190 422 190 522 190 c 0,24,25
 618 190 618 190 691 281 c 128,-1,26
 764 372 764 372 792 538 c 0,27,28
 818 696 818 696 779 791 c 128,-1,29
 740 886 740 886 636 886 c 0,30,31
 536 886 536 886 462 792 c 128,-1,32
 388 698 388 698 362 538 c 0,21,22
EndSplineSet
EndChar

StartChar: uni0186
Encoding: 390 390 328
Width: 1298
GlyphClass: 2
Flags: W
LayerCount: 2
Fore
SplineSet
0 366 m 1,0,-1
 254 442 l 1,1,2
 274 342 274 342 347 271 c 128,-1,3
 420 200 420 200 530 200 c 0,4,5
 696 200 696 200 822 346 c 128,-1,6
 948 492 948 492 988 736 c 0,7,8
 1028 978 1028 978 952 1124 c 128,-1,9
 876 1270 876 1270 708 1270 c 0,10,11
 530 1270 530 1270 380 1062 c 1,12,-1
 164 1138 l 1,13,14
 252 1294 252 1294 404 1398 c 128,-1,15
 556 1502 556 1502 744 1502 c 0,16,17
 1030 1502 1030 1502 1176 1295 c 128,-1,18
 1322 1088 1322 1088 1264 736 c 0,19,20
 1204 376 1204 376 988 172 c 128,-1,21
 772 -32 772 -32 490 -32 c 0,22,23
 374 -32 374 -32 282 5 c 128,-1,24
 190 42 190 42 135 105 c 128,-1,25
 80 168 80 168 48 232 c 128,-1,26
 16 296 16 296 0 366 c 1,0,-1
EndSplineSet
EndChar

StartChar: uni018B
Encoding: 395 395 333
Width: 1272
GlyphClass: 2
Flags: W
LayerCount: 2
Fore
SplineSet
320 432 m 0,0,1
 304 332 304 332 357 282 c 128,-1,2
 410 232 410 232 500 232 c 2,3,-1
 814 232 l 1,4,-1
 882 642 l 1,5,-1
 572 642 l 2,6,7
 466 642 466 642 400 580 c 128,-1,8
 334 518 334 518 320 432 c 0,0,1
44 432 m 0,9,10
 76 622 76 622 218 747 c 128,-1,11
 360 872 360 872 588 872 c 2,12,-1
 920 872 l 1,13,-1
 980 1236 l 1,14,-1
 342 1236 l 1,15,-1
 382 1470 l 1,16,-1
 1286 1470 l 1,17,-1
 1042 0 l 1,18,-1
 422 0 l 2,19,20
 212 0 212 0 113 124 c 128,-1,21
 14 248 14 248 44 432 c 0,9,10
EndSplineSet
EndChar

StartChar: uni018C
Encoding: 396 396 334
Width: 1096
GlyphClass: 2
Flags: W
LayerCount: 2
Fore
SplineSet
304 538 m 0,0,1
 276 368 276 368 320 279 c 128,-1,2
 364 190 364 190 460 190 c 0,3,4
 560 190 560 190 632 285 c 128,-1,5
 704 380 704 380 730 538 c 256,6,7
 756 696 756 696 716 791 c 128,-1,8
 676 886 676 886 576 886 c 0,9,10
 478 886 478 886 405 794 c 128,-1,11
 332 702 332 702 304 538 c 0,0,1
52 538 m 0,12,13
 96 804 96 804 242 956 c 128,-1,14
 388 1108 388 1108 578 1108 c 0,15,16
 672 1108 672 1108 727 1064 c 128,-1,17
 782 1020 782 1020 802 976 c 1,18,-1
 854 1294 l 1,19,-1
 346 1294 l 1,20,-1
 382 1518 l 1,21,-1
 1136 1518 l 1,22,-1
 884 0 l 1,23,-1
 648 0 l 1,24,-1
 668 120 l 1,25,26
 624 60 624 60 551 14 c 128,-1,27
 478 -32 478 -32 386 -32 c 0,28,29
 308 -32 308 -32 241 0 c 128,-1,30
 174 32 174 32 120 96 c 128,-1,31
 66 160 66 160 47 275 c 128,-1,32
 28 390 28 390 52 538 c 0,12,13
EndSplineSet
EndChar

StartChar: uni018D
Encoding: 397 397 335
Width: 1140
GlyphClass: 2
Flags: W
LayerCount: 2
Fore
SplineSet
320 642 m 256,0,1
 302 538 302 538 367 452 c 128,-1,2
 432 366 432 366 546 310 c 1,3,4
 666 366 666 366 749 452 c 128,-1,5
 832 538 832 538 850 640 c 0,6,7
 868 746 868 746 812 817 c 128,-1,8
 756 888 756 888 634 888 c 0,9,10
 506 888 506 888 422 817 c 128,-1,11
 338 746 338 746 320 642 c 256,0,1
68 636 m 0,12,13
 106 862 106 862 267 985 c 128,-1,14
 428 1108 428 1108 672 1108 c 0,15,16
 910 1108 910 1108 1024 979 c 128,-1,17
 1138 850 1138 850 1104 648 c 0,18,19
 1084 522 1084 522 987 400 c 128,-1,20
 890 278 890 278 736 200 c 1,21,22
 806 148 806 148 835 73 c 128,-1,23
 864 -2 864 -2 852 -80 c 0,24,25
 824 -248 824 -248 685 -339 c 128,-1,26
 546 -430 546 -430 360 -430 c 0,27,28
 200 -430 200 -430 95 -358 c 128,-1,29
 -10 -286 -10 -286 -50 -168 c 1,30,-1
 148 -64 l 1,31,32
 178 -124 178 -124 242 -166 c 128,-1,33
 306 -208 306 -208 394 -208 c 0,34,35
 478 -208 478 -208 534 -173 c 128,-1,36
 590 -138 590 -138 600 -86 c 0,37,38
 604 -60 604 -60 590 -35 c 128,-1,39
 576 -10 576 -10 534 21 c 128,-1,40
 492 52 492 52 465 69 c 128,-1,41
 438 86 438 86 372 126 c 0,42,43
 300 168 300 168 246 212 c 128,-1,44
 192 256 192 256 142 318 c 128,-1,45
 92 380 92 380 72 461 c 128,-1,46
 52 542 52 542 68 636 c 0,12,13
EndSplineSet
EndChar

StartChar: uni018E
Encoding: 398 398 336
Width: 1162
GlyphClass: 2
Flags: W
LayerCount: 2
Fore
SplineSet
-30 0 m 1,0,-1
 8 232 l 1,1,-1
 706 232 l 1,2,-1
 774 644 l 1,3,-1
 150 644 l 1,4,-1
 188 874 l 1,5,-1
 812 874 l 1,6,-1
 872 1236 l 1,7,-1
 166 1236 l 1,8,-1
 204 1470 l 1,9,-1
 1178 1470 l 1,10,-1
 934 0 l 1,11,-1
 -30 0 l 1,0,-1
EndSplineSet
EndChar

StartChar: uni018F
Encoding: 399 399 337
Width: 1378
GlyphClass: 2
Flags: W
LayerCount: 2
Fore
SplineSet
90 728 m 0,0,1
 102 798 102 798 116 858 c 1,2,-1
 1080 858 l 1,3,4
 1094 1058 1094 1058 1014 1164 c 128,-1,5
 934 1270 934 1270 792 1270 c 0,6,7
 580 1270 580 1270 410 1066 c 1,8,-1
 198 1158 l 1,9,10
 308 1328 308 1328 473 1415 c 128,-1,11
 638 1502 638 1502 836 1502 c 0,12,13
 1134 1502 1134 1502 1267 1286 c 128,-1,14
 1400 1070 1400 1070 1342 730 c 0,15,16
 1286 392 1286 392 1074 180 c 128,-1,17
 862 -32 862 -32 582 -32 c 0,18,19
 304 -32 304 -32 168 175 c 128,-1,20
 32 382 32 382 90 728 c 0,0,1
354 624 m 1,21,22
 350 604 350 604 350 594 c 0,23,24
 338 428 338 428 405 314 c 128,-1,25
 472 200 472 200 624 200 c 0,26,27
 768 200 768 200 886 316 c 128,-1,28
 1004 432 1004 432 1044 624 c 1,29,-1
 354 624 l 1,21,22
EndSplineSet
EndChar

StartChar: uni0190
Encoding: 400 400 338
Width: 1192
GlyphClass: 2
Flags: W
LayerCount: 2
Fore
SplineSet
42 418 m 0,0,1
 64 556 64 556 157 647 c 128,-1,2
 250 738 250 738 354 774 c 1,3,4
 280 820 280 820 238 910 c 128,-1,5
 196 1000 196 1000 214 1106 c 0,6,7
 244 1286 244 1286 393 1394 c 128,-1,8
 542 1502 542 1502 754 1502 c 0,9,10
 872 1502 872 1502 961 1465 c 128,-1,11
 1050 1428 1050 1428 1098 1369 c 128,-1,12
 1146 1310 1146 1310 1171 1253 c 128,-1,13
 1196 1196 1196 1196 1204 1142 c 1,14,-1
 968 1072 l 1,15,16
 904 1278 904 1278 732 1278 c 0,17,18
 636 1278 636 1278 566 1221 c 128,-1,19
 496 1164 496 1164 482 1080 c 0,20,21
 466 982 466 982 536 923 c 128,-1,22
 606 864 606 864 702 864 c 0,23,24
 814 864 814 864 864 868 c 1,25,-1
 828 646 l 1,26,27
 750 652 750 652 668 652 c 0,28,29
 536 652 536 652 436 588 c 128,-1,30
 336 524 336 524 320 422 c 0,31,32
 302 308 302 308 371 249 c 128,-1,33
 440 190 440 190 560 190 c 0,34,35
 652 190 652 190 749 250 c 128,-1,36
 846 310 846 310 898 388 c 1,37,-1
 1098 310 l 1,38,39
 1012 148 1012 148 858 58 c 128,-1,40
 704 -32 704 -32 508 -32 c 0,41,42
 264 -32 264 -32 136 89 c 128,-1,43
 8 210 8 210 42 418 c 0,0,1
EndSplineSet
EndChar

StartChar: uni0191
Encoding: 401 401 339
Width: 1122
GlyphClass: 2
Flags: W
LayerCount: 2
Fore
SplineSet
-210 -196 m 1,0,1
 -140 -208 -140 -208 -108 -208 c 0,2,3
 -38 -208 -38 -208 4 -158 c 128,-1,4
 46 -108 46 -108 64 4 c 2,5,-1
 306 1470 l 1,6,-1
 1236 1470 l 1,7,-1
 1198 1236 l 1,8,-1
 532 1236 l 1,9,-1
 468 850 l 1,10,-1
 1066 850 l 1,11,-1
 1028 620 l 1,12,-1
 430 620 l 1,13,-1
 328 4 l 2,14,15
 308 -122 308 -122 260 -214 c 128,-1,16
 212 -306 212 -306 150 -352 c 128,-1,17
 88 -398 88 -398 30 -418 c 128,-1,18
 -28 -438 -28 -438 -92 -438 c 0,19,20
 -166 -438 -166 -438 -248 -422 c 1,21,-1
 -210 -196 l 1,0,1
EndSplineSet
EndChar

StartChar: florin
Encoding: 402 402 340
Width: 666
GlyphClass: 2
Flags: W
LayerCount: 2
Fore
SplineSet
-166 -196 m 1,0,1
 -116 -208 -116 -208 -68 -208 c 0,2,3
 66 -208 66 -208 100 6 c 2,4,-1
 242 854 l 1,5,-1
 90 854 l 1,6,-1
 128 1076 l 1,7,-1
 278 1076 l 1,8,-1
 294 1178 l 2,9,10
 322 1346 322 1346 415 1432 c 128,-1,11
 508 1518 508 1518 654 1518 c 2,12,-1
 826 1518 l 1,13,-1
 788 1292 l 1,14,-1
 652 1292 l 2,15,16
 602 1292 602 1292 576 1261 c 128,-1,17
 550 1230 550 1230 538 1162 c 2,18,-1
 524 1076 l 1,19,-1
 730 1076 l 1,20,-1
 692 854 l 1,21,-1
 488 854 l 1,22,-1
 346 6 l 2,23,24
 324 -122 324 -122 280 -213 c 128,-1,25
 236 -304 236 -304 177 -351 c 128,-1,26
 118 -398 118 -398 61 -418 c 128,-1,27
 4 -438 4 -438 -56 -438 c 0,28,29
 -98 -438 -98 -438 -204 -422 c 1,30,-1
 -166 -196 l 1,0,1
EndSplineSet
EndChar

StartChar: uni0194
Encoding: 404 404 342
Width: 1262
GlyphClass: 2
Flags: W
LayerCount: 2
Fore
SplineSet
152 1470 m 1,0,-1
 438 1470 l 1,1,-1
 590 488 l 1,2,-1
 602 396 l 1,3,-1
 604 396 l 1,4,-1
 650 488 l 1,5,-1
 1126 1470 l 1,6,-1
 1412 1470 l 1,7,-1
 784 268 l 1,8,9
 920 64 920 64 892 -100 c 0,10,11
 868 -248 868 -248 747 -343 c 128,-1,12
 626 -438 626 -438 462 -438 c 256,13,14
 298 -438 298 -438 208 -347 c 128,-1,15
 118 -256 118 -256 144 -100 c 0,16,17
 156 -32 156 -32 207 51 c 128,-1,18
 258 134 258 134 289 169 c 128,-1,19
 320 204 320 204 382 268 c 1,20,-1
 152 1470 l 1,0,-1
410 -90 m 0,21,22
 400 -146 400 -146 426 -183 c 128,-1,23
 452 -220 452 -220 498 -220 c 0,24,25
 548 -220 548 -220 584 -183 c 128,-1,26
 620 -146 620 -146 630 -88 c 0,27,28
 646 12 646 12 558 134 c 1,29,30
 428 20 428 20 410 -90 c 0,21,22
EndSplineSet
EndChar

StartChar: uni0195
Encoding: 405 405 343
Width: 1648
GlyphClass: 2
Flags: W
LayerCount: 2
Fore
SplineSet
26 0 m 1,0,-1
 278 1518 l 1,1,-1
 518 1518 l 1,2,-1
 430 986 l 1,3,-1
 432 986 l 1,4,5
 548 1108 548 1108 706 1108 c 0,6,7
 768 1108 768 1108 823 1089 c 128,-1,8
 878 1070 878 1070 921 1026 c 128,-1,9
 964 982 964 982 981 895 c 128,-1,10
 998 808 998 808 978 690 c 2,11,-1
 932 402 l 2,12,13
 916 304 916 304 945 247 c 128,-1,14
 974 190 974 190 1074 190 c 0,15,16
 1244 190 1244 190 1278 402 c 2,17,-1
 1390 1076 l 1,18,-1
 1636 1076 l 1,19,-1
 1518 356 l 2,20,21
 1502 254 1502 254 1453 176 c 128,-1,22
 1404 98 1404 98 1337 54 c 128,-1,23
 1270 10 1270 10 1195 -11 c 128,-1,24
 1120 -32 1120 -32 1038 -32 c 0,25,26
 954 -32 954 -32 887 -15 c 128,-1,27
 820 2 820 2 763 43 c 128,-1,28
 706 84 706 84 683 163 c 128,-1,29
 660 242 660 242 678 354 c 2,30,-1
 730 662 l 2,31,32
 768 886 768 886 622 886 c 0,33,34
 532 886 532 886 459 804 c 128,-1,35
 386 722 386 722 368 610 c 2,36,-1
 266 0 l 1,37,-1
 26 0 l 1,0,-1
EndSplineSet
EndChar

StartChar: uni0196
Encoding: 406 406 344
Width: 694
GlyphClass: 2
Flags: W
LayerCount: 2
Fore
SplineSet
102 330 m 2,0,-1
 292 1470 l 1,1,-1
 558 1470 l 1,2,-1
 372 342 l 2,3,4
 360 266 360 266 379 233 c 128,-1,5
 398 200 398 200 462 200 c 0,6,7
 544 200 544 200 612 212 c 1,8,-1
 574 -14 l 1,9,10
 436 -32 436 -32 372 -32 c 0,11,12
 230 -32 230 -32 150 52 c 128,-1,13
 70 136 70 136 102 330 c 2,0,-1
EndSplineSet
EndChar

StartChar: uni0197
Encoding: 407 407 345
Width: 562
GlyphClass: 2
Flags: W
LayerCount: 2
Fore
SplineSet
28 630 m 1,0,-1
 64 844 l 1,1,-1
 196 844 l 1,2,-1
 298 1470 l 1,3,-1
 566 1470 l 1,4,-1
 462 844 l 1,5,-1
 594 844 l 1,6,-1
 558 630 l 1,7,-1
 426 630 l 1,8,-1
 322 0 l 1,9,-1
 56 0 l 1,10,-1
 160 630 l 1,11,-1
 28 630 l 1,0,-1
EndSplineSet
EndChar

StartChar: uni0198
Encoding: 408 408 346
Width: 1278
GlyphClass: 2
Flags: W
LayerCount: 2
Fore
SplineSet
46 0 m 1,0,-1
 290 1470 l 1,1,-1
 556 1470 l 1,2,-1
 452 840 l 1,3,-1
 456 840 l 1,4,-1
 974 1354 l 2,5,6
 1124 1502 1124 1502 1328 1502 c 0,7,8
 1434 1502 1434 1502 1514 1480 c 1,9,-1
 1476 1244 l 1,10,11
 1392 1270 1392 1270 1300 1270 c 0,12,13
 1218 1270 1218 1270 1172 1226 c 2,14,-1
 760 826 l 1,15,-1
 1190 0 l 1,16,-1
 872 0 l 1,17,-1
 558 634 l 1,18,-1
 390 470 l 1,19,-1
 312 0 l 1,20,-1
 46 0 l 1,0,-1
EndSplineSet
EndChar

StartChar: uni0199
Encoding: 409 409 347
Width: 1004
GlyphClass: 2
Flags: W
LayerCount: 2
Fore
SplineSet
26 0 m 1,0,-1
 232 1238 l 2,1,2
 260 1406 260 1406 373 1495 c 128,-1,3
 486 1584 486 1584 638 1584 c 0,4,5
 706 1584 706 1584 822 1574 c 1,6,-1
 784 1344 l 1,7,8
 724 1354 724 1354 646 1354 c 0,9,10
 582 1354 582 1354 530 1308 c 128,-1,11
 478 1262 478 1262 464 1186 c 2,12,-1
 382 682 l 1,13,-1
 784 1076 l 1,14,-1
 1094 1076 l 1,15,-1
 640 636 l 1,16,-1
 936 0 l 1,17,-1
 646 0 l 1,18,-1
 450 452 l 1,19,-1
 324 330 l 1,20,-1
 268 0 l 1,21,-1
 26 0 l 1,0,-1
EndSplineSet
EndChar

StartChar: uni019A
Encoding: 410 410 348
Width: 508
GlyphClass: 2
Flags: W
LayerCount: 2
Fore
SplineSet
12 744 m 1,0,-1
 48 958 l 1,1,-1
 196 958 l 1,2,-1
 290 1518 l 1,3,-1
 536 1518 l 1,4,-1
 442 958 l 1,5,-1
 590 958 l 1,6,-1
 556 744 l 1,7,-1
 408 744 l 1,8,-1
 284 0 l 1,9,-1
 38 0 l 1,10,-1
 160 744 l 1,11,-1
 12 744 l 1,0,-1
EndSplineSet
EndChar

StartChar: uni019B
Encoding: 411 411 349
Width: 1000
GlyphClass: 2
Flags: W
LayerCount: 2
Fore
SplineSet
-84 0 m 1,0,-1
 466 1038 l 1,1,-1
 460 1072 l 1,2,-1
 232 910 l 1,3,-1
 144 1072 l 1,4,-1
 388 1242 l 1,5,6
 358 1286 358 1286 268 1286 c 2,7,-1
 228 1286 l 1,8,-1
 266 1506 l 1,9,-1
 344 1506 l 2,10,11
 518 1506 518 1506 604 1388 c 1,12,-1
 816 1530 l 1,13,-1
 908 1368 l 1,14,-1
 676 1218 l 1,15,-1
 898 0 l 1,16,-1
 630 0 l 1,17,-1
 566 528 l 2,18,19
 566 536 566 536 558 630 c 128,-1,20
 550 724 550 724 546 770 c 1,21,-1
 542 770 l 1,22,23
 514 700 514 700 440 528 c 1,24,-1
 186 0 l 1,25,-1
 -84 0 l 1,0,-1
EndSplineSet
EndChar

StartChar: uni019C
Encoding: 412 412 350
Width: 1860
GlyphClass: 2
Flags: W
LayerCount: 2
Fore
SplineSet
130 516 m 2,0,-1
 288 1470 l 1,1,-1
 552 1470 l 1,2,-1
 390 484 l 2,3,4
 342 200 342 200 500 200 c 0,5,6
 606 200 606 200 689 305 c 128,-1,7
 772 410 772 410 796 554 c 2,8,-1
 948 1470 l 1,9,-1
 1214 1470 l 1,10,-1
 1050 472 l 2,11,12
 1024 320 1024 320 1061 260 c 128,-1,13
 1098 200 1098 200 1166 200 c 0,14,15
 1276 200 1276 200 1353 297 c 128,-1,16
 1430 394 1430 394 1456 552 c 2,17,-1
 1608 1470 l 1,18,-1
 1872 1470 l 1,19,-1
 1628 0 l 1,20,-1
 1376 0 l 1,21,-1
 1396 130 l 1,22,-1
 1394 130 l 1,23,24
 1332 52 1332 52 1242 9 c 128,-1,25
 1152 -34 1152 -34 1068 -34 c 0,26,27
 942 -34 942 -34 880 16 c 128,-1,28
 818 66 818 66 796 162 c 1,29,30
 736 74 736 74 636 21 c 128,-1,31
 536 -32 536 -32 404 -32 c 0,32,33
 296 -32 296 -32 228 10 c 128,-1,34
 160 52 160 52 135 131 c 128,-1,35
 110 210 110 210 110 303 c 128,-1,36
 110 396 110 396 130 516 c 2,0,-1
EndSplineSet
EndChar

StartChar: uni019D
Encoding: 413 413 351
Width: 1376
GlyphClass: 2
Flags: W
LayerCount: 2
Fore
SplineSet
306 1470 m 1,0,-1
 580 1470 l 1,1,-1
 874 670 l 1,2,-1
 964 410 l 1,3,-1
 974 410 l 1,4,5
 998 722 998 722 1016 834 c 2,6,-1
 1122 1470 l 1,7,-1
 1388 1470 l 1,8,-1
 1146 0 l 1,9,-1
 870 0 l 1,10,-1
 574 788 l 1,11,-1
 486 1058 l 1,12,-1
 476 1058 l 1,13,14
 464 808 464 808 434 630 c 2,15,-1
 332 8 l 2,16,17
 316 -94 316 -94 279 -175 c 128,-1,18
 242 -256 242 -256 199 -304 c 128,-1,19
 156 -352 156 -352 103 -383 c 128,-1,20
 50 -414 50 -414 2 -426 c 128,-1,21
 -46 -438 -46 -438 -94 -438 c 0,22,23
 -164 -438 -164 -438 -246 -422 c 1,24,-1
 -208 -196 l 1,25,26
 -164 -206 -164 -206 -110 -206 c 0,27,28
 -40 -206 -40 -206 3 -155 c 128,-1,29
 46 -104 46 -104 64 10 c 2,30,-1
 306 1470 l 1,0,-1
EndSplineSet
EndChar

StartChar: uni019E
Encoding: 414 414 352
Width: 1068
GlyphClass: 2
Flags: W
LayerCount: 2
Fore
SplineSet
16 0 m 1,0,-1
 194 1076 l 1,1,-1
 428 1076 l 1,2,-1
 410 960 l 1,3,-1
 412 960 l 1,4,5
 524 1108 524 1108 708 1108 c 0,6,7
 1040 1108 1040 1108 972 690 c 2,8,-1
 786 -430 l 1,9,-1
 542 -430 l 1,10,-1
 722 660 l 2,11,12
 760 886 760 886 616 886 c 0,13,14
 526 886 526 886 454 809 c 128,-1,15
 382 732 382 732 364 618 c 2,16,-1
 262 0 l 1,17,-1
 16 0 l 1,0,-1
EndSplineSet
EndChar

StartChar: uni019F
Encoding: 415 415 353
Width: 1376
GlyphClass: 2
Flags: W
LayerCount: 2
Fore
SplineSet
94 734 m 256,0,1
 152 1080 152 1080 358 1291 c 128,-1,2
 564 1502 564 1502 844 1502 c 0,3,4
 1126 1502 1126 1502 1262 1291 c 128,-1,5
 1398 1080 1398 1080 1342 734 c 256,6,7
 1284 388 1284 388 1078 178 c 128,-1,8
 872 -32 872 -32 590 -32 c 256,9,10
 308 -32 308 -32 172 178 c 128,-1,11
 36 388 36 388 94 734 c 256,0,1
1040 618 m 1,12,-1
 354 618 l 1,13,14
 344 420 344 420 414 310 c 128,-1,15
 484 200 484 200 628 200 c 256,16,17
 772 200 772 200 880 311 c 128,-1,18
 988 422 988 422 1040 618 c 1,12,-1
390 830 m 1,19,-1
 1078 830 l 1,20,21
 1090 1036 1090 1036 1021 1153 c 128,-1,22
 952 1270 952 1270 806 1270 c 256,23,24
 658 1270 658 1270 551 1154 c 128,-1,25
 444 1038 444 1038 390 830 c 1,19,-1
EndSplineSet
EndChar

StartChar: uni01A2
Encoding: 418 418 356
Width: 1864
GlyphClass: 2
Flags: W
LayerCount: 2
Fore
SplineSet
92 732 m 0,0,1
 150 1080 150 1080 356 1291 c 128,-1,2
 562 1502 562 1502 840 1502 c 0,3,4
 908 1502 908 1502 1103 1462 c 128,-1,5
 1298 1422 1298 1422 1402 1422 c 0,6,7
 1632 1422 1632 1422 1876 1470 c 1,8,-1
 1634 0 l 1,9,-1
 1368 0 l 1,10,-1
 1568 1206 l 1,11,12
 1486 1188 1486 1188 1364 1188 c 0,13,14
 1302 1188 1302 1188 1200 1204 c 1,15,-1
 1022 126 l 1,16,17
 830 -32 830 -32 586 -32 c 0,18,19
 306 -32 306 -32 171 178 c 128,-1,20
 36 388 36 388 92 732 c 0,0,1
368 732 m 0,21,22
 328 486 328 486 395 343 c 128,-1,23
 462 200 462 200 624 200 c 0,24,25
 694 200 694 200 774 236 c 1,26,-1
 940 1244 l 1,27,28
 864 1270 864 1270 802 1270 c 0,29,30
 642 1270 642 1270 526 1125 c 128,-1,31
 410 980 410 980 368 732 c 0,21,22
EndSplineSet
EndChar

StartChar: uni01A3
Encoding: 419 419 357
Width: 1414
GlyphClass: 2
Flags: W
LayerCount: 2
Fore
SplineSet
52 536 m 0,0,1
 96 804 96 804 247 956 c 128,-1,2
 398 1108 398 1108 616 1108 c 0,3,4
 692 1108 692 1108 833 1080 c 128,-1,5
 974 1052 974 1052 1036 1052 c 0,6,7
 1208 1052 1208 1052 1394 1090 c 1,8,-1
 1214 0 l 1,9,-1
 970 0 l 1,10,-1
 1108 834 l 1,11,12
 1066 828 1066 828 996 828 c 0,13,14
 940 828 940 828 892 834 c 1,15,-1
 770 98 l 1,16,17
 630 -32 630 -32 428 -32 c 0,18,19
 210 -32 210 -32 109 120 c 128,-1,20
 8 272 8 272 52 536 c 0,0,1
304 536 m 0,21,22
 276 370 276 370 321 280 c 128,-1,23
 366 190 366 190 464 190 c 0,24,25
 492 190 492 190 546 224 c 1,26,-1
 654 874 l 1,27,28
 602 886 602 886 580 886 c 0,29,30
 478 886 478 886 405 795 c 128,-1,31
 332 704 332 704 304 536 c 0,21,22
EndSplineSet
EndChar

StartChar: uni01A5
Encoding: 421 421 359
Width: 1096
GlyphClass: 2
Flags: W
LayerCount: 2
Fore
SplineSet
356 538 m 0,0,1
 330 378 330 378 371 284 c 128,-1,2
 412 190 412 190 512 190 c 0,3,4
 610 190 610 190 684 282 c 128,-1,5
 758 374 758 374 786 538 c 0,6,7
 812 696 812 696 772 791 c 128,-1,8
 732 886 732 886 628 886 c 0,9,10
 526 886 526 886 454 790 c 128,-1,11
 382 694 382 694 356 538 c 0,0,1
-46 -430 m 1,12,-1
 222 1184 l 2,13,14
 250 1354 250 1354 363 1443 c 128,-1,15
 476 1532 476 1532 628 1532 c 0,16,17
 688 1532 688 1532 804 1522 c 1,18,-1
 766 1292 l 1,19,20
 710 1298 710 1298 634 1298 c 0,21,22
 570 1298 570 1298 519 1254 c 128,-1,23
 468 1210 468 1210 454 1136 c 2,24,-1
 426 966 l 1,25,26
 542 1108 542 1108 700 1108 c 0,27,28
 886 1108 886 1108 983 955 c 128,-1,29
 1080 802 1080 802 1038 538 c 0,30,31
 1014 388 1014 388 954 273 c 128,-1,32
 894 158 894 158 818 94 c 128,-1,33
 742 30 742 30 664 -1 c 128,-1,34
 586 -32 586 -32 512 -32 c 0,35,36
 414 -32 414 -32 360 10 c 128,-1,37
 306 52 306 52 286 104 c 1,38,-1
 198 -430 l 1,39,-1
 -46 -430 l 1,12,-1
EndSplineSet
EndChar

StartChar: uni01A6
Encoding: 422 422 360
Width: 1288
GlyphClass: 2
Flags: W
LayerCount: 2
Fore
SplineSet
412 652 m 1,0,-1
 696 652 l 2,1,2
 922 652 922 652 958 870 c 0,3,4
 990 1060 990 1060 764 1060 c 2,5,-1
 480 1060 l 1,6,-1
 412 652 l 1,0,-1
38 0 m 1,7,-1
 280 1470 l 1,8,-1
 546 1470 l 1,9,-1
 518 1292 l 1,10,-1
 848 1292 l 2,11,12
 1070 1292 1070 1292 1167 1177 c 128,-1,13
 1264 1062 1264 1062 1236 892 c 0,14,15
 1196 646 1196 646 962 528 c 1,16,17
 1006 490 1006 490 1027 448 c 128,-1,18
 1048 406 1048 406 1053 372 c 128,-1,19
 1058 338 1058 338 1060 266 c 0,20,21
 1070 30 1070 30 1152 -172 c 1,22,-1
 852 -172 l 1,23,24
 842 -148 842 -148 832 -122 c 128,-1,25
 822 -96 822 -96 816 -69 c 128,-1,26
 810 -42 810 -42 805 -21 c 128,-1,27
 800 0 800 0 796 30 c 128,-1,28
 792 60 792 60 789 77 c 128,-1,29
 786 94 786 94 784 125 c 128,-1,30
 782 156 782 156 781 167 c 128,-1,31
 780 178 780 178 778 210 c 128,-1,32
 776 242 776 242 776 246 c 0,33,34
 770 344 770 344 748 384 c 128,-1,35
 726 424 726 424 654 424 c 2,36,-1
 374 424 l 1,37,-1
 304 0 l 1,38,-1
 38 0 l 1,7,-1
EndSplineSet
EndChar

StartChar: uni01A7
Encoding: 423 423 361
Width: 1178
GlyphClass: 2
Flags: W
LayerCount: 2
Fore
SplineSet
20 406 m 0,0,1
 34 496 34 496 79 569 c 128,-1,2
 124 642 124 642 193 692 c 128,-1,3
 262 742 262 742 329 773 c 128,-1,4
 396 804 396 804 482 830 c 0,5,6
 504 838 504 838 549 852 c 128,-1,7
 594 866 594 866 616 872 c 128,-1,8
 638 878 638 878 676 892 c 128,-1,9
 714 906 714 906 736 916 c 128,-1,10
 758 926 758 926 786 940 c 128,-1,11
 814 954 814 954 832 969 c 128,-1,12
 850 984 850 984 867 1003 c 128,-1,13
 884 1022 884 1022 894 1044 c 128,-1,14
 904 1066 904 1066 908 1092 c 0,15,16
 922 1172 922 1172 867 1221 c 128,-1,17
 812 1270 812 1270 702 1270 c 0,18,19
 528 1270 528 1270 372 1102 c 1,20,-1
 162 1178 l 1,21,22
 252 1320 252 1320 401 1411 c 128,-1,23
 550 1502 550 1502 740 1502 c 0,24,25
 968 1502 968 1502 1092 1389 c 128,-1,26
 1216 1276 1216 1276 1184 1092 c 0,27,28
 1170 1010 1170 1010 1129 942 c 128,-1,29
 1088 874 1088 874 1050 836 c 128,-1,30
 1012 798 1012 798 926 756 c 128,-1,31
 840 714 840 714 804 701 c 128,-1,32
 768 688 768 688 664 656 c 0,33,34
 638 646 638 646 626 642 c 0,35,36
 554 620 554 620 507 600 c 128,-1,37
 460 580 460 580 411 551 c 128,-1,38
 362 522 362 522 334 483 c 128,-1,39
 306 444 306 444 296 394 c 0,40,41
 282 310 282 310 341 254 c 128,-1,42
 400 198 400 198 510 198 c 0,43,44
 612 198 612 198 719 257 c 128,-1,45
 826 316 826 316 888 404 c 1,46,-1
 1106 324 l 1,47,48
 1008 160 1008 160 839 64 c 128,-1,49
 670 -32 670 -32 478 -32 c 0,50,51
 248 -32 248 -32 117 83 c 128,-1,52
 -14 198 -14 198 20 406 c 0,0,1
EndSplineSet
EndChar

StartChar: uni01A8
Encoding: 424 424 362
Width: 918
GlyphClass: 2
Flags: W
LayerCount: 2
Fore
SplineSet
4 300 m 0,0,1
 16 368 16 368 51 421 c 128,-1,2
 86 474 86 474 141 511 c 128,-1,3
 196 548 196 548 244 571 c 128,-1,4
 292 594 292 594 358 618 c 0,5,6
 372 620 372 620 401 630 c 128,-1,7
 430 640 430 640 444 644 c 128,-1,8
 458 648 458 648 481 657 c 128,-1,9
 504 666 504 666 517 673 c 128,-1,10
 530 680 530 680 549 689 c 128,-1,11
 568 698 568 698 578 707 c 128,-1,12
 588 716 588 716 600 728 c 128,-1,13
 612 740 612 740 617 753 c 128,-1,14
 622 766 622 766 626 782 c 0,15,16
 634 832 634 832 601 860 c 128,-1,17
 568 888 568 888 504 888 c 0,18,19
 374 888 374 888 246 752 c 1,20,-1
 98 858 l 1,21,22
 174 968 174 968 292 1038 c 128,-1,23
 410 1108 410 1108 546 1108 c 0,24,25
 708 1108 708 1108 804 1020 c 128,-1,26
 900 932 900 932 876 780 c 0,27,28
 856 656 856 656 764 585 c 128,-1,29
 672 514 672 514 534 470 c 0,30,31
 518 464 518 464 480 452 c 128,-1,32
 442 440 442 440 424 434 c 128,-1,33
 406 428 406 428 376 416 c 128,-1,34
 346 404 346 404 330 394 c 128,-1,35
 314 384 314 384 296 369 c 128,-1,36
 278 354 278 354 269 337 c 128,-1,37
 260 320 260 320 256 300 c 0,38,39
 248 248 248 248 282 218 c 128,-1,40
 316 188 316 188 380 188 c 0,41,42
 538 188 538 188 668 338 c 1,43,-1
 826 230 l 1,44,45
 746 116 746 116 619 42 c 128,-1,46
 492 -32 492 -32 344 -32 c 0,47,48
 148 -32 148 -32 64 63 c 128,-1,49
 -20 158 -20 158 4 300 c 0,0,1
EndSplineSet
EndChar

StartChar: uni01A9
Encoding: 425 425 363
Width: 1200
GlyphClass: 2
Flags: W
LayerCount: 2
Fore
SplineSet
36 0 m 1,0,-1
 64 176 l 1,1,-1
 658 738 l 1,2,-1
 250 1292 l 1,3,-1
 278 1470 l 1,4,-1
 1260 1470 l 1,5,-1
 1222 1234 l 1,6,-1
 616 1234 l 1,7,-1
 960 738 l 1,8,-1
 450 232 l 1,9,-1
 1070 232 l 1,10,-1
 1030 0 l 1,11,-1
 36 0 l 1,0,-1
EndSplineSet
EndChar

StartChar: uni01AA
Encoding: 426 426 364
Width: 850
GlyphClass: 2
Flags: W
LayerCount: 2
Fore
SplineSet
216 1186 m 0,0,1
 208 1134 208 1134 235 1105 c 128,-1,2
 262 1076 262 1076 302 1076 c 0,3,4
 370 1076 370 1076 422 1120 c 1,5,6
 436 1202 436 1202 415 1249 c 128,-1,7
 394 1296 394 1296 342 1296 c 0,8,9
 296 1296 296 1296 260 1265 c 128,-1,10
 224 1234 224 1234 216 1186 c 0,0,1
-12 1176 m 0,11,12
 12 1322 12 1322 120 1412 c 128,-1,13
 228 1502 228 1502 384 1502 c 0,14,15
 546 1502 546 1502 617 1396 c 128,-1,16
 688 1290 688 1290 656 1102 c 2,17,-1
 464 -60 l 2,18,19
 440 -208 440 -208 560 -208 c 0,20,21
 588 -208 588 -208 704 -192 c 1,22,-1
 666 -420 l 1,23,24
 496 -438 496 -438 470 -438 c 0,25,26
 334 -438 334 -438 259 -354 c 128,-1,27
 184 -270 184 -270 216 -78 c 2,28,-1
 380 906 l 1,29,30
 334 866 334 866 230 866 c 0,31,32
 104 866 104 866 35 953 c 128,-1,33
 -34 1040 -34 1040 -12 1176 c 0,11,12
EndSplineSet
EndChar

StartChar: uni01AB
Encoding: 427 427 365
Width: 696
GlyphClass: 2
Flags: W
LayerCount: 2
Fore
SplineSet
76 854 m 1,0,-1
 114 1076 l 1,1,-1
 266 1076 l 1,2,-1
 316 1388 l 1,3,-1
 562 1388 l 1,4,-1
 510 1076 l 1,5,-1
 728 1076 l 1,6,-1
 690 854 l 1,7,-1
 472 854 l 1,8,-1
 390 354 l 2,9,10
 368 222 368 222 476 222 c 0,11,12
 530 222 530 222 606 234 c 1,13,-1
 572 28 l 2,14,15
 534 -200 534 -200 423 -319 c 128,-1,16
 312 -438 312 -438 146 -438 c 0,17,18
 64 -438 64 -438 -2 -424 c 1,19,-1
 36 -194 l 1,20,21
 116 -208 116 -208 156 -208 c 0,22,23
 214 -208 214 -208 261 -162 c 128,-1,24
 308 -116 308 -116 326 -14 c 1,25,-1
 332 10 l 1,26,27
 258 30 258 30 246 34 c 0,28,29
 104 106 104 106 142 336 c 2,30,-1
 228 854 l 1,31,-1
 76 854 l 1,0,-1
EndSplineSet
EndChar

StartChar: uni01AC
Encoding: 428 428 366
Width: 1242
GlyphClass: 2
Flags: W
LayerCount: 2
Fore
SplineSet
22 1122 m 0,0,1
 52 1302 52 1302 183 1386 c 128,-1,2
 314 1470 314 1470 488 1470 c 2,3,-1
 1376 1470 l 1,4,-1
 1338 1236 l 1,5,-1
 930 1236 l 1,6,-1
 724 0 l 1,7,-1
 456 0 l 1,8,-1
 660 1236 l 1,9,-1
 450 1236 l 2,10,11
 366 1236 366 1236 315 1199 c 128,-1,12
 264 1162 264 1162 254 1102 c 0,13,14
 246 1054 246 1054 250 998 c 1,15,-1
 16 998 l 1,16,17
 12 1058 12 1058 22 1122 c 0,0,1
EndSplineSet
EndChar

StartChar: uni01AD
Encoding: 429 429 367
Width: 700
GlyphClass: 2
Flags: W
LayerCount: 2
Fore
SplineSet
76 854 m 1,0,-1
 114 1076 l 1,1,-1
 266 1076 l 1,2,-1
 282 1172 l 2,3,4
 310 1340 310 1340 423 1430 c 128,-1,5
 536 1520 536 1520 688 1520 c 0,6,7
 774 1520 774 1520 870 1510 c 1,8,-1
 832 1280 l 1,9,10
 784 1288 784 1288 696 1288 c 0,11,12
 626 1288 626 1288 579 1247 c 128,-1,13
 532 1206 532 1206 520 1138 c 2,14,-1
 510 1076 l 1,15,-1
 730 1076 l 1,16,-1
 694 854 l 1,17,-1
 472 854 l 1,18,-1
 390 354 l 2,19,20
 368 222 368 222 476 222 c 2,21,-1
 590 222 l 1,22,-1
 554 0 l 1,23,-1
 410 0 l 2,24,25
 86 0 86 0 142 336 c 2,26,-1
 228 854 l 1,27,-1
 76 854 l 1,0,-1
EndSplineSet
EndChar

StartChar: uni01AE
Encoding: 430 430 368
Width: 1116
GlyphClass: 2
Flags: W
LayerCount: 2
Fore
SplineSet
128 1236 m 1,0,-1
 168 1470 l 1,1,-1
 1250 1470 l 1,2,-1
 1210 1236 l 1,3,-1
 804 1236 l 1,4,-1
 598 0 l 2,5,6
 564 -208 564 -208 704 -208 c 0,7,8
 728 -208 728 -208 806 -196 c 1,9,-1
 768 -422 l 1,10,11
 652 -438 652 -438 610 -438 c 0,12,13
 548 -438 548 -438 495 -419 c 128,-1,14
 442 -400 442 -400 395 -354 c 128,-1,15
 348 -308 348 -308 330 -217 c 128,-1,16
 312 -126 312 -126 332 0 c 2,17,-1
 536 1236 l 1,18,-1
 128 1236 l 1,0,-1
EndSplineSet
EndChar

StartChar: uni01B1
Encoding: 433 433 371
Width: 1420
GlyphClass: 2
Flags: W
LayerCount: 2
Fore
SplineSet
74 616 m 0,0,1
 108 820 108 820 231 968 c 128,-1,2
 354 1116 354 1116 548 1186 c 1,3,-1
 556 1236 l 1,4,-1
 202 1236 l 1,5,-1
 240 1470 l 1,6,-1
 794 1470 l 1,7,-1
 722 1038 l 1,8,9
 562 996 562 996 470 881 c 128,-1,10
 378 766 378 766 354 616 c 0,11,12
 326 446 326 446 404 325 c 128,-1,13
 482 204 482 204 650 204 c 0,14,15
 814 204 814 204 936 324 c 128,-1,16
 1058 444 1058 444 1086 616 c 0,17,18
 1110 760 1110 760 1057 877 c 128,-1,19
 1004 994 1004 994 858 1038 c 1,20,-1
 930 1470 l 1,21,-1
 1482 1470 l 1,22,-1
 1442 1236 l 1,23,-1
 1088 1236 l 1,24,-1
 1080 1186 l 1,25,26
 1252 1120 1252 1120 1326 970 c 128,-1,27
 1400 820 1400 820 1368 616 c 0,28,29
 1320 332 1320 332 1115 150 c 128,-1,30
 910 -32 910 -32 612 -32 c 0,31,32
 316 -32 316 -32 171 150 c 128,-1,33
 26 332 26 332 74 616 c 0,0,1
EndSplineSet
EndChar

StartChar: uni01B2
Encoding: 434 434 372
Width: 1380
GlyphClass: 2
Flags: W
LayerCount: 2
Fore
SplineSet
128 528 m 2,0,-1
 284 1470 l 1,1,-1
 550 1470 l 1,2,-1
 400 556 l 2,3,4
 366 352 366 352 412 276 c 128,-1,5
 458 200 458 200 576 200 c 0,6,7
 732 200 732 200 886 380 c 128,-1,8
 1040 560 1040 560 1086 836 c 0,9,10
 1122 1054 1122 1054 1085 1162 c 128,-1,11
 1048 1270 1048 1270 960 1270 c 0,12,13
 892 1270 892 1270 796 1240 c 1,14,-1
 836 1482 l 1,15,16
 936 1502 936 1502 1038 1502 c 0,17,18
 1252 1502 1252 1502 1334 1331 c 128,-1,19
 1416 1160 1416 1160 1364 840 c 0,20,21
 1336 672 1336 672 1263 516 c 128,-1,22
 1190 360 1190 360 1084 238 c 128,-1,23
 978 116 978 116 835 42 c 128,-1,24
 692 -32 692 -32 538 -32 c 0,25,26
 278 -32 278 -32 179 105 c 128,-1,27
 80 242 80 242 128 528 c 2,0,-1
EndSplineSet
EndChar

StartChar: uni01B3
Encoding: 435 435 373
Width: 1254
GlyphClass: 2
Flags: W
LayerCount: 2
Fore
SplineSet
146 1470 m 1,0,-1
 450 1470 l 1,1,-1
 594 1026 l 2,2,3
 612 974 612 974 662 804 c 1,4,-1
 670 804 l 1,5,6
 762 950 762 950 816 1030 c 2,7,-1
 978 1276 l 2,8,9
 1124 1502 1124 1502 1310 1502 c 0,10,11
 1372 1502 1372 1502 1452 1494 c 1,12,-1
 1412 1262 l 1,13,14
 1372 1270 1372 1270 1306 1270 c 0,15,16
 1258 1270 1258 1270 1160 1132 c 2,17,-1
 766 596 l 1,18,-1
 666 0 l 1,19,-1
 400 0 l 1,20,-1
 498 596 l 1,21,-1
 146 1470 l 1,0,-1
EndSplineSet
EndChar

StartChar: uni01B4
Encoding: 436 436 374
Width: 1002
GlyphClass: 2
Flags: W
LayerCount: 2
Fore
SplineSet
96 1076 m 1,0,-1
 364 1076 l 1,1,-1
 438 548 l 2,2,3
 458 348 458 348 466 304 c 1,4,-1
 468 304 l 1,5,6
 522 434 522 434 572 546 c 2,7,-1
 738 916 l 2,8,9
 816 1102 816 1102 1034 1102 c 0,10,11
 1054 1102 1054 1102 1176 1084 c 1,12,-1
 1136 850 l 1,13,14
 1088 868 1088 868 1044 868 c 0,15,16
 968 868 968 868 934 800 c 2,17,-1
 466 -114 l 2,18,19
 380 -284 380 -284 273 -357 c 128,-1,20
 166 -430 166 -430 28 -430 c 2,21,-1
 -50 -430 l 1,22,-1
 -14 -212 l 1,23,-1
 22 -212 l 2,24,25
 100 -212 100 -212 157 -175 c 128,-1,26
 214 -138 214 -138 256 -52 c 2,27,-1
 302 38 l 1,28,-1
 96 1076 l 1,0,-1
EndSplineSet
EndChar

StartChar: uni01B5
Encoding: 437 437 375
Width: 1170
GlyphClass: 2
Flags: W
LayerCount: 2
Fore
SplineSet
166 618 m 1,0,-1
 200 830 l 1,1,-1
 540 830 l 1,2,-1
 888 1236 l 1,3,-1
 220 1236 l 1,4,-1
 260 1470 l 1,5,-1
 1256 1470 l 1,6,-1
 1224 1268 l 1,7,-1
 848 830 l 1,8,-1
 1024 830 l 1,9,-1
 988 618 l 1,10,-1
 658 618 l 1,11,-1
 324 232 l 1,12,-1
 1072 232 l 1,13,-1
 1034 0 l 1,14,-1
 -44 0 l 1,15,-1
 -12 198 l 1,16,-1
 352 618 l 1,17,-1
 166 618 l 1,0,-1
EndSplineSet
EndChar

StartChar: uni01B6
Encoding: 438 438 376
Width: 930
GlyphClass: 2
Flags: W
LayerCount: 2
Fore
SplineSet
-54 0 m 1,0,-1
 -26 172 l 1,1,-1
 218 440 l 1,2,-1
 90 440 l 1,3,-1
 124 654 l 1,4,-1
 414 654 l 1,5,-1
 594 854 l 1,6,-1
 128 854 l 1,7,-1
 164 1076 l 1,8,-1
 956 1076 l 1,9,-1
 930 912 l 1,10,-1
 692 654 l 1,11,-1
 828 654 l 1,12,-1
 792 440 l 1,13,-1
 500 440 l 1,14,-1
 304 222 l 1,15,-1
 836 222 l 1,16,-1
 800 0 l 1,17,-1
 -54 0 l 1,0,-1
EndSplineSet
EndChar

StartChar: uni01B7
Encoding: 439 439 377
Width: 1358
GlyphClass: 2
Flags: W
LayerCount: 2
Fore
SplineSet
-10 10 m 1,0,-1
 236 98 l 1,1,2
 250 -24 250 -24 324 -112 c 128,-1,3
 398 -200 398 -200 542 -200 c 0,4,5
 696 -200 696 -200 807 -95 c 128,-1,6
 918 10 918 10 946 180 c 0,7,8
 976 356 976 356 884 466 c 128,-1,9
 792 576 792 576 612 576 c 2,10,-1
 398 576 l 1,11,-1
 434 784 l 1,12,-1
 904 1236 l 1,13,-1
 260 1236 l 1,14,-1
 298 1470 l 1,15,-1
 1346 1470 l 1,16,-1
 1320 1312 l 1,17,-1
 778 800 l 1,18,-1
 802 796 l 2,19,20
 1026 758 1026 758 1144 595 c 128,-1,21
 1262 432 1262 432 1222 180 c 0,22,23
 1178 -88 1178 -88 979 -260 c 128,-1,24
 780 -432 780 -432 512 -432 c 0,25,26
 380 -432 380 -432 281 -394 c 128,-1,27
 182 -356 182 -356 124 -288 c 128,-1,28
 66 -220 66 -220 34 -147 c 128,-1,29
 2 -74 2 -74 -10 10 c 1,0,-1
EndSplineSet
EndChar

StartChar: uni01B8
Encoding: 440 440 378
Width: 1358
GlyphClass: 2
Flags: W
LayerCount: 2
Fore
SplineSet
8 180 m 0,0,1
 50 432 50 432 226 598 c 128,-1,2
 402 764 402 764 634 796 c 2,3,-1
 658 800 l 1,4,-1
 286 1312 l 1,5,-1
 312 1470 l 1,6,-1
 1360 1470 l 1,7,-1
 1322 1236 l 1,8,-1
 676 1236 l 1,9,-1
 996 784 l 1,10,-1
 962 576 l 1,11,-1
 750 576 l 2,12,13
 570 576 570 576 442 466 c 128,-1,14
 314 356 314 356 284 180 c 0,15,16
 256 10 256 10 332 -95 c 128,-1,17
 408 -200 408 -200 562 -200 c 0,18,19
 708 -200 708 -200 811 -112 c 128,-1,20
 914 -24 914 -24 970 98 c 1,21,-1
 1188 10 l 1,22,23
 1146 -74 1146 -74 1090 -147 c 128,-1,24
 1034 -220 1034 -220 953 -288 c 128,-1,25
 872 -356 872 -356 759 -394 c 128,-1,26
 646 -432 646 -432 516 -432 c 0,27,28
 248 -432 248 -432 106 -260 c 128,-1,29
 -36 -88 -36 -88 8 180 c 0,0,1
EndSplineSet
EndChar

StartChar: uni01B9
Encoding: 441 441 379
Width: 1108
GlyphClass: 2
Flags: W
LayerCount: 2
Fore
SplineSet
-16 68 m 0,0,1
 14 246 14 246 149 385 c 128,-1,2
 284 524 284 524 458 546 c 2,3,-1
 472 548 l 1,4,-1
 190 916 l 1,5,-1
 218 1076 l 1,6,-1
 1064 1076 l 1,7,-1
 1028 854 l 1,8,-1
 548 854 l 1,9,-1
 780 532 l 1,10,-1
 752 354 l 1,11,-1
 566 354 l 2,12,13
 430 354 430 354 344 272 c 128,-1,14
 258 190 258 190 238 68 c 0,15,16
 218 -52 218 -52 272 -134 c 128,-1,17
 326 -216 326 -216 438 -216 c 0,18,19
 542 -216 542 -216 619 -143 c 128,-1,20
 696 -70 696 -70 732 28 c 1,21,-1
 942 -32 l 1,22,23
 876 -202 876 -202 732 -320 c 128,-1,24
 588 -438 588 -438 394 -438 c 0,25,26
 174 -438 174 -438 61 -292 c 128,-1,27
 -52 -146 -52 -146 -16 68 c 0,0,1
EndSplineSet
EndChar

StartChar: uni01BA
Encoding: 442 442 380
Width: 836
GlyphClass: 2
Flags: W
LayerCount: 2
Fore
SplineSet
-52 -116 m 0,0,1
 -40 -40 -40 -40 18 27 c 128,-1,2
 76 94 76 94 148 138 c 128,-1,3
 220 182 220 182 293 221 c 128,-1,4
 366 260 366 260 418 296 c 128,-1,5
 470 332 470 332 476 368 c 0,6,7
 484 414 484 414 426 443 c 128,-1,8
 368 472 368 472 264 472 c 2,9,-1
 198 472 l 1,10,-1
 220 608 l 1,11,-1
 512 854 l 1,12,-1
 114 854 l 1,13,-1
 152 1076 l 1,14,-1
 866 1076 l 1,15,-1
 838 904 l 1,16,-1
 500 620 l 1,17,-1
 536 618 l 2,18,19
 630 608 630 608 689 551 c 128,-1,20
 748 494 748 494 728 380 c 0,21,22
 716 306 716 306 660 243 c 128,-1,23
 604 180 604 180 532 136 c 128,-1,24
 460 92 460 92 386 53 c 128,-1,25
 312 14 312 14 261 -24 c 128,-1,26
 210 -62 210 -62 204 -98 c 0,27,28
 188 -190 188 -190 308 -190 c 0,29,30
 390 -190 390 -190 526 -158 c 1,31,-1
 488 -386 l 1,32,33
 324 -412 324 -412 234 -412 c 0,34,35
 84 -412 84 -412 4 -335 c 128,-1,36
 -76 -258 -76 -258 -52 -116 c 0,0,1
EndSplineSet
EndChar

StartChar: uni01BB
Encoding: 443 443 381
Width: 1074
GlyphClass: 2
Flags: W
LayerCount: 2
Fore
SplineSet
182 598 m 1,0,-1
 218 812 l 1,1,-1
 630 812 l 1,2,3
 762 936 762 936 788 1080 c 0,4,5
 804 1178 804 1178 760 1228 c 128,-1,6
 716 1278 716 1278 650 1278 c 0,7,8
 646 1278 646 1278 644 1278 c 0,9,10
 556 1276 556 1276 490 1214 c 128,-1,11
 424 1152 424 1152 368 1028 c 1,12,-1
 156 1098 l 1,13,14
 224 1276 224 1276 358 1389 c 128,-1,15
 492 1502 492 1502 690 1502 c 0,16,17
 886 1502 886 1502 989 1385 c 128,-1,18
 1092 1268 1092 1268 1060 1070 c 0,19,20
 1038 940 1038 940 938 812 c 1,21,-1
 1078 812 l 1,22,-1
 1042 598 l 1,23,-1
 724 598 l 1,24,25
 708 584 708 584 662 544 c 128,-1,26
 616 504 616 504 596 487 c 128,-1,27
 576 470 576 470 536 432 c 128,-1,28
 496 394 496 394 471 368 c 128,-1,29
 446 342 446 342 414 302 c 128,-1,30
 382 262 382 262 352 222 c 1,31,-1
 914 222 l 1,32,-1
 876 0 l 1,33,-1
 -8 0 l 1,34,35
 20 164 20 164 122 307 c 128,-1,36
 224 450 224 450 384 598 c 1,37,-1
 182 598 l 1,0,-1
EndSplineSet
EndChar

StartChar: uni01BC
Encoding: 444 444 382
Width: 1160
GlyphClass: 2
Flags: W
LayerCount: 2
Fore
SplineSet
30 284 m 1,0,-1
 260 362 l 1,1,2
 282 284 282 284 342 237 c 128,-1,3
 402 190 402 190 492 190 c 0,4,5
 602 190 602 190 682 263 c 128,-1,6
 762 336 762 336 782 456 c 0,7,8
 800 564 800 564 735 644 c 128,-1,9
 670 724 670 724 524 724 c 0,10,11
 392 724 392 724 244 686 c 1,12,-1
 408 1240 l 1,13,-1
 322 1240 l 1,14,-1
 360 1470 l 1,15,-1
 1154 1470 l 1,16,-1
 1116 1236 l 1,17,-1
 654 1236 l 1,18,-1
 568 940 l 1,19,20
 602 946 602 946 662 946 c 0,21,22
 874 946 874 946 985 811 c 128,-1,23
 1096 676 1096 676 1060 464 c 0,24,25
 1044 370 1044 370 1000 285 c 128,-1,26
 956 200 956 200 884 127 c 128,-1,27
 812 54 812 54 703 11 c 128,-1,28
 594 -32 594 -32 466 -32 c 0,29,30
 286 -32 286 -32 172 57 c 128,-1,31
 58 146 58 146 30 284 c 1,0,-1
EndSplineSet
EndChar

StartChar: uni01BD
Encoding: 445 445 383
Width: 918
GlyphClass: 2
Flags: W
LayerCount: 2
Fore
SplineSet
16 228 m 1,0,-1
 230 318 l 1,1,2
 244 260 244 260 283 224 c 128,-1,3
 322 188 322 188 374 188 c 0,4,5
 444 188 444 188 494 230 c 128,-1,6
 544 272 544 272 556 342 c 0,7,8
 566 402 566 402 525 453 c 128,-1,9
 484 504 484 504 394 504 c 0,10,11
 288 504 288 504 164 480 c 1,12,-1
 282 856 l 1,13,-1
 222 856 l 1,14,-1
 258 1076 l 1,15,-1
 854 1076 l 1,16,-1
 818 854 l 1,17,-1
 494 854 l 1,18,-1
 452 724 l 1,19,-1
 498 726 l 2,20,21
 664 726 664 726 750 619 c 128,-1,22
 836 512 836 512 810 354 c 0,23,24
 784 200 784 200 664 84 c 128,-1,25
 544 -32 544 -32 338 -32 c 0,26,27
 88 -32 88 -32 16 228 c 1,0,-1
EndSplineSet
EndChar

StartChar: uni01BE
Encoding: 446 446 384
Width: 842
GlyphClass: 2
Flags: W
LayerCount: 2
Fore
SplineSet
84 854 m 1,0,-1
 120 1076 l 1,1,-1
 264 1076 l 1,2,-1
 316 1384 l 1,3,-1
 560 1384 l 1,4,-1
 510 1076 l 1,5,-1
 724 1076 l 1,6,-1
 688 854 l 1,7,-1
 472 854 l 1,8,-1
 464 808 l 2,9,10
 454 746 454 746 484 702 c 128,-1,11
 514 658 514 658 561 627 c 128,-1,12
 608 596 608 596 653 560 c 128,-1,13
 698 524 698 524 726 460 c 128,-1,14
 754 396 754 396 738 306 c 0,15,16
 716 170 716 170 613 69 c 128,-1,17
 510 -32 510 -32 324 -32 c 0,18,19
 82 -32 82 -32 -6 212 c 1,20,-1
 188 312 l 1,21,22
 218 250 218 250 254 220 c 128,-1,23
 290 190 290 190 352 190 c 0,24,25
 408 190 408 190 445 220 c 128,-1,26
 482 250 482 250 490 298 c 0,27,28
 496 338 496 338 475 369 c 128,-1,29
 454 400 454 400 419 421 c 128,-1,30
 384 442 384 442 342 472 c 128,-1,31
 300 502 300 502 267 537 c 128,-1,32
 234 572 234 572 218 636 c 128,-1,33
 202 700 202 700 216 784 c 2,34,-1
 228 854 l 1,35,-1
 84 854 l 1,0,-1
EndSplineSet
EndChar

StartChar: uni01BF
Encoding: 447 447 385
Width: 1078
GlyphClass: 2
Flags: W
LayerCount: 2
Fore
SplineSet
-46 -430 m 1,0,-1
 204 1076 l 1,1,-1
 442 1076 l 1,2,-1
 428 992 l 1,3,4
 550 1108 550 1108 716 1108 c 0,5,6
 910 1108 910 1108 993 989 c 128,-1,7
 1076 870 1076 870 1046 682 c 0,8,9
 952 118 952 118 270 4 c 1,10,-1
 198 -430 l 1,11,-1
 -46 -430 l 1,0,-1
306 220 m 1,12,13
 478 244 478 244 620 356 c 128,-1,14
 762 468 762 468 792 648 c 0,15,16
 812 770 812 770 771 828 c 128,-1,17
 730 886 730 886 650 886 c 0,18,19
 576 886 576 886 504 844 c 128,-1,20
 432 802 432 802 392 742 c 1,21,-1
 306 220 l 1,12,13
EndSplineSet
EndChar

StartChar: uni01C0
Encoding: 448 448 386
Width: 504
GlyphClass: 2
Flags: W
LayerCount: 2
Fore
SplineSet
-24 -396 m 1,0,-1
 312 1626 l 1,1,-1
 542 1626 l 1,2,-1
 208 -396 l 1,3,-1
 -24 -396 l 1,0,-1
EndSplineSet
EndChar

StartChar: uni01C1
Encoding: 449 449 387
Width: 896
GlyphClass: 2
Flags: W
LayerCount: 2
Fore
SplineSet
-24 -396 m 1,0,-1
 312 1626 l 1,1,-1
 542 1626 l 1,2,-1
 208 -396 l 1,3,-1
 -24 -396 l 1,0,-1
372 -396 m 1,4,-1
 708 1626 l 1,5,-1
 936 1626 l 1,6,-1
 602 -396 l 1,7,-1
 372 -396 l 1,4,-1
EndSplineSet
EndChar

StartChar: uni01C2
Encoding: 450 450 388
Width: 716
GlyphClass: 2
Flags: W
LayerCount: 2
Fore
SplineSet
66 816 m 1,0,-1
 96 996 l 1,1,-1
 316 996 l 1,2,-1
 420 1626 l 1,3,-1
 656 1626 l 1,4,-1
 552 996 l 1,5,-1
 764 996 l 1,6,-1
 734 816 l 1,7,-1
 522 816 l 1,8,-1
 482 576 l 1,9,-1
 696 576 l 1,10,-1
 664 392 l 1,11,-1
 452 392 l 1,12,-1
 320 -396 l 1,13,-1
 86 -396 l 1,14,-1
 216 392 l 1,15,-1
 -4 392 l 1,16,-1
 26 576 l 1,17,-1
 246 576 l 1,18,-1
 286 816 l 1,19,-1
 66 816 l 1,0,-1
EndSplineSet
EndChar

StartChar: uni01DD
Encoding: 477 477 415
Width: 1052
GlyphClass: 2
Flags: W
LayerCount: 2
Fore
SplineSet
46 530 m 0,0,1
 54 578 54 578 68 628 c 1,2,-1
 760 628 l 1,3,4
 778 740 778 740 726 820 c 128,-1,5
 674 900 674 900 560 900 c 0,6,7
 480 900 480 900 412 856 c 128,-1,8
 344 812 344 812 302 748 c 1,9,-1
 110 828 l 1,10,11
 180 946 180 946 306 1027 c 128,-1,12
 432 1108 432 1108 600 1108 c 0,13,14
 816 1108 816 1108 926 951 c 128,-1,15
 1036 794 1036 794 994 534 c 0,16,17
 950 272 950 272 788 120 c 128,-1,18
 626 -32 626 -32 424 -32 c 0,19,20
 226 -32 226 -32 115 124 c 128,-1,21
 4 280 4 280 46 530 c 0,0,1
282 448 m 1,22,23
 264 334 264 334 309 254 c 128,-1,24
 354 174 354 174 458 174 c 0,25,26
 558 174 558 174 632 254 c 128,-1,27
 706 334 706 334 730 448 c 1,28,-1
 282 448 l 1,22,23
EndSplineSet
EndChar

StartChar: uni01E4
Encoding: 484 484 422
Width: 1416
GlyphClass: 2
Flags: W
LayerCount: 2
Fore
SplineSet
94 736 m 0,0,1
 148 1060 148 1060 359 1281 c 128,-1,2
 570 1502 570 1502 880 1502 c 0,3,4
 990 1502 990 1502 1079 1465 c 128,-1,5
 1168 1428 1168 1428 1221 1368 c 128,-1,6
 1274 1308 1274 1308 1304 1252 c 128,-1,7
 1334 1196 1334 1196 1350 1140 c 1,8,-1
 1108 1064 l 1,9,10
 1054 1168 1054 1168 1010 1208 c 0,11,12
 942 1270 942 1270 842 1270 c 0,13,14
 664 1270 664 1270 536 1126 c 128,-1,15
 408 982 408 982 368 736 c 0,16,17
 328 494 328 494 407 347 c 128,-1,18
 486 200 486 200 646 200 c 0,19,20
 824 200 824 200 932 332 c 1,21,-1
 604 332 l 1,22,-1
 632 500 l 1,23,-1
 1020 500 l 1,24,25
 1028 536 1028 536 1032 554 c 2,26,-1
 1040 606 l 1,27,-1
 702 606 l 1,28,-1
 740 830 l 1,29,-1
 1336 830 l 1,30,-1
 1282 500 l 1,31,-1
 1392 500 l 1,32,-1
 1366 332 l 1,33,-1
 1254 332 l 1,34,-1
 1198 0 l 1,35,-1
 1016 0 l 1,36,-1
 1012 132 l 1,37,38
 870 -32 870 -32 606 -32 c 0,39,40
 336 -32 336 -32 186 175 c 128,-1,41
 36 382 36 382 94 736 c 0,0,1
EndSplineSet
EndChar

StartChar: uni01E5
Encoding: 485 485 423
Width: 1078
GlyphClass: 2
Flags: W
LayerCount: 2
Fore
SplineSet
66 598 m 256,0,1
 104 828 104 828 248 968 c 128,-1,2
 392 1108 392 1108 576 1108 c 0,3,4
 664 1108 664 1108 717 1063 c 128,-1,5
 770 1018 770 1018 786 972 c 1,6,-1
 802 1076 l 1,7,-1
 1048 1076 l 1,8,-1
 904 212 l 2,9,10
 886 104 886 104 870 36 c 1,11,-1
 986 36 l 1,12,-1
 962 -116 l 1,13,-1
 822 -116 l 1,14,15
 750 -274 750 -274 634 -356 c 128,-1,16
 518 -438 518 -438 334 -438 c 0,17,18
 78 -438 78 -438 -36 -226 c 1,19,-1
 146 -106 l 1,20,21
 218 -230 218 -230 372 -230 c 0,22,23
 484 -230 484 -230 570 -116 c 1,24,-1
 256 -116 l 1,25,-1
 280 36 l 1,26,-1
 626 36 l 1,27,28
 638 80 638 80 650 142 c 2,29,-1
 662 218 l 1,30,31
 620 164 620 164 549 130 c 128,-1,32
 478 96 478 96 410 96 c 0,33,34
 228 96 228 96 128 232 c 128,-1,35
 28 368 28 368 66 598 c 256,0,1
316 598 m 0,36,37
 294 466 294 466 343 393 c 128,-1,38
 392 320 392 320 472 320 c 0,39,40
 558 320 558 320 628 396 c 128,-1,41
 698 472 698 472 720 604 c 0,42,43
 742 734 742 734 699 810 c 128,-1,44
 656 886 656 886 568 886 c 256,45,46
 480 886 480 886 408 805 c 128,-1,47
 336 724 336 724 316 598 c 0,36,37
EndSplineSet
EndChar

StartChar: uni01EF
Encoding: 495 495 433
Width: 1108
GlyphClass: 2
Flags: W
LayerCount: 2
Fore
SplineSet
328 1574 m 1,0,-1
 568 1574 l 1,1,-1
 688 1378 l 1,2,-1
 874 1574 l 1,3,-1
 1112 1574 l 1,4,-1
 770 1246 l 1,5,-1
 558 1246 l 1,6,-1
 328 1574 l 1,0,-1
-30 -32 m 1,7,-1
 202 28 l 1,8,9
 204 -70 204 -70 257 -143 c 128,-1,10
 310 -216 310 -216 414 -216 c 0,11,12
 526 -216 526 -216 607 -134 c 128,-1,13
 688 -52 688 -52 708 70 c 0,14,15
 728 190 728 190 670 272 c 128,-1,16
 612 354 612 354 472 354 c 2,17,-1
 290 354 l 1,18,-1
 320 532 l 1,19,-1
 660 854 l 1,20,-1
 178 854 l 1,21,-1
 214 1076 l 1,22,-1
 1064 1076 l 1,23,-1
 1036 916 l 1,24,-1
 632 546 l 1,25,-1
 706 530 l 1,26,27
 840 490 840 490 914 364 c 128,-1,28
 988 238 988 238 960 70 c 0,29,30
 924 -146 924 -146 765 -292 c 128,-1,31
 606 -438 606 -438 384 -438 c 0,32,33
 188 -438 188 -438 84 -321 c 128,-1,34
 -20 -204 -20 -204 -30 -32 c 1,7,-1
EndSplineSet
EndChar

StartChar: uni01F6
Encoding: 502 502 440
Width: 1926
GlyphClass: 2
Flags: W
LayerCount: 2
Fore
SplineSet
46 0 m 1,0,-1
 290 1470 l 1,1,-1
 556 1470 l 1,2,-1
 458 872 l 1,3,-1
 996 872 l 1,4,-1
 1096 1470 l 1,5,-1
 1362 1470 l 1,6,-1
 1188 416 l 2,7,8
 1150 190 1150 190 1330 190 c 0,9,10
 1404 190 1404 190 1462 247 c 128,-1,11
 1520 304 1520 304 1534 390 c 2,12,-1
 1648 1076 l 1,13,-1
 1914 1076 l 1,14,-1
 1794 358 l 2,15,16
 1762 162 1762 162 1620 65 c 128,-1,17
 1478 -32 1478 -32 1294 -32 c 0,18,19
 1208 -32 1208 -32 1134 -12 c 128,-1,20
 1060 8 1060 8 1002 51 c 128,-1,21
 944 94 944 94 919 173 c 128,-1,22
 894 252 894 252 912 360 c 2,23,-1
 958 640 l 1,24,-1
 418 640 l 1,25,-1
 312 0 l 1,26,-1
 46 0 l 1,0,-1
EndSplineSet
EndChar

StartChar: uni01F7
Encoding: 503 503 441
Width: 1248
GlyphClass: 2
Flags: W
LayerCount: 2
Fore
SplineSet
-22 -426 m 1,0,-1
 292 1470 l 1,1,-1
 558 1470 l 1,2,-1
 538 1346 l 1,3,4
 730 1502 730 1502 914 1502 c 0,5,6
 1128 1502 1128 1502 1211 1366 c 128,-1,7
 1294 1230 1294 1230 1254 984 c 0,8,9
 1230 844 1230 844 1159 710 c 128,-1,10
 1088 576 1088 576 992 471 c 128,-1,11
 896 366 896 366 776 272 c 128,-1,12
 656 178 656 178 542 114 c 128,-1,13
 428 50 428 50 314 2 c 1,14,-1
 244 -426 l 1,15,-1
 -22 -426 l 1,0,-1
358 262 m 1,16,17
 572 368 572 368 757 561 c 128,-1,18
 942 754 942 754 978 972 c 0,19,20
 1002 1120 1002 1120 960 1195 c 128,-1,21
 918 1270 918 1270 816 1270 c 0,22,23
 740 1270 740 1270 652 1217 c 128,-1,24
 564 1164 564 1164 494 1082 c 1,25,-1
 358 262 l 1,16,17
EndSplineSet
EndChar

StartChar: Aringacute
Encoding: 506 506 444
Width: 1302
GlyphClass: 2
Flags: W
LayerCount: 2
Fore
SplineSet
-102 0 m 1,0,-1
 650 1456 l 1,1,2
 626 1472 626 1472 604 1496 c 0,3,4
 530 1574 530 1574 550 1692 c 0,5,6
 568 1806 568 1806 664 1888 c 0,7,8
 720 1936 720 1936 788 1954 c 1,9,-1
 992 2212 l 1,10,-1
 1294 2212 l 1,11,-1
 1006 1944 l 1,12,13
 1048 1924 1048 1924 1080 1886 c 0,14,15
 1146 1804 1146 1804 1128 1692 c 0,16,17
 1108 1574 1108 1574 1010 1496 c 0,18,19
 978 1470 978 1470 946 1452 c 1,20,-1
 1216 0 l 1,21,-1
 934 0 l 1,22,-1
 882 346 l 1,23,-1
 348 346 l 1,24,-1
 182 0 l 1,25,-1
 -102 0 l 1,0,-1
452 564 m 1,26,-1
 848 564 l 1,27,-1
 800 912 l 2,28,29
 784 1032 784 1032 762 1206 c 1,30,-1
 754 1206 l 1,31,32
 730 1154 730 1154 683 1054 c 128,-1,33
 636 954 636 954 618 912 c 2,34,-1
 452 564 l 1,26,-1
726 1692 m 0,35,36
 718 1644 718 1644 745 1611 c 128,-1,37
 772 1578 772 1578 820 1578 c 256,38,39
 868 1578 868 1578 905 1610 c 128,-1,40
 942 1642 942 1642 952 1692 c 256,41,42
 960 1742 960 1742 934 1775 c 128,-1,43
 908 1808 908 1808 858 1808 c 256,44,45
 810 1808 810 1808 772 1775 c 128,-1,46
 734 1742 734 1742 726 1692 c 0,35,36
EndSplineSet
EndChar

StartChar: aringacute
Encoding: 507 507 445
Width: 1022
GlyphClass: 2
Flags: W
LayerCount: 2
Fore
SplineSet
6 288 m 0,0,1
 30 436 30 436 153 531 c 128,-1,2
 276 626 276 626 490 660 c 0,3,4
 660 688 660 688 706 702 c 1,5,-1
 714 758 l 2,6,7
 726 830 726 830 684 867 c 128,-1,8
 642 904 642 904 562 904 c 0,9,10
 404 904 404 904 260 766 c 1,11,-1
 136 900 l 1,12,13
 334 1108 334 1108 594 1108 c 0,14,15
 824 1108 824 1108 902 992 c 128,-1,16
 980 876 980 876 944 662 c 2,17,-1
 836 0 l 1,18,-1
 596 0 l 1,19,-1
 616 122 l 1,20,21
 574 58 574 58 491 13 c 128,-1,22
 408 -32 408 -32 312 -32 c 0,23,24
 146 -32 146 -32 64 57 c 128,-1,25
 -18 146 -18 146 6 288 c 0,0,1
388 1460 m 0,26,27
 406 1574 406 1574 500 1656 c 0,28,29
 554 1702 554 1702 618 1722 c 1,30,-1
 816 1980 l 1,31,-1
 1108 1980 l 1,32,-1
 830 1712 l 1,33,34
 872 1692 872 1692 900 1654 c 0,35,36
 964 1572 964 1572 946 1460 c 0,37,38
 926 1342 926 1342 832 1263 c 128,-1,39
 738 1184 738 1184 622 1184 c 256,40,41
 506 1184 506 1184 437 1263 c 128,-1,42
 368 1342 368 1342 388 1460 c 0,26,27
262 310 m 0,43,44
 254 258 254 258 286 221 c 128,-1,45
 318 184 318 184 384 184 c 0,46,47
 482 184 482 184 562 254 c 128,-1,48
 642 324 642 324 662 436 c 2,49,-1
 676 520 l 1,50,51
 604 502 604 502 494 486 c 0,52,53
 286 452 286 452 262 310 c 0,43,44
556 1460 m 0,54,55
 548 1412 548 1412 574 1379 c 128,-1,56
 600 1346 600 1346 650 1346 c 0,57,58
 694 1346 694 1346 730 1378 c 128,-1,59
 766 1410 766 1410 774 1460 c 256,60,61
 782 1510 782 1510 757 1543 c 128,-1,62
 732 1576 732 1576 688 1576 c 0,63,64
 638 1576 638 1576 601 1543 c 128,-1,65
 564 1510 564 1510 556 1460 c 0,54,55
EndSplineSet
EndChar

StartChar: uni021C
Encoding: 540 540 478
Width: 1120
GlyphClass: 2
Flags: W
LayerCount: 2
Fore
SplineSet
-58 -158 m 1,0,1
 84 -194 84 -194 250 -194 c 0,2,3
 426 -194 426 -194 552 -92 c 128,-1,4
 678 10 678 10 704 178 c 0,5,6
 734 362 734 362 665 445 c 128,-1,7
 596 528 596 528 480 528 c 0,8,9
 372 528 372 528 238 478 c 1,10,-1
 276 714 l 1,11,-1
 504 762 l 2,12,13
 628 788 628 788 717 860 c 128,-1,14
 806 932 806 932 824 1044 c 0,15,16
 840 1142 840 1142 788 1204 c 128,-1,17
 736 1266 736 1266 624 1266 c 0,18,19
 538 1266 538 1266 479 1226 c 128,-1,20
 420 1186 420 1186 362 1102 c 1,21,-1
 172 1204 l 1,22,23
 248 1344 248 1344 380 1423 c 128,-1,24
 512 1502 512 1502 668 1502 c 0,25,26
 916 1502 916 1502 1029 1385 c 128,-1,27
 1142 1268 1142 1268 1110 1078 c 0,28,29
 1084 916 1084 916 992 810 c 128,-1,30
 900 704 900 704 790 658 c 1,31,-1
 790 656 l 1,32,33
 896 614 896 614 956 488 c 128,-1,34
 1016 362 1016 362 984 170 c 0,35,36
 936 -116 936 -116 722 -274 c 128,-1,37
 508 -432 508 -432 210 -432 c 0,38,39
 66 -432 66 -432 -98 -400 c 1,40,-1
 -58 -158 l 1,0,1
EndSplineSet
EndChar

StartChar: uni021D
Encoding: 541 541 479
Width: 848
GlyphClass: 2
Flags: W
LayerCount: 2
Fore
SplineSet
-78 -188 m 1,0,1
 38 -216 38 -216 158 -216 c 0,2,3
 272 -216 272 -216 352 -149 c 128,-1,4
 432 -82 432 -82 452 46 c 0,5,6
 472 162 472 162 427 229 c 128,-1,7
 382 296 382 296 304 296 c 0,8,9
 236 296 236 296 142 262 c 1,10,-1
 178 482 l 1,11,-1
 344 518 l 2,12,13
 428 536 428 536 484 592 c 128,-1,14
 540 648 540 648 552 724 c 0,15,16
 564 798 564 798 538 842 c 128,-1,17
 512 886 512 886 456 886 c 0,18,19
 344 886 344 886 280 752 c 1,20,-1
 102 828 l 1,21,22
 148 948 148 948 253 1028 c 128,-1,23
 358 1108 358 1108 508 1108 c 0,24,25
 668 1108 668 1108 749 1004 c 128,-1,26
 830 900 830 900 806 762 c 0,27,28
 768 530 768 530 570 422 c 1,29,30
 642 390 642 390 684 289 c 128,-1,31
 726 188 726 188 704 54 c 0,32,33
 664 -186 664 -186 513 -312 c 128,-1,34
 362 -438 362 -438 124 -438 c 0,35,36
 40 -438 40 -438 -116 -416 c 1,37,-1
 -78 -188 l 1,0,1
EndSplineSet
EndChar

StartChar: uni0220
Encoding: 544 544 482
Width: 1342
GlyphClass: 2
Flags: W
LayerCount: 2
Fore
SplineSet
46 0 m 1,0,-1
 290 1470 l 1,1,-1
 542 1470 l 1,2,-1
 516 1312 l 1,3,-1
 518 1312 l 1,4,5
 710 1502 710 1502 942 1502 c 0,6,7
 1364 1502 1364 1502 1276 972 c 2,8,-1
 1044 -430 l 1,9,-1
 776 -430 l 1,10,-1
 1006 954 l 2,11,12
 1058 1270 1058 1270 834 1270 c 0,13,14
 706 1270 706 1270 596 1158 c 128,-1,15
 486 1046 486 1046 460 892 c 2,16,-1
 312 0 l 1,17,-1
 46 0 l 1,0,-1
EndSplineSet
EndChar

StartChar: uni0221
Encoding: 545 545 483
Width: 1388
GlyphClass: 2
Flags: W
LayerCount: 2
Fore
SplineSet
882 -150 m 1,0,1
 888 -196 888 -196 916 -225 c 128,-1,2
 944 -254 944 -254 992 -254 c 0,3,4
 1032 -254 1032 -254 1060 -232 c 128,-1,5
 1088 -210 1088 -210 1094 -178 c 256,6,7
 1100 -146 1100 -146 1077 -120 c 128,-1,8
 1054 -94 1054 -94 1010 -94 c 0,9,10
 944 -94 944 -94 882 -150 c 1,0,1
52 538 m 0,11,12
 96 806 96 806 243 957 c 128,-1,13
 390 1108 390 1108 582 1108 c 0,14,15
 666 1108 666 1108 722 1069 c 128,-1,16
 778 1030 778 1030 802 976 c 1,17,-1
 892 1518 l 1,18,-1
 1136 1518 l 1,19,-1
 908 146 l 2,20,21
 896 72 896 72 896 52 c 1,22,23
 968 94 968 94 1048 94 c 0,24,25
 1174 94 1174 94 1241 17 c 128,-1,26
 1308 -60 1308 -60 1288 -172 c 0,27,28
 1268 -294 1268 -294 1180 -366 c 128,-1,29
 1092 -438 1092 -438 964 -438 c 0,30,31
 838 -438 838 -438 756 -342 c 1,32,33
 738 -368 738 -368 700 -444 c 1,34,-1
 510 -362 l 1,35,36
 592 -218 592 -218 650 -148 c 1,37,38
 638 -74 638 -74 652 62 c 1,39,-1
 662 120 l 1,40,41
 626 66 626 66 553 17 c 128,-1,42
 480 -32 480 -32 390 -32 c 0,43,44
 308 -32 308 -32 240 0 c 128,-1,45
 172 32 172 32 118 96 c 128,-1,46
 64 160 64 160 46 274 c 128,-1,47
 28 388 28 388 52 538 c 0,11,12
304 538 m 0,48,49
 276 370 276 370 320 280 c 128,-1,50
 364 190 364 190 460 190 c 256,51,52
 556 190 556 190 630 283 c 128,-1,53
 704 376 704 376 730 538 c 0,54,55
 756 694 756 694 716 790 c 128,-1,56
 676 886 676 886 576 886 c 256,57,58
 476 886 476 886 404 794 c 128,-1,59
 332 702 332 702 304 538 c 0,48,49
EndSplineSet
EndChar

StartChar: uni0222
Encoding: 546 546 484
Width: 1398
GlyphClass: 2
Flags: W
LayerCount: 2
Fore
SplineSet
52 492 m 0,0,1
 74 620 74 620 158 735 c 128,-1,2
 242 850 242 850 386 928 c 1,3,4
 300 980 300 980 257 1060 c 128,-1,5
 214 1140 214 1140 236 1276 c 0,6,7
 256 1396 256 1396 300 1470 c 1,8,-1
 562 1470 l 1,9,10
 532 1394 532 1394 516 1294 c 0,11,12
 498 1186 498 1186 567 1105 c 128,-1,13
 636 1024 636 1024 778 1024 c 0,14,15
 918 1024 918 1024 1013 1106 c 128,-1,16
 1108 1188 1108 1188 1126 1294 c 0,17,18
 1138 1366 1138 1366 1138 1470 c 1,19,-1
 1400 1470 l 1,20,21
 1418 1394 1418 1394 1400 1276 c 0,22,23
 1378 1138 1378 1138 1308 1059 c 128,-1,24
 1238 980 1238 980 1134 928 c 1,25,26
 1252 850 1252 850 1299 735 c 128,-1,27
 1346 620 1346 620 1326 492 c 0,28,29
 1310 398 1310 398 1258 309 c 128,-1,30
 1206 220 1206 220 1120 141 c 128,-1,31
 1034 62 1034 62 900 15 c 128,-1,32
 766 -32 766 -32 604 -32 c 256,33,34
 442 -32 442 -32 321 15 c 128,-1,35
 200 62 200 62 140 141 c 128,-1,36
 80 220 80 220 58 309 c 128,-1,37
 36 398 36 398 52 492 c 0,0,1
330 492 m 0,38,39
 308 356 308 356 394 278 c 128,-1,40
 480 200 480 200 642 200 c 0,41,42
 798 200 798 200 911 278 c 128,-1,43
 1024 356 1024 356 1046 492 c 0,44,45
 1068 624 1068 624 978 706 c 128,-1,46
 888 788 888 788 738 788 c 0,47,48
 586 788 586 788 469 707 c 128,-1,49
 352 626 352 626 330 492 c 0,38,39
EndSplineSet
EndChar

StartChar: uni0223
Encoding: 547 547 485
Width: 1048
GlyphClass: 2
Flags: W
LayerCount: 2
Fore
SplineSet
44 496 m 0,0,1
 70 648 70 648 145 761 c 128,-1,2
 220 874 220 874 328 930 c 1,3,4
 172 1038 172 1038 214 1286 c 0,5,6
 230 1386 230 1386 276 1480 c 1,7,-1
 518 1480 l 1,8,9
 482 1376 482 1376 470 1304 c 0,10,11
 424 1030 424 1030 602 1030 c 256,12,13
 778 1030 778 1030 824 1304 c 0,14,15
 834 1368 834 1368 832 1480 c 1,16,-1
 1070 1480 l 1,17,18
 1088 1390 1088 1390 1070 1286 c 0,19,20
 1028 1032 1028 1032 842 930 c 1,21,22
 930 876 930 876 969 762 c 128,-1,23
 1008 648 1008 648 982 496 c 0,24,25
 970 420 970 420 943 349 c 128,-1,26
 916 278 916 278 870 207 c 128,-1,27
 824 136 824 136 764 84 c 128,-1,28
 704 32 704 32 616 0 c 128,-1,29
 528 -32 528 -32 426 -32 c 0,30,31
 302 -32 302 -32 214 15 c 128,-1,32
 126 62 126 62 88 142 c 128,-1,33
 50 222 50 222 39 311 c 128,-1,34
 28 400 28 400 44 496 c 0,0,1
296 496 m 256,35,36
 274 360 274 360 320 275 c 128,-1,37
 366 190 366 190 462 190 c 0,38,39
 560 190 560 190 634 274 c 128,-1,40
 708 358 708 358 730 496 c 0,41,42
 752 632 752 632 707 718 c 128,-1,43
 662 804 662 804 564 804 c 0,44,45
 468 804 468 804 393 718 c 128,-1,46
 318 632 318 632 296 496 c 256,35,36
EndSplineSet
EndChar

StartChar: uni0224
Encoding: 548 548 486
Width: 1178
GlyphClass: 2
Flags: W
LayerCount: 2
Fore
SplineSet
-44 0 m 1,0,-1
 -12 198 l 1,1,-1
 888 1236 l 1,2,-1
 220 1236 l 1,3,-1
 260 1470 l 1,4,-1
 1256 1470 l 1,5,-1
 1224 1268 l 1,6,-1
 324 232 l 1,7,-1
 832 232 l 2,8,9
 1174 232 1174 232 1108 -158 c 0,10,11
 1084 -298 1084 -298 1008 -430 c 1,12,-1
 766 -430 l 1,13,14
 850 -306 850 -306 868 -196 c 0,15,16
 882 -116 882 -116 849 -58 c 128,-1,17
 816 0 816 0 724 0 c 2,18,-1
 -44 0 l 1,0,-1
EndSplineSet
EndChar

StartChar: uni0225
Encoding: 549 549 487
Width: 918
GlyphClass: 2
Flags: W
LayerCount: 2
Fore
SplineSet
-54 0 m 1,0,-1
 -26 172 l 1,1,-1
 596 856 l 1,2,-1
 128 856 l 1,3,-1
 164 1080 l 1,4,-1
 956 1080 l 1,5,-1
 930 916 l 1,6,-1
 304 222 l 1,7,-1
 650 222 l 2,8,9
 974 222 974 222 912 -154 c 0,10,11
 882 -332 882 -332 824 -430 c 1,12,-1
 610 -430 l 1,13,14
 666 -346 666 -346 690 -200 c 0,15,16
 706 -104 706 -104 678 -52 c 128,-1,17
 650 0 650 0 558 0 c 2,18,-1
 -54 0 l 1,0,-1
EndSplineSet
EndChar

StartChar: uni0234
Encoding: 564 564 502
Width: 778
GlyphClass: 2
Flags: W
LayerCount: 2
Fore
SplineSet
278 -148 m 1,0,1
 278 -192 278 -192 308 -223 c 128,-1,2
 338 -254 338 -254 386 -254 c 0,3,4
 428 -254 428 -254 454 -232 c 128,-1,5
 480 -210 480 -210 486 -178 c 256,6,7
 492 -146 492 -146 468 -120 c 128,-1,8
 444 -94 444 -94 402 -94 c 0,9,10
 340 -94 340 -94 278 -148 c 1,0,1
-96 -362 m 1,11,12
 10 -186 10 -186 44 -148 c 1,13,14
 24 -54 24 -54 46 84 c 2,15,-1
 284 1518 l 1,16,-1
 530 1518 l 1,17,-1
 302 144 l 2,18,19
 290 68 290 68 290 52 c 1,20,21
 364 94 364 94 442 94 c 0,22,23
 566 94 566 94 632 18 c 128,-1,24
 698 -58 698 -58 680 -172 c 0,25,26
 660 -294 660 -294 572 -366 c 128,-1,27
 484 -438 484 -438 356 -438 c 0,28,29
 230 -438 230 -438 148 -342 c 1,30,31
 118 -382 118 -382 90 -444 c 1,32,-1
 -96 -362 l 1,11,12
EndSplineSet
EndChar

StartChar: uni0235
Encoding: 565 565 503
Width: 1358
GlyphClass: 2
Flags: W
LayerCount: 2
Fore
SplineSet
858 -148 m 1,0,1
 860 -196 860 -196 890 -225 c 128,-1,2
 920 -254 920 -254 966 -254 c 0,3,4
 1008 -254 1008 -254 1034 -233 c 128,-1,5
 1060 -212 1060 -212 1066 -178 c 0,6,7
 1070 -148 1070 -148 1049 -121 c 128,-1,8
 1028 -94 1028 -94 984 -94 c 0,9,10
 920 -94 920 -94 858 -148 c 1,0,1
16 0 m 1,11,-1
 194 1076 l 1,12,-1
 428 1076 l 1,13,-1
 408 956 l 1,14,-1
 410 956 l 1,15,16
 450 1014 450 1014 527 1061 c 128,-1,17
 604 1108 604 1108 708 1108 c 0,18,19
 1040 1108 1040 1108 972 690 c 2,20,-1
 880 136 l 2,21,22
 874 106 874 106 870 86 c 0,23,24
 866 64 866 64 866 52 c 1,25,26
 936 94 936 94 1020 94 c 0,27,28
 1144 94 1144 94 1211 18 c 128,-1,29
 1278 -58 1278 -58 1260 -172 c 0,30,31
 1240 -294 1240 -294 1152 -366 c 128,-1,32
 1064 -438 1064 -438 934 -438 c 0,33,34
 812 -438 812 -438 730 -340 c 1,35,36
 688 -412 688 -412 672 -444 c 1,37,-1
 484 -362 l 1,38,39
 538 -254 538 -254 622 -148 c 1,40,41
 604 -54 604 -54 628 88 c 2,42,-1
 722 660 l 2,43,44
 760 886 760 886 616 886 c 0,45,46
 526 886 526 886 454 809 c 128,-1,47
 382 732 382 732 364 618 c 2,48,-1
 262 0 l 1,49,-1
 16 0 l 1,11,-1
EndSplineSet
EndChar

StartChar: uni0236
Encoding: 566 566 504
Width: 842
GlyphClass: 2
Flags: W
LayerCount: 2
Fore
SplineSet
330 -148 m 1,0,1
 330 -188 330 -188 360 -221 c 128,-1,2
 390 -254 390 -254 438 -254 c 0,3,4
 482 -254 482 -254 509 -232 c 128,-1,5
 536 -210 536 -210 542 -178 c 0,6,7
 546 -150 546 -150 523 -122 c 128,-1,8
 500 -94 500 -94 456 -94 c 0,9,10
 394 -94 394 -94 330 -148 c 1,0,1
76 854 m 1,11,-1
 114 1076 l 1,12,-1
 266 1076 l 1,13,-1
 316 1388 l 1,14,-1
 562 1388 l 1,15,-1
 510 1076 l 1,16,-1
 730 1076 l 1,17,-1
 694 854 l 1,18,-1
 472 854 l 1,19,-1
 340 52 l 1,20,21
 410 94 410 94 494 94 c 0,22,23
 620 94 620 94 686 18 c 128,-1,24
 752 -58 752 -58 732 -172 c 0,25,26
 712 -294 712 -294 625 -366 c 128,-1,27
 538 -438 538 -438 410 -438 c 256,28,29
 282 -438 282 -438 202 -342 c 1,30,31
 166 -390 166 -390 142 -444 c 1,32,-1
 -44 -362 l 1,33,34
 36 -218 36 -218 96 -148 c 1,35,36
 78 -58 78 -58 102 88 c 2,37,-1
 228 854 l 1,38,-1
 76 854 l 1,11,-1
EndSplineSet
EndChar

StartChar: uni0237
Encoding: 567 567 505
Width: 508
GlyphClass: 2
Flags: W
LayerCount: 2
Fore
SplineSet
-148 -194 m 1,0,-1
 -116 -194 l 2,1,2
 -52 -194 -52 -194 -11 -147 c 128,-1,3
 30 -100 30 -100 46 4 c 2,4,-1
 224 1076 l 1,5,-1
 472 1076 l 1,6,-1
 292 -6 l 2,7,8
 258 -210 258 -210 154 -314 c 128,-1,9
 50 -418 50 -418 -114 -418 c 2,10,-1
 -186 -418 l 1,11,-1
 -148 -194 l 1,0,-1
EndSplineSet
EndChar

StartChar: uni0238
Encoding: 568 568 506
Width: 1710
GlyphClass: 2
Flags: W
CounterMasks: 1 0e
LayerCount: 2
Fore
SplineSet
52 538 m 0,0,1
 96 808 96 808 245 958 c 128,-1,2
 394 1108 394 1108 580 1108 c 0,3,4
 662 1108 662 1108 719 1069 c 128,-1,5
 776 1030 776 1030 800 976 c 1,6,-1
 890 1518 l 1,7,-1
 1136 1518 l 1,8,-1
 1046 978 l 1,9,10
 1168 1108 1168 1108 1312 1108 c 0,11,12
 1502 1108 1502 1108 1598 958 c 128,-1,13
 1694 808 1694 808 1650 538 c 0,14,15
 1624 386 1624 386 1565 271 c 128,-1,16
 1506 156 1506 156 1431 92 c 128,-1,17
 1356 28 1356 28 1278 -2 c 128,-1,18
 1200 -32 1200 -32 1126 -32 c 0,19,20
 1038 -32 1038 -32 981 12 c 128,-1,21
 924 56 924 56 904 118 c 1,22,-1
 884 0 l 1,23,-1
 640 0 l 1,24,-1
 660 120 l 1,25,26
 618 56 618 56 542 12 c 128,-1,27
 466 -32 466 -32 386 -32 c 0,28,29
 308 -32 308 -32 243 -2 c 128,-1,30
 178 28 178 28 123 91 c 128,-1,31
 68 154 68 154 47 270 c 128,-1,32
 26 386 26 386 52 538 c 0,0,1
304 538 m 0,33,34
 276 368 276 368 321 279 c 128,-1,35
 366 190 366 190 460 190 c 0,36,37
 560 190 560 190 632 281 c 128,-1,38
 704 372 704 372 728 526 c 2,39,-1
 730 536 l 2,40,41
 756 690 756 690 716 788 c 128,-1,42
 676 886 676 886 576 886 c 0,43,44
 478 886 478 886 405 795 c 128,-1,45
 332 704 332 704 304 538 c 0,33,34
970 524 m 2,46,47
 946 376 946 376 989 283 c 128,-1,48
 1032 190 1032 190 1124 190 c 0,49,50
 1220 190 1220 190 1294 279 c 128,-1,51
 1368 368 1368 368 1398 538 c 0,52,53
 1424 700 1424 700 1382 793 c 128,-1,54
 1340 886 1340 886 1242 886 c 0,55,56
 1142 886 1142 886 1069 787 c 128,-1,57
 996 688 996 688 970 534 c 2,58,-1
 970 524 l 2,46,47
EndSplineSet
EndChar

StartChar: uni0239
Encoding: 569 569 507
Width: 1710
GlyphClass: 2
Flags: W
LayerCount: 2
Fore
SplineSet
52 538 m 0,0,1
 96 804 96 804 242 956 c 128,-1,2
 388 1108 388 1108 580 1108 c 0,3,4
 736 1108 736 1108 800 968 c 1,5,-1
 818 1076 l 1,6,-1
 1062 1076 l 1,7,-1
 1044 970 l 1,8,9
 1152 1108 1152 1108 1314 1108 c 0,10,11
 1506 1108 1506 1108 1600 956 c 128,-1,12
 1694 804 1694 804 1650 538 c 0,13,14
 1626 388 1626 388 1569 274 c 128,-1,15
 1512 160 1512 160 1438 96 c 128,-1,16
 1364 32 1364 32 1285 0 c 128,-1,17
 1206 -32 1206 -32 1126 -32 c 0,18,19
 1034 -32 1034 -32 978 13 c 128,-1,20
 922 58 922 58 904 116 c 1,21,-1
 814 -430 l 1,22,-1
 566 -430 l 1,23,-1
 658 116 l 1,24,25
 612 56 612 56 541 12 c 128,-1,26
 470 -32 470 -32 386 -32 c 0,27,28
 306 -32 306 -32 239 0 c 128,-1,29
 172 32 172 32 118 95 c 128,-1,30
 64 158 64 158 46 273 c 128,-1,31
 28 388 28 388 52 538 c 0,0,1
302 538 m 0,32,33
 274 372 274 372 318 281 c 128,-1,34
 362 190 362 190 456 190 c 0,35,36
 560 190 560 190 633 282 c 128,-1,37
 706 374 706 374 732 538 c 2,38,-1
 734 550 l 2,39,40
 758 700 758 700 716 793 c 128,-1,41
 674 886 674 886 574 886 c 256,42,43
 474 886 474 886 401 790 c 128,-1,44
 328 694 328 694 302 538 c 0,32,33
970 542 m 2,45,46
 944 380 944 380 987 285 c 128,-1,47
 1030 190 1030 190 1128 190 c 0,48,49
 1224 190 1224 190 1298 281 c 128,-1,50
 1372 372 1372 372 1400 538 c 0,51,52
 1426 698 1426 698 1385 792 c 128,-1,53
 1344 886 1344 886 1244 886 c 0,54,55
 1148 886 1148 886 1072 793 c 128,-1,56
 996 700 996 700 972 554 c 2,57,-1
 970 542 l 2,45,46
EndSplineSet
EndChar

StartChar: uni023A
Encoding: 570 570 508
Width: 1302
GlyphClass: 2
Flags: W
LayerCount: 2
Fore
SplineSet
452 564 m 1,0,-1
 488 564 l 1,1,-1
 794 948 l 1,2,3
 782 1048 782 1048 762 1206 c 1,4,-1
 754 1206 l 1,5,6
 730 1154 730 1154 683 1053 c 128,-1,7
 636 952 636 952 618 912 c 2,8,-1
 452 564 l 1,0,-1
672 564 m 1,9,-1
 850 564 l 1,10,-1
 824 754 l 1,11,-1
 672 564 l 1,9,-1
-102 0 m 1,12,-1
 658 1470 l 1,13,-1
 946 1470 l 1,14,-1
 996 1200 l 1,15,-1
 1290 1570 l 1,16,-1
 1472 1570 l 1,17,-1
 1028 1014 l 1,18,-1
 1216 0 l 1,19,-1
 934 0 l 1,20,-1
 882 346 l 1,21,-1
 498 346 l 1,22,-1
 70 -192 l 1,23,-1
 -114 -192 l 1,24,-1
 40 0 l 1,25,-1
 -102 0 l 1,12,-1
EndSplineSet
EndChar

StartChar: uni023B
Encoding: 571 571 509
Width: 1298
GlyphClass: 2
Flags: W
LayerCount: 2
Fore
SplineSet
94 736 m 0,0,1
 150 1078 150 1078 361 1290 c 128,-1,2
 572 1502 572 1502 866 1502 c 0,3,4
 956 1502 956 1502 1046 1472 c 1,5,-1
 1098 1574 l 1,6,-1
 1294 1574 l 1,7,-1
 1190 1378 l 1,8,9
 1236 1336 1236 1336 1275 1269 c 128,-1,10
 1314 1202 1314 1202 1326 1138 c 1,11,-1
 1084 1062 l 1,12,13
 1074 1092 1074 1092 1052 1122 c 1,14,-1
 572 212 l 1,15,16
 612 200 612 200 648 200 c 0,17,18
 762 200 762 200 859 273 c 128,-1,19
 956 346 956 346 1008 442 c 1,20,-1
 1234 366 l 1,21,22
 1204 314 1204 314 1169 267 c 128,-1,23
 1134 220 1134 220 1076 163 c 128,-1,24
 1018 106 1018 106 952 65 c 128,-1,25
 886 24 886 24 798 -4 c 128,-1,26
 710 -32 710 -32 612 -32 c 0,27,28
 528 -32 528 -32 452 -12 c 1,29,-1
 404 -108 l 1,30,-1
 208 -108 l 1,31,-1
 294 56 l 1,32,33
 160 156 160 156 108 330 c 128,-1,34
 56 504 56 504 94 736 c 0,0,1
428 308 m 1,35,-1
 928 1248 l 1,36,37
 876 1270 876 1270 824 1270 c 0,38,39
 650 1270 650 1270 528 1118 c 128,-1,40
 406 966 406 966 368 736 c 0,41,42
 322 456 322 456 428 308 c 1,35,-1
EndSplineSet
EndChar

StartChar: uni023C
Encoding: 572 572 510
Width: 978
GlyphClass: 2
Flags: W
LayerCount: 2
Fore
SplineSet
52 538 m 0,0,1
 94 788 94 788 247 948 c 128,-1,2
 400 1108 400 1108 626 1108 c 0,3,4
 684 1108 684 1108 738 1092 c 1,5,-1
 796 1208 l 1,6,-1
 970 1208 l 1,7,-1
 866 1008 l 1,8,9
 902 976 902 976 930 910 c 128,-1,10
 958 844 958 844 960 778 c 1,11,-1
 756 722 l 1,12,13
 748 752 748 752 738 768 c 1,14,-1
 442 192 l 1,15,16
 452 190 452 190 468 190 c 0,17,18
 608 190 608 190 708 372 c 1,19,-1
 906 310 l 1,20,21
 860 190 860 190 730 79 c 128,-1,22
 600 -32 600 -32 430 -32 c 0,23,24
 368 -32 368 -32 328 -24 c 1,25,-1
 286 -110 l 1,26,-1
 114 -110 l 1,27,-1
 190 38 l 1,28,29
 90 114 90 114 58 250 c 128,-1,30
 26 386 26 386 52 538 c 0,0,1
324 298 m 1,31,-1
 626 876 l 1,32,33
 604 886 604 886 584 886 c 0,34,35
 478 886 478 886 403 787 c 128,-1,36
 328 688 328 688 304 538 c 0,37,38
 280 394 280 394 324 298 c 1,31,-1
EndSplineSet
EndChar

StartChar: uni023D
Encoding: 573 573 511
Width: 1076
GlyphClass: 2
Flags: W
LayerCount: 2
Fore
SplineSet
30 716 m 1,0,-1
 66 932 l 1,1,-1
 210 932 l 1,2,-1
 300 1470 l 1,3,-1
 566 1470 l 1,4,-1
 478 932 l 1,5,-1
 824 932 l 1,6,-1
 788 716 l 1,7,-1
 442 716 l 1,8,-1
 362 232 l 1,9,-1
 1002 232 l 1,10,-1
 964 0 l 1,11,-1
 56 0 l 1,12,-1
 176 716 l 1,13,-1
 30 716 l 1,0,-1
EndSplineSet
EndChar

StartChar: uni023E
Encoding: 574 574 512
Width: 1120
GlyphClass: 2
Flags: W
LayerCount: 2
Fore
SplineSet
802 1236 m 1,0,-1
 768 1038 l 1,1,-1
 908 1236 l 1,2,-1
 802 1236 l 1,0,-1
128 1236 m 1,3,-1
 168 1470 l 1,4,-1
 1074 1470 l 1,5,-1
 1148 1574 l 1,6,-1
 1326 1574 l 1,7,-1
 1246 1462 l 1,8,-1
 1208 1236 l 1,9,-1
 1088 1236 l 1,10,-1
 714 706 l 1,11,-1
 596 0 l 1,12,-1
 332 0 l 1,13,-1
 368 218 l 1,14,-1
 142 -102 l 1,15,-1
 -36 -102 l 1,16,-1
 422 548 l 1,17,-1
 536 1236 l 1,18,-1
 128 1236 l 1,3,-1
EndSplineSet
EndChar

StartChar: uni023F
Encoding: 575 575 513
Width: 920
GlyphClass: 2
Flags: W
LayerCount: 2
Fore
SplineSet
-18 228 m 1,0,-1
 172 338 l 1,1,2
 252 178 252 178 414 178 c 0,3,4
 480 178 480 178 531 210 c 128,-1,5
 582 242 582 242 590 290 c 0,6,7
 596 322 596 322 584 347 c 128,-1,8
 572 372 572 372 540 391 c 128,-1,9
 508 410 508 410 482 422 c 128,-1,10
 456 434 456 434 404 453 c 128,-1,11
 352 472 352 472 328 482 c 0,12,13
 212 532 212 532 155 598 c 128,-1,14
 98 664 98 664 118 788 c 0,15,16
 142 936 142 936 274 1022 c 128,-1,17
 406 1108 406 1108 562 1108 c 0,18,19
 700 1108 700 1108 798 1038 c 128,-1,20
 896 968 896 968 934 858 c 1,21,-1
 756 754 l 1,22,23
 712 826 712 826 661 862 c 128,-1,24
 610 898 610 898 526 898 c 0,25,26
 462 898 462 898 418 866 c 128,-1,27
 374 834 374 834 366 786 c 0,28,29
 358 736 358 736 401 699 c 128,-1,30
 444 662 444 662 514 640 c 0,31,32
 586 618 586 618 639 594 c 128,-1,33
 692 570 692 570 750 529 c 128,-1,34
 808 488 808 488 831 428 c 128,-1,35
 854 368 854 368 842 290 c 0,36,37
 818 150 818 150 695 59 c 128,-1,38
 572 -32 572 -32 378 -32 c 0,39,40
 292 -32 292 -32 230 -8 c 1,41,42
 230 -20 230 -20 234 -53 c 128,-1,43
 238 -86 238 -86 241 -100 c 128,-1,44
 244 -114 244 -114 251 -140 c 128,-1,45
 258 -166 258 -166 265 -178 c 128,-1,46
 272 -190 272 -190 285 -208 c 128,-1,47
 298 -226 298 -226 314 -234 c 128,-1,48
 330 -242 330 -242 355 -248 c 128,-1,49
 380 -254 380 -254 410 -254 c 0,50,51
 480 -254 480 -254 536 -242 c 1,52,-1
 506 -424 l 1,53,54
 408 -438 408 -438 370 -438 c 0,55,56
 268 -438 268 -438 200 -401 c 128,-1,57
 132 -364 132 -364 101 -295 c 128,-1,58
 70 -226 70 -226 58 -166 c 128,-1,59
 46 -106 46 -106 42 -24 c 0,60,61
 34 146 34 146 -18 228 c 1,0,-1
EndSplineSet
EndChar

StartChar: uni0240
Encoding: 576 576 514
Width: 930
GlyphClass: 2
Flags: W
LayerCount: 2
Fore
SplineSet
-54 0 m 1,0,-1
 -26 172 l 1,1,-1
 594 854 l 1,2,-1
 128 854 l 1,3,-1
 164 1076 l 1,4,-1
 956 1076 l 1,5,-1
 930 912 l 1,6,-1
 256 172 l 1,7,8
 312 154 312 154 355 107 c 128,-1,9
 398 60 398 60 426 6 c 128,-1,10
 454 -48 454 -48 482 -98 c 128,-1,11
 510 -148 510 -148 551 -182 c 128,-1,12
 592 -216 592 -216 644 -216 c 0,13,14
 726 -216 726 -216 770 -204 c 1,15,-1
 734 -422 l 1,16,17
 668 -438 668 -438 592 -438 c 0,18,19
 504 -438 504 -438 441 -396 c 128,-1,20
 378 -354 378 -354 341 -293 c 128,-1,21
 304 -232 304 -232 270 -169 c 128,-1,22
 236 -106 236 -106 189 -58 c 128,-1,23
 142 -10 142 -10 80 0 c 1,24,-1
 -54 0 l 1,0,-1
EndSplineSet
EndChar

StartChar: uni0241
Encoding: 577 577 515
Width: 1146
GlyphClass: 2
Flags: W
LayerCount: 2
Fore
SplineSet
192 1128 m 1,0,1
 258 1292 258 1292 405 1397 c 128,-1,2
 552 1502 552 1502 738 1502 c 0,3,4
 934 1502 934 1502 1043 1386 c 128,-1,5
 1152 1270 1152 1270 1120 1080 c 0,6,7
 1106 994 1106 994 1060 921 c 128,-1,8
 1014 848 1014 848 957 797 c 128,-1,9
 900 746 900 746 844 699 c 128,-1,10
 788 652 788 652 744 592 c 128,-1,11
 700 532 700 532 688 460 c 2,12,-1
 612 0 l 1,13,-1
 348 0 l 1,14,-1
 428 484 l 2,15,16
 442 570 442 570 487 642 c 128,-1,17
 532 714 532 714 586 764 c 128,-1,18
 640 814 640 814 695 861 c 128,-1,19
 750 908 750 908 793 966 c 128,-1,20
 836 1024 836 1024 848 1092 c 0,21,22
 862 1172 862 1172 819 1221 c 128,-1,23
 776 1270 776 1270 704 1270 c 0,24,25
 620 1270 620 1270 546 1215 c 128,-1,26
 472 1160 472 1160 422 1056 c 1,27,-1
 192 1128 l 1,0,1
EndSplineSet
EndChar

StartChar: uni0250
Encoding: 592 592 516
Width: 1024
GlyphClass: 2
Flags: W
LayerCount: 2
Fore
SplineSet
340 556 m 1,0,1
 436 578 436 578 524 592 c 0,2,3
 630 610 630 610 688 651 c 128,-1,4
 746 692 746 692 758 766 c 0,5,6
 766 820 766 820 732 856 c 128,-1,7
 698 892 698 892 634 892 c 0,8,9
 538 892 538 892 456 822 c 128,-1,10
 374 752 374 752 356 652 c 2,11,-1
 340 556 l 1,0,1
70 414 m 2,12,-1
 180 1076 l 1,13,-1
 422 1076 l 1,14,-1
 402 954 l 1,15,16
 440 1014 440 1014 521 1061 c 128,-1,17
 602 1108 602 1108 704 1108 c 0,18,19
 868 1108 868 1108 951 1020 c 128,-1,20
 1034 932 1034 932 1012 788 c 0,21,22
 986 630 986 630 853 537 c 128,-1,23
 720 444 720 444 498 412 c 0,24,25
 374 394 374 394 310 376 c 1,26,-1
 300 312 l 2,27,28
 290 246 290 246 336 209 c 128,-1,29
 382 172 382 172 456 172 c 0,30,31
 614 172 614 172 758 310 c 1,32,-1
 884 176 l 1,33,34
 788 74 788 74 667 21 c 128,-1,35
 546 -32 546 -32 422 -32 c 0,36,37
 196 -32 196 -32 115 84 c 128,-1,38
 34 200 34 200 70 414 c 2,12,-1
EndSplineSet
EndChar

StartChar: uni0251
Encoding: 593 593 517
Width: 1082
GlyphClass: 2
Flags: W
LayerCount: 2
Fore
SplineSet
304 538 m 0,0,1
 276 368 276 368 320 279 c 128,-1,2
 364 190 364 190 458 190 c 0,3,4
 538 190 538 190 616 274 c 128,-1,5
 694 358 694 358 724 538 c 0,6,7
 750 694 750 694 710 790 c 128,-1,8
 670 886 670 886 572 886 c 256,9,10
 474 886 474 886 403 794 c 128,-1,11
 332 702 332 702 304 538 c 0,0,1
52 538 m 0,12,13
 96 806 96 806 240 957 c 128,-1,14
 384 1108 384 1108 576 1108 c 0,15,16
 728 1108 728 1108 792 976 c 1,17,-1
 808 1076 l 1,18,-1
 1054 1076 l 1,19,-1
 876 0 l 1,20,-1
 636 0 l 1,21,-1
 656 122 l 1,22,23
 616 58 616 58 541 13 c 128,-1,24
 466 -32 466 -32 384 -32 c 0,25,26
 304 -32 304 -32 236 0 c 128,-1,27
 168 32 168 32 115 96 c 128,-1,28
 62 160 62 160 45 274 c 128,-1,29
 28 388 28 388 52 538 c 0,12,13
EndSplineSet
EndChar

StartChar: uni0252
Encoding: 594 594 518
Width: 1082
GlyphClass: 2
Flags: W
LayerCount: 2
Fore
SplineSet
20 0 m 1,0,-1
 198 1076 l 1,1,-1
 444 1076 l 1,2,-1
 428 978 l 1,3,4
 550 1108 550 1108 688 1108 c 0,5,6
 878 1108 878 1108 973 956 c 128,-1,7
 1068 804 1068 804 1024 538 c 0,8,9
 1000 388 1000 388 942 273 c 128,-1,10
 884 158 884 158 809 94 c 128,-1,11
 734 30 734 30 657 -1 c 128,-1,12
 580 -32 580 -32 504 -32 c 0,13,14
 418 -32 418 -32 359 16 c 128,-1,15
 300 64 300 64 282 122 c 1,16,-1
 262 0 l 1,17,-1
 20 0 l 1,0,-1
350 538 m 0,18,19
 324 376 324 376 366 283 c 128,-1,20
 408 190 408 190 502 190 c 0,21,22
 598 190 598 190 670 280 c 128,-1,23
 742 370 742 370 770 538 c 0,24,25
 798 702 798 702 757 794 c 128,-1,26
 716 886 716 886 616 886 c 256,27,28
 518 886 518 886 447 790 c 128,-1,29
 376 694 376 694 350 538 c 0,18,19
EndSplineSet
EndChar

StartChar: uni0253
Encoding: 595 595 519
Width: 1094
GlyphClass: 2
Flags: W
LayerCount: 2
Fore
SplineSet
354 540 m 0,0,1
 326 376 326 376 369 283 c 128,-1,2
 412 190 412 190 512 190 c 0,3,4
 608 190 608 190 682 281 c 128,-1,5
 756 372 756 372 784 540 c 0,6,7
 810 700 810 700 769 793 c 128,-1,8
 728 886 728 886 626 886 c 256,9,10
 526 886 526 886 453 793 c 128,-1,11
 380 700 380 700 354 540 c 0,0,1
24 0 m 1,12,-1
 224 1206 l 2,13,14
 252 1380 252 1380 366 1472 c 128,-1,15
 480 1564 480 1564 634 1564 c 0,16,17
 716 1564 716 1564 820 1552 c 1,18,-1
 780 1320 l 1,19,20
 682 1332 682 1332 642 1332 c 0,21,22
 574 1332 574 1332 523 1286 c 128,-1,23
 472 1240 472 1240 458 1158 c 2,24,-1
 428 978 l 1,25,26
 546 1108 546 1108 698 1108 c 0,27,28
 888 1108 888 1108 984 956 c 128,-1,29
 1080 804 1080 804 1036 540 c 0,30,31
 990 258 990 258 837 113 c 128,-1,32
 684 -32 684 -32 512 -32 c 0,33,34
 424 -32 424 -32 365 15 c 128,-1,35
 306 62 306 62 282 122 c 1,36,-1
 262 0 l 1,37,-1
 24 0 l 1,12,-1
EndSplineSet
EndChar

StartChar: uni0254
Encoding: 596 596 520
Width: 978
GlyphClass: 2
Flags: W
LayerCount: 2
Fore
SplineSet
-14 310 m 1,0,-1
 210 372 l 1,1,2
 218 302 218 302 262 246 c 128,-1,3
 306 190 306 190 384 190 c 0,4,5
 480 190 480 190 559 280 c 128,-1,6
 638 370 638 370 666 536 c 0,7,8
 690 686 690 686 649 786 c 128,-1,9
 608 886 608 886 500 886 c 0,10,11
 430 886 430 886 376 837 c 128,-1,12
 322 788 322 788 292 718 c 1,13,-1
 90 778 l 1,14,15
 138 906 138 906 260 1007 c 128,-1,16
 382 1108 382 1108 540 1108 c 0,17,18
 750 1108 750 1108 857 954 c 128,-1,19
 964 800 964 800 920 536 c 0,20,21
 878 278 878 278 721 123 c 128,-1,22
 564 -32 564 -32 350 -32 c 0,23,24
 194 -32 194 -32 95 72 c 128,-1,25
 -4 176 -4 176 -14 310 c 1,0,-1
EndSplineSet
EndChar

StartChar: uni0255
Encoding: 597 597 521
Width: 978
GlyphClass: 2
Flags: W
LayerCount: 2
Fore
SplineSet
442 178 m 1,0,1
 490 146 490 146 544 146 c 0,2,3
 600 146 600 146 638 168 c 128,-1,4
 676 190 676 190 680 222 c 0,5,6
 684 252 684 252 664 270 c 128,-1,7
 644 288 644 288 608 288 c 0,8,9
 512 288 512 288 442 178 c 1,0,1
54 556 m 0,10,11
 92 788 92 788 245 948 c 128,-1,12
 398 1108 398 1108 622 1108 c 0,13,14
 782 1108 782 1108 866 1004 c 128,-1,15
 950 900 950 900 956 778 c 1,16,-1
 742 718 l 1,17,18
 720 886 720 886 586 886 c 0,19,20
 480 886 480 886 404 786 c 128,-1,21
 328 686 328 686 304 538 c 0,22,23
 280 398 280 398 320 302 c 1,24,25
 376 368 376 368 463 419 c 128,-1,26
 550 470 550 470 646 470 c 0,27,28
 762 470 762 470 829 403 c 128,-1,29
 896 336 896 336 878 224 c 0,30,31
 858 102 858 102 760 35 c 128,-1,32
 662 -32 662 -32 508 -32 c 0,33,34
 418 -32 418 -32 338 -14 c 1,35,36
 308 -74 308 -74 290 -128 c 1,37,-1
 88 -78 l 1,38,39
 114 0 114 0 158 74 c 1,40,41
 0 234 0 234 54 556 c 0,10,11
EndSplineSet
EndChar

StartChar: uni0256
Encoding: 598 598 522
Width: 1096
GlyphClass: 2
Flags: W
LayerCount: 2
Fore
SplineSet
52 538 m 0,0,1
 96 808 96 808 246 958 c 128,-1,2
 396 1108 396 1108 582 1108 c 0,3,4
 664 1108 664 1108 721 1069 c 128,-1,5
 778 1030 778 1030 802 976 c 1,6,-1
 892 1518 l 1,7,-1
 1136 1518 l 1,8,-1
 876 -54 l 2,9,10
 850 -208 850 -208 972 -208 c 0,11,12
 1034 -208 1034 -208 1118 -192 c 1,13,-1
 1080 -420 l 1,14,15
 948 -438 948 -438 886 -438 c 0,16,17
 750 -438 750 -438 676 -353 c 128,-1,18
 602 -268 602 -268 634 -72 c 2,19,-1
 666 120 l 1,20,21
 622 56 622 56 546 12 c 128,-1,22
 470 -32 470 -32 390 -32 c 0,23,24
 308 -32 308 -32 240 0 c 128,-1,25
 172 32 172 32 118 96 c 128,-1,26
 64 160 64 160 46 274 c 128,-1,27
 28 388 28 388 52 538 c 0,0,1
304 538 m 0,28,29
 276 374 276 374 319 282 c 128,-1,30
 362 190 362 190 462 190 c 0,31,32
 558 190 558 190 631 284 c 128,-1,33
 704 378 704 378 730 538 c 0,34,35
 756 694 756 694 716 790 c 128,-1,36
 676 886 676 886 576 886 c 0,37,38
 478 886 478 886 405 795 c 128,-1,39
 332 704 332 704 304 538 c 0,28,29
EndSplineSet
EndChar

StartChar: uni0257
Encoding: 599 599 523
Width: 1096
GlyphClass: 2
Flags: W
LayerCount: 2
Fore
SplineSet
52 538 m 0,0,1
 96 806 96 806 244 957 c 128,-1,2
 392 1108 392 1108 582 1108 c 0,3,4
 666 1108 666 1108 723 1069 c 128,-1,5
 780 1030 780 1030 802 976 c 1,6,-1
 842 1218 l 2,7,8
 870 1386 870 1386 983 1475 c 128,-1,9
 1096 1564 1096 1564 1246 1564 c 0,10,11
 1324 1564 1324 1564 1424 1556 c 1,12,-1
 1384 1324 l 1,13,14
 1324 1332 1324 1332 1254 1332 c 0,15,16
 1190 1332 1190 1332 1140 1288 c 128,-1,17
 1090 1244 1090 1244 1078 1166 c 2,18,-1
 884 0 l 1,19,-1
 648 0 l 1,20,-1
 668 124 l 1,21,22
 628 62 628 62 551 15 c 128,-1,23
 474 -32 474 -32 390 -32 c 0,24,25
 308 -32 308 -32 240 0 c 128,-1,26
 172 32 172 32 118 96 c 128,-1,27
 64 160 64 160 46 274 c 128,-1,28
 28 388 28 388 52 538 c 0,0,1
304 538 m 0,29,30
 276 368 276 368 319 279 c 128,-1,31
 362 190 362 190 462 190 c 0,32,33
 558 190 558 190 631 281 c 128,-1,34
 704 372 704 372 730 538 c 0,35,36
 756 694 756 694 716 790 c 128,-1,37
 676 886 676 886 576 886 c 0,38,39
 474 886 474 886 402 793 c 128,-1,40
 330 700 330 700 304 538 c 0,29,30
EndSplineSet
EndChar

StartChar: uni0258
Encoding: 600 600 524
Width: 1052
GlyphClass: 2
Flags: W
LayerCount: 2
Fore
SplineSet
38 448 m 1,0,1
 40 496 40 496 50 548 c 0,2,3
 92 800 92 800 253 954 c 128,-1,4
 414 1108 414 1108 612 1108 c 0,5,6
 814 1108 814 1108 926 956 c 128,-1,7
 1038 804 1038 804 996 542 c 0,8,9
 952 278 952 278 788 123 c 128,-1,10
 624 -32 624 -32 410 -32 c 0,11,12
 244 -32 244 -32 145 49 c 128,-1,13
 46 130 46 130 14 248 c 1,14,-1
 232 326 l 1,15,16
 254 262 254 262 307 219 c 128,-1,17
 360 176 360 176 440 176 c 0,18,19
 552 176 552 176 629 255 c 128,-1,20
 706 334 706 334 726 448 c 1,21,-1
 38 448 l 1,0,1
314 628 m 1,22,-1
 756 628 l 1,23,24
 772 742 772 742 727 822 c 128,-1,25
 682 902 682 902 578 902 c 256,26,27
 474 902 474 902 404 823 c 128,-1,28
 334 744 334 744 314 628 c 1,22,-1
EndSplineSet
EndChar

StartChar: uni025A
Encoding: 602 602 526
Width: 1250
GlyphClass: 2
Flags: W
LayerCount: 2
Fore
SplineSet
36 460 m 1,0,-1
 754 764 l 1,1,2
 704 900 704 900 570 900 c 0,3,4
 412 900 412 900 302 748 c 1,5,-1
 110 828 l 1,6,7
 182 948 182 948 309 1028 c 128,-1,8
 436 1108 436 1108 606 1108 c 0,9,10
 742 1108 742 1108 836 1042 c 128,-1,11
 930 976 930 976 970 868 c 1,12,-1
 1138 940 l 1,13,14
 1146 868 1146 868 1181 823 c 128,-1,15
 1216 778 1216 778 1264 778 c 0,16,17
 1322 778 1322 778 1358 790 c 1,18,-1
 1324 584 l 1,19,20
 1268 566 1268 566 1208 566 c 256,21,22
 1148 566 1148 566 1102 595 c 128,-1,23
 1056 624 1056 624 1042 670 c 1,24,-1
 1004 654 l 1,25,26
 1004 594 1004 594 994 536 c 0,27,28
 952 284 952 284 795 126 c 128,-1,29
 638 -32 638 -32 424 -32 c 0,30,31
 312 -32 312 -32 229 15 c 128,-1,32
 146 62 146 62 104 137 c 128,-1,33
 62 212 62 212 45 295 c 128,-1,34
 28 378 28 378 36 460 c 1,0,-1
284 350 m 1,35,36
 288 268 288 268 337 221 c 128,-1,37
 386 174 386 174 458 174 c 0,38,39
 538 174 538 174 602 229 c 128,-1,40
 666 284 666 284 698 378 c 1,41,42
 732 442 732 442 742 510 c 0,43,44
 744 528 744 528 746 546 c 1,45,-1
 284 350 l 1,35,36
EndSplineSet
EndChar

StartChar: uni025B
Encoding: 603 603 527
Width: 950
GlyphClass: 2
Flags: W
LayerCount: 2
Fore
SplineSet
14 314 m 0,0,1
 28 404 28 404 84 469 c 128,-1,2
 140 534 140 534 208 568 c 1,3,-1
 210 568 l 1,4,5
 106 654 106 654 130 794 c 256,6,7
 154 934 154 934 278 1021 c 128,-1,8
 402 1108 402 1108 580 1108 c 0,9,10
 858 1108 858 1108 948 838 c 1,11,-1
 730 752 l 1,12,13
 706 810 706 810 657 848 c 128,-1,14
 608 886 608 886 544 886 c 0,15,16
 396 886 396 886 378 774 c 0,17,18
 370 722 370 722 407 686 c 128,-1,19
 444 650 444 650 522 650 c 2,20,-1
 650 650 l 1,21,-1
 618 454 l 1,22,-1
 490 454 l 2,23,24
 384 454 384 454 330 415 c 128,-1,25
 276 376 276 376 266 318 c 0,26,27
 256 254 256 254 310 222 c 128,-1,28
 364 190 364 190 434 190 c 0,29,30
 506 190 506 190 575 226 c 128,-1,31
 644 262 644 262 686 318 c 1,32,-1
 866 228 l 1,33,34
 794 114 794 114 669 41 c 128,-1,35
 544 -32 544 -32 394 -32 c 0,36,37
 206 -32 206 -32 97 60 c 128,-1,38
 -12 152 -12 152 14 314 c 0,0,1
EndSplineSet
EndChar

StartChar: uni025C
Encoding: 604 604 528
Width: 950
GlyphClass: 2
Flags: W
LayerCount: 2
Fore
SplineSet
-28 228 m 1,0,-1
 182 318 l 1,1,2
 206 262 206 262 263 226 c 128,-1,3
 320 190 320 190 392 190 c 0,4,5
 462 190 462 190 526 222 c 128,-1,6
 590 254 590 254 602 318 c 0,7,8
 612 376 612 376 570 415 c 128,-1,9
 528 454 528 454 422 454 c 2,10,-1
 296 454 l 1,11,-1
 328 650 l 1,12,-1
 456 650 l 2,13,14
 536 650 536 650 584 686 c 128,-1,15
 632 722 632 722 640 774 c 0,16,17
 658 886 658 886 512 886 c 0,18,19
 450 886 450 886 388 848 c 128,-1,20
 326 810 326 810 282 752 c 1,21,-1
 92 838 l 1,22,23
 272 1108 272 1108 550 1108 c 0,24,25
 728 1108 728 1108 824 1021 c 128,-1,26
 920 934 920 934 896 794 c 256,27,28
 872 654 872 654 740 568 c 1,29,-1
 742 568 l 1,30,31
 800 534 800 534 834 469 c 128,-1,32
 868 404 868 404 852 314 c 0,33,34
 826 152 826 152 686 60 c 128,-1,35
 546 -32 546 -32 358 -32 c 0,36,37
 208 -32 208 -32 107 41 c 128,-1,38
 6 114 6 114 -28 228 c 1,0,-1
EndSplineSet
EndChar

StartChar: uni025D
Encoding: 605 605 529
Width: 1144
GlyphClass: 2
Flags: W
LayerCount: 2
Fore
SplineSet
-28 228 m 1,0,-1
 182 318 l 1,1,2
 202 268 202 268 259 229 c 128,-1,3
 316 190 316 190 392 190 c 0,4,5
 478 190 478 190 535 226 c 128,-1,6
 592 262 592 262 602 322 c 0,7,8
 612 380 612 380 568 417 c 128,-1,9
 524 454 524 454 420 454 c 2,10,-1
 296 454 l 1,11,-1
 328 650 l 1,12,-1
 454 650 l 2,13,14
 534 650 534 650 583 686 c 128,-1,15
 632 722 632 722 640 774 c 0,16,17
 658 886 658 886 514 886 c 0,18,19
 382 886 382 886 280 752 c 1,20,-1
 92 838 l 1,21,22
 276 1108 276 1108 550 1108 c 0,23,24
 778 1108 778 1108 868 972 c 1,25,-1
 1028 1062 l 1,26,27
 1036 990 1036 990 1075 941 c 128,-1,28
 1114 892 1114 892 1164 892 c 0,29,30
 1220 892 1220 892 1258 906 c 1,31,-1
 1224 698 l 1,32,33
 1168 680 1168 680 1110 680 c 0,34,35
 1050 680 1050 680 1000 711 c 128,-1,36
 950 742 950 742 934 786 c 1,37,-1
 888 760 l 1,38,39
 876 720 876 720 872 714 c 0,40,41
 834 620 834 620 742 570 c 1,42,-1
 744 568 l 1,43,44
 798 536 798 536 833 473 c 128,-1,45
 868 410 868 410 854 320 c 0,46,47
 826 154 826 154 689 61 c 128,-1,48
 552 -32 552 -32 356 -32 c 0,49,50
 206 -32 206 -32 104 42 c 128,-1,51
 2 116 2 116 -28 228 c 1,0,-1
EndSplineSet
EndChar

StartChar: uni025E
Encoding: 606 606 530
Width: 1044
GlyphClass: 2
Flags: W
LayerCount: 2
Fore
SplineSet
52 538 m 0,0,1
 72 654 72 654 114 752 c 128,-1,2
 156 850 156 850 227 932 c 128,-1,3
 298 1014 298 1014 406 1061 c 128,-1,4
 514 1108 514 1108 648 1108 c 0,5,6
 808 1108 808 1108 914 1029 c 128,-1,7
 1020 950 1020 950 996 796 c 0,8,9
 972 646 972 646 850 570 c 1,10,-1
 852 570 l 1,11,12
 982 492 982 492 954 320 c 0,13,14
 938 224 938 224 889 154 c 128,-1,15
 840 84 840 84 768 45 c 128,-1,16
 696 6 696 6 619 -13 c 128,-1,17
 542 -32 542 -32 460 -32 c 0,18,19
 326 -32 326 -32 234 13 c 128,-1,20
 142 58 142 58 98 139 c 128,-1,21
 54 220 54 220 43 319 c 128,-1,22
 32 418 32 418 52 538 c 0,0,1
304 538 m 0,23,24
 272 348 272 348 333 269 c 128,-1,25
 394 190 394 190 500 190 c 0,26,27
 678 190 678 190 700 320 c 0,28,29
 708 372 708 372 666 412 c 128,-1,30
 624 452 624 452 538 452 c 2,31,-1
 462 452 l 1,32,-1
 496 656 l 1,33,-1
 572 656 l 2,34,35
 640 656 640 656 685 690 c 128,-1,36
 730 724 730 724 738 776 c 0,37,38
 746 830 746 830 711 859 c 128,-1,39
 676 888 676 888 614 888 c 0,40,41
 516 888 516 888 425 805 c 128,-1,42
 334 722 334 722 304 538 c 0,23,24
EndSplineSet
EndChar

StartChar: uni025F
Encoding: 607 607 531
Width: 520
GlyphClass: 2
Flags: W
LayerCount: 2
Fore
SplineSet
-48 488 m 1,0,-1
 -12 702 l 1,1,-1
 164 702 l 1,2,-1
 226 1076 l 1,3,-1
 472 1076 l 1,4,-1
 410 702 l 1,5,-1
 582 702 l 1,6,-1
 546 488 l 1,7,-1
 376 488 l 1,8,-1
 294 -6 l 2,9,10
 260 -210 260 -210 157 -314 c 128,-1,11
 54 -418 54 -418 -110 -418 c 2,12,-1
 -182 -418 l 1,13,-1
 -146 -194 l 1,14,-1
 -116 -194 l 2,15,16
 -50 -194 -50 -194 -9 -147 c 128,-1,17
 32 -100 32 -100 48 4 c 2,18,-1
 128 488 l 1,19,-1
 -48 488 l 1,0,-1
EndSplineSet
EndChar

StartChar: uni0260
Encoding: 608 608 532
Width: 1104
GlyphClass: 2
Flags: W
LayerCount: 2
Fore
SplineSet
60 558 m 256,0,1
 102 810 102 810 247 959 c 128,-1,2
 392 1108 392 1108 576 1108 c 0,3,4
 732 1108 732 1108 784 968 c 1,5,-1
 826 1220 l 2,6,7
 854 1386 854 1386 969 1475 c 128,-1,8
 1084 1564 1084 1564 1236 1564 c 0,9,10
 1322 1564 1322 1564 1418 1556 c 1,11,-1
 1380 1326 l 1,12,13
 1332 1332 1332 1332 1244 1332 c 0,14,15
 1180 1332 1180 1332 1127 1288 c 128,-1,16
 1074 1244 1074 1244 1062 1168 c 2,17,-1
 894 156 l 2,18,19
 846 -132 846 -132 713 -285 c 128,-1,20
 580 -438 580 -438 332 -438 c 0,21,22
 78 -438 78 -438 -36 -226 c 1,23,-1
 146 -106 l 1,24,25
 226 -230 226 -230 370 -230 c 0,26,27
 470 -230 470 -230 539 -152 c 128,-1,28
 608 -74 608 -74 632 46 c 2,29,-1
 648 132 l 1,30,31
 604 78 604 78 537 44 c 128,-1,32
 470 10 470 10 400 10 c 0,33,34
 208 10 208 10 113 158 c 128,-1,35
 18 306 18 306 60 558 c 256,0,1
310 560 m 0,36,37
 282 396 282 396 327 315 c 128,-1,38
 372 234 372 234 462 234 c 0,39,40
 556 234 556 234 623 318 c 128,-1,41
 690 402 690 402 716 560 c 0,42,43
 740 710 740 710 701 798 c 128,-1,44
 662 886 662 886 570 886 c 256,45,46
 476 886 476 886 406 803 c 128,-1,47
 336 720 336 720 310 560 c 0,36,37
EndSplineSet
EndChar

StartChar: uni0262
Encoding: 610 610 534
Width: 1034
GlyphClass: 2
Flags: W
LayerCount: 2
Fore
SplineSet
50 534 m 0,0,1
 94 796 94 796 248 952 c 128,-1,2
 402 1108 402 1108 632 1108 c 0,3,4
 912 1108 912 1108 988 824 c 1,5,-1
 770 734 l 1,6,7
 754 792 754 792 710 839 c 128,-1,8
 666 886 666 886 594 886 c 0,9,10
 484 886 484 886 407 794 c 128,-1,11
 330 702 330 702 302 534 c 0,12,13
 274 370 274 370 324 281 c 128,-1,14
 374 192 374 192 480 192 c 0,15,16
 554 192 554 192 612 238 c 128,-1,17
 670 284 670 284 696 368 c 1,18,-1
 706 420 l 1,19,-1
 482 420 l 1,20,-1
 514 620 l 1,21,-1
 968 620 l 1,22,-1
 866 0 l 1,23,-1
 684 0 l 1,24,-1
 686 80 l 1,25,26
 650 34 650 34 577 1 c 128,-1,27
 504 -32 504 -32 428 -32 c 0,28,29
 226 -32 226 -32 115 115 c 128,-1,30
 4 262 4 262 50 534 c 0,0,1
EndSplineSet
EndChar

StartChar: uni0263
Encoding: 611 611 535
Width: 996
GlyphClass: 2
Flags: W
LayerCount: 2
Fore
SplineSet
98 1076 m 1,0,-1
 368 1076 l 1,1,-1
 442 240 l 1,2,-1
 444 240 l 1,3,-1
 482 316 l 1,4,-1
 800 1076 l 1,5,-1
 1070 1076 l 1,6,-1
 594 124 l 1,7,8
 642 74 642 74 667 3 c 128,-1,9
 692 -68 692 -68 680 -138 c 0,10,11
 658 -268 658 -268 561 -353 c 128,-1,12
 464 -438 464 -438 332 -438 c 0,13,14
 204 -438 204 -438 134 -356 c 128,-1,15
 64 -274 64 -274 86 -138 c 0,16,17
 108 0 108 0 252 120 c 1,18,-1
 98 1076 l 1,0,-1
288 -138 m 0,19,20
 280 -186 280 -186 300 -221 c 128,-1,21
 320 -256 320 -256 362 -256 c 0,22,23
 406 -256 406 -256 439 -220 c 128,-1,24
 472 -184 472 -184 478 -138 c 0,25,26
 484 -98 484 -98 466 -49 c 128,-1,27
 448 0 448 0 410 32 c 1,28,29
 306 -34 306 -34 288 -138 c 0,19,20
EndSplineSet
Substitution2: "'sups' Superscript lookup 5 subtable" uni02E0
Substitution2: "'aalt' Access All Alternates lookup 0 subtable" uni02E0
EndChar

StartChar: uni0264
Encoding: 612 612 536
Width: 920
GlyphClass: 2
Flags: W
LayerCount: 2
Fore
SplineSet
470 608 m 1,0,1
 342 468 342 468 322 346 c 0,2,3
 312 280 312 280 331 235 c 128,-1,4
 350 190 350 190 402 190 c 0,5,6
 448 190 448 190 483 235 c 128,-1,7
 518 280 518 280 528 346 c 0,8,9
 548 476 548 476 470 608 c 1,0,1
70 868 m 1,10,-1
 106 1086 l 1,11,12
 188 1108 188 1108 254 1108 c 0,13,14
 414 1108 414 1108 532 976 c 1,15,16
 684 1108 684 1108 852 1108 c 0,17,18
 928 1108 928 1108 990 1088 c 1,19,-1
 954 864 l 1,20,21
 888 884 888 884 820 884 c 0,22,23
 742 884 742 884 650 804 c 1,24,25
 702 710 702 710 726 657 c 128,-1,26
 750 604 750 604 765 519 c 128,-1,27
 780 434 780 434 764 342 c 0,28,29
 736 174 736 174 631 71 c 128,-1,30
 526 -32 526 -32 364 -32 c 0,31,32
 196 -32 196 -32 129 73 c 128,-1,33
 62 178 62 178 90 342 c 0,34,35
 112 472 112 472 180 579 c 128,-1,36
 248 686 248 686 356 804 c 1,37,38
 286 884 286 884 204 884 c 0,39,40
 180 884 180 884 159 881 c 128,-1,41
 138 878 138 878 112 874 c 128,-1,42
 86 870 86 870 70 868 c 1,10,-1
EndSplineSet
EndChar

StartChar: uni0265
Encoding: 613 613 537
Width: 1054
GlyphClass: 2
Flags: W
LayerCount: 2
Fore
SplineSet
66 386 m 2,0,-1
 180 1076 l 1,1,-1
 426 1076 l 1,2,-1
 318 414 l 2,3,4
 280 190 280 190 428 190 c 0,5,6
 514 190 514 190 587 274 c 128,-1,7
 660 358 660 358 678 466 c 2,8,-1
 778 1076 l 1,9,-1
 1020 1076 l 1,10,-1
 772 -430 l 1,11,-1
 530 -430 l 1,12,-1
 616 90 l 1,13,-1
 614 90 l 1,14,15
 504 -32 504 -32 342 -32 c 0,16,17
 292 -32 292 -32 249 -21 c 128,-1,18
 206 -10 206 -10 163 19 c 128,-1,19
 120 48 120 48 94 93 c 128,-1,20
 68 138 68 138 59 213 c 128,-1,21
 50 288 50 288 66 386 c 2,0,-1
EndSplineSet
EndChar

StartChar: uni0266
Encoding: 614 614 538
Width: 1054
GlyphClass: 2
Flags: W
LayerCount: 2
Fore
SplineSet
26 0 m 1,0,-1
 228 1216 l 2,1,2
 256 1386 256 1386 369 1475 c 128,-1,3
 482 1564 482 1564 632 1564 c 0,4,5
 724 1564 724 1564 824 1556 c 1,6,-1
 786 1326 l 1,7,8
 732 1332 732 1332 644 1332 c 0,9,10
 578 1332 578 1332 525 1287 c 128,-1,11
 472 1242 472 1242 460 1168 c 2,12,-1
 430 986 l 1,13,-1
 432 986 l 1,14,15
 558 1108 558 1108 706 1108 c 0,16,17
 848 1108 848 1108 932 1011 c 128,-1,18
 1016 914 1016 914 978 690 c 2,19,-1
 864 0 l 1,20,-1
 620 0 l 1,21,-1
 730 662 l 2,22,23
 768 886 768 886 622 886 c 0,24,25
 532 886 532 886 459 804 c 128,-1,26
 386 722 386 722 368 610 c 2,27,-1
 266 0 l 1,28,-1
 26 0 l 1,0,-1
EndSplineSet
Substitution2: "'sups' Superscript lookup 5 subtable" uni02B1
Substitution2: "'aalt' Access All Alternates lookup 0 subtable" uni02B1
EndChar

StartChar: uni0267
Encoding: 615 615 539
Width: 1056
GlyphClass: 2
Flags: W
LayerCount: 2
Fore
SplineSet
26 0 m 1,0,-1
 228 1216 l 2,1,2
 256 1386 256 1386 369 1475 c 128,-1,3
 482 1564 482 1564 632 1564 c 0,4,5
 724 1564 724 1564 824 1556 c 1,6,-1
 786 1326 l 1,7,8
 736 1332 736 1332 644 1332 c 0,9,10
 578 1332 578 1332 525 1286 c 128,-1,11
 472 1240 472 1240 460 1164 c 2,12,-1
 430 986 l 1,13,-1
 432 986 l 1,14,15
 558 1108 558 1108 706 1108 c 0,16,17
 768 1108 768 1108 820 1090 c 128,-1,18
 872 1072 872 1072 919 1029 c 128,-1,19
 966 986 966 986 982 899 c 128,-1,20
 998 812 998 812 978 690 c 2,21,-1
 860 -32 l 2,22,23
 826 -240 826 -240 721 -338 c 128,-1,24
 616 -436 616 -436 436 -436 c 0,25,26
 352 -436 352 -436 262 -424 c 1,27,-1
 298 -200 l 1,28,29
 390 -214 390 -214 428 -214 c 0,30,31
 512 -214 512 -214 555 -173 c 128,-1,32
 598 -132 598 -132 618 -14 c 2,33,-1
 730 662 l 2,34,35
 768 886 768 886 622 886 c 0,36,37
 532 886 532 886 459 804 c 128,-1,38
 386 722 386 722 368 610 c 2,39,-1
 266 0 l 1,40,-1
 26 0 l 1,0,-1
EndSplineSet
EndChar

StartChar: uni0268
Encoding: 616 616 540
Width: 506
GlyphClass: 2
Flags: W
LayerCount: 2
Fore
SplineSet
232 1212 m 1,0,-1
 278 1490 l 1,1,-1
 534 1490 l 1,2,-1
 488 1212 l 1,3,-1
 232 1212 l 1,0,-1
-28 486 m 1,4,-1
 8 702 l 1,5,-1
 154 702 l 1,6,-1
 216 1076 l 1,7,-1
 460 1076 l 1,8,-1
 398 702 l 1,9,-1
 544 702 l 1,10,-1
 508 486 l 1,11,-1
 362 486 l 1,12,-1
 282 0 l 1,13,-1
 38 0 l 1,14,-1
 118 486 l 1,15,-1
 -28 486 l 1,4,-1
EndSplineSet
EndChar

